<?xml version="1.0" encoding="utf-8"?>
<!DOCTYPE svg PUBLIC "-//W3C//DTD SVG 1.1//EN" "http://www.w3.org/Graphics/SVG/1.1/DTD/svg11.dtd">
<svg version="1.1" id="Layer_1" xmlns="http://www.w3.org/2000/svg" xmlns:xlink="http://www.w3.org/1999/xlink" x="0px" y="0px"
	 width="300px" height="300px" viewBox="0 0 300 300" enable-background="new 0 0 300 300" xml:space="preserve">
<g>
	<path id="Icon_bgrnd_8_" fill-rule="evenodd" clip-rule="evenodd" fill="#216E86" d="M295.858,150.605
		c0,80.032-64.878,144.914-144.915,144.914C70.909,295.52,6.03,230.638,6.03,150.605C6.03,70.572,70.909,5.692,150.944,5.692
		C230.98,5.692,295.858,70.572,295.858,150.605z"/>
	<path fill-rule="evenodd" clip-rule="evenodd" fill-opacity="0.1" d="M6.03,150.605c0,24.419,6.066,47.412,16.73,67.593
		c20.188,10.667,43.177,16.732,67.595,16.732c80.036,0,144.914-64.881,144.914-144.914c0-24.418-6.066-47.41-16.73-67.593
		c-20.187-10.666-43.177-16.732-67.595-16.732C70.909,5.692,6.03,70.572,6.03,150.605z"/>
	<path fill-rule="evenodd" clip-rule="evenodd" fill="#F1F2F2" d="M115.026,89.303c29.399,64.229,76.24,26.196,108.288,42.629
		c9.199,5.086,19.063,8.294,29.348,10.287c1.351,0.259,2.713,0.449,4.188,0.693c-0.161-1.499-0.237-2.792-0.447-4.059
		c-0.49-2.924-0.903-5.876-1.605-8.755c-5.622-23.117-18.509-41.247-38.123-54.523c-17.689-11.979-37.363-17.123-58.688-16.041
		c-12.443,0.633-24.451,3.184-35.849,8.244c-24.484,10.872-40.49,29.209-47.939,54.953c-3.533,12.216,40.303,5.632,40.024-32.541
		l-0.561-1.397L115.026,89.303z M256.431,191.688c0.262,0.056,0.491,0.128,0.731,0.147c9.611,0.996,17.382-2.262,23.009-10.188
		c4.646-6.538,6.76-13.993,7.289-21.901c0.614-9.274-0.869-18.197-5.215-26.505c-2.527-4.827-5.856-8.956-10.9-11.38
		c-0.842-0.402-1.248-0.924-1.517-1.792c-6.061-19.463-16.472-36.251-31.671-49.814c-26.899-24-58.416-33.286-93.977-27.718
		c-25.694,4.023-47.248,16.221-64.764,35.428c-11.064,12.137-18.975,26.131-23.858,41.818c-0.196,0.639-0.534,1.008-1.134,1.36
		c-1.705,1.007-3.46,2.005-4.952,3.289c-3.681,3.162-6.122,7.239-7.934,11.689c-3.69,9.066-4.5,18.481-3.12,28.104
		c0.964,6.682,3.067,12.988,6.98,18.572c2.72,3.89,6.082,7.039,10.71,8.523c0.944,0.302,1.399,0.773,1.743,1.669
		c7.643,19.866,19.893,36.314,36.79,49.242c15.881,12.159,33.801,19.477,53.641,22.096c0.668,0.084,1.383,0.454,1.894,0.904
		c3.412,2.985,8.498,2.825,11.667-0.431c3.146-3.233,3.159-8.409,0.032-11.663c-3.133-3.264-8.285-3.506-11.634-0.459
		c-0.678,0.616-1.292,0.771-2.144,0.644c-7.917-1.18-15.589-3.222-23.025-6.185c-34.922-13.921-59.449-46.35-63.197-83.735
		c-1.823-18.194,1.025-35.663,8.566-52.343c18.558-41.07,62.928-65.093,107.446-58.164c19.492,3.037,36.685,11.037,51.55,24.005
		c29.783,25.977,41.692,67.446,30.209,105.26C258.685,185.327,257.532,188.441,256.431,191.688z M216.256,167.575
		c-0.102-1.042-0.164-2.088-0.312-3.123c-1.566-10.877-12.463-18.048-22.938-15.101c-9.218,2.593-15.006,12.145-13.171,21.734
		c1.672,8.724,8.904,15.114,17.369,15.344C207.676,186.718,216.18,178.269,216.256,167.575z M144.776,167.559
		c-0.111-1.114-0.177-2.231-0.354-3.336c-1.701-10.825-12.604-17.849-23.012-14.842c-9.052,2.617-14.794,11.998-13.109,21.414
		c1.58,8.845,8.809,15.366,17.339,15.635C136.158,186.76,144.705,178.301,144.776,167.559z M189.071,214.141
		c-17.12,8.174-34.097,8.164-51.301,0.465c-0.78,1.226-1.016,2.753-0.905,4.339c0.276,3.802,2.196,6.813,4.746,9.452
		c4.739,4.902,10.618,7.675,17.304,8.651c8.003,1.17,15.625,0.026,22.5-4.489c4.189-2.753,7.289-6.397,8.41-11.438
		C190.375,218.663,190.152,216.274,189.071,214.141z"/>
</g>
</svg>
