<?xml version="1.0" encoding="utf-8"?>
<!DOCTYPE svg PUBLIC "-//W3C//DTD SVG 1.1//EN" "http://www.w3.org/Graphics/SVG/1.1/DTD/svg11.dtd">
<svg version="1.1" id="Layer_1" xmlns="http://www.w3.org/2000/svg" xmlns:xlink="http://www.w3.org/1999/xlink" x="0px" y="0px"
	 width="300px" height="300px" viewBox="0 0 300 300" enable-background="new 0 0 300 300" xml:space="preserve">
<g>
	<circle id="Icon_bgrnd_5_" fill-rule="evenodd" clip-rule="evenodd" fill="#216E86" cx="150.332" cy="150.605" r="144.914"/>
	<path fill-rule="evenodd" clip-rule="evenodd" fill-opacity="0.1" d="M5.418,150.605c0,24.419,6.066,47.412,16.731,67.593
		c20.185,10.667,43.176,16.732,67.594,16.732c80.032,0,144.914-64.881,144.914-144.914c0-24.418-6.066-47.41-16.733-67.593
		C197.742,11.758,174.75,5.692,150.332,5.692C70.298,5.692,5.418,70.572,5.418,150.605z"/>
	<path fill-rule="evenodd" clip-rule="evenodd" fill="#F1F2F2" d="M203.852,94.537c0.059,0.039,0.117,0.08,0.177,0.119
		c-0.075,0.258-0.145,0.517-0.223,0.769c-3.104,9.769-1.187,18.477,5.542,26.153c3.778,4.31,8.373,7.598,13.354,10.354
		c9.198,5.086,19.06,8.294,29.35,10.287c1.348,0.259,2.707,0.449,4.183,0.693c-0.157-1.499-0.229-2.792-0.442-4.059
		c-0.488-2.924-0.905-5.876-1.605-8.755c-5.621-23.117-18.511-41.247-38.124-54.523c-17.69-11.979-37.367-17.123-58.688-16.041
		c-12.442,0.633-24.45,3.184-35.852,8.244C97.042,78.65,81.035,96.987,73.588,122.731c-3.536,12.216-4.434,24.72-3.88,37.368
		c0.036,0.826,0.12,1.655,0.19,2.603c0.14-0.164,0.173-0.188,0.185-0.217c0.11-0.295,0.221-0.586,0.326-0.885
		c2.21-6.256,6.406-10.529,12.673-12.786c3.906-1.407,7.956-2.14,12.052-2.633c7.768-0.939,15.565-1.678,23.313-2.751
		c17.507-2.421,33.796-8.293,48.817-17.646c13.364-8.321,25.005-18.67,35.63-30.215C203.216,95.226,203.533,94.882,203.852,94.537z
		 M255.82,191.688c0.26,0.056,0.492,0.128,0.729,0.147c9.614,0.996,17.382-2.262,23.012-10.188
		c4.641-6.538,6.759-13.993,7.283-21.901c0.616-9.274-0.866-18.197-5.212-26.505c-2.522-4.827-5.856-8.956-10.898-11.38
		c-0.844-0.402-1.253-0.924-1.519-1.792c-6.059-19.463-16.472-36.251-31.671-49.814c-26.898-24-58.415-33.286-93.975-27.718
		c-25.693,4.023-47.25,16.221-64.764,35.428c-11.067,12.137-18.975,26.131-23.858,41.818c-0.199,0.639-0.537,1.008-1.136,1.36
		c-1.706,1.007-3.458,2.005-4.952,3.289c-3.678,3.162-6.122,7.239-7.934,11.689c-3.688,9.066-4.5,18.481-3.118,28.104
		c0.96,6.682,3.064,12.988,6.978,18.572c2.723,3.89,6.083,7.039,10.709,8.523c0.944,0.302,1.401,0.773,1.744,1.669
		c7.642,19.866,19.896,36.314,36.79,49.242c15.884,12.159,33.804,19.477,53.643,22.096c0.667,0.084,1.384,0.454,1.893,0.904
		c3.413,2.985,8.499,2.825,11.665-0.431c3.146-3.233,3.166-8.409,0.039-11.663c-3.14-3.264-8.289-3.506-11.637-0.459
		c-0.679,0.616-1.292,0.771-2.146,0.644c-7.915-1.18-15.588-3.222-23.022-6.185c-34.925-13.921-59.448-46.35-63.2-83.735
		c-1.822-18.194,1.027-35.663,8.566-52.343C88.39,69.99,132.761,45.967,177.28,52.896c19.488,3.037,36.678,11.037,51.55,24.005
		c29.776,25.977,41.693,67.446,30.202,105.26C258.073,185.327,256.922,188.441,255.82,191.688z M215.643,167.575
		c-0.104-1.042-0.164-2.088-0.314-3.123c-1.56-10.877-12.46-18.048-22.934-15.101c-9.223,2.593-15.01,12.145-13.175,21.734
		c1.672,8.724,8.908,15.114,17.376,15.344C207.063,186.718,215.57,178.269,215.643,167.575z M144.164,167.559
		c-0.113-1.114-0.179-2.231-0.352-3.336c-1.703-10.825-12.604-17.849-23.016-14.842c-9.048,2.617-14.793,11.998-13.107,21.414
		c1.582,8.845,8.809,15.366,17.34,15.635C135.547,186.76,144.094,178.301,144.164,167.559z M188.462,214.141
		c-17.12,8.174-34.1,8.164-51.305,0.465c-0.778,1.226-1.016,2.753-0.903,4.339c0.273,3.802,2.194,6.813,4.744,9.452
		c4.74,4.902,10.618,7.675,17.306,8.651c8,1.17,15.623,0.026,22.495-4.489c4.188-2.753,7.295-6.397,8.415-11.438
		C189.763,218.663,189.536,216.274,188.462,214.141z"/>
</g>
</svg>
