<?xml version="1.0" encoding="utf-8"?>
<!DOCTYPE svg PUBLIC "-//W3C//DTD SVG 1.1//EN" "http://www.w3.org/Graphics/SVG/1.1/DTD/svg11.dtd">
<svg version="1.1" id="Layer_1" xmlns="http://www.w3.org/2000/svg" xmlns:xlink="http://www.w3.org/1999/xlink" x="0px" y="0px"
	 width="300px" height="300px" viewBox="0 0 300 300" enable-background="new 0 0 300 300" xml:space="preserve">
<g>
	<path id="Icon_bgrnd_6_" fill-rule="evenodd" clip-rule="evenodd" fill="#008B4A" d="M296.984,149.432
		c0,80.934-65.615,146.547-146.56,146.547c-80.936,0-146.551-65.613-146.551-146.547c0-80.944,65.615-146.56,146.551-146.56
		C231.369,2.873,296.984,68.488,296.984,149.432z"/>
	<path fill-rule="evenodd" clip-rule="evenodd" fill="#006838" d="M3.874,149.432c0,24.687,6.132,47.946,16.922,68.351
		c20.411,10.794,43.663,16.926,68.36,16.926c80.936,0,146.55-65.619,146.55-146.555c0-24.698-6.137-47.944-16.927-68.36
		C198.375,9.01,175.118,2.873,150.424,2.873C69.488,2.873,3.874,68.488,3.874,149.432z"/>
	<g>
		<path fill-rule="evenodd" clip-rule="evenodd" fill="#F1F2F2" d="M162.984,29.305c1.547,0.733,2.83,1.648,4.235,1.937
			c6.088,1.315,12.245,1.062,18.364,0.192c1.9-0.273,4.004-0.687,3.771-3.549c1.91,0.353,2.164,1.567,2.112,2.942
			c-0.16,4.398-0.333,8.792-0.546,13.181c-0.667,14.374-1.425,28.742-2.013,43.111c-0.15,3.979,1.639,7.261,4.632,9.919
			c5.885,5.238,12.579,7.559,20.578,6.84c4.004-0.359,8.118,0.587,12.186,1.027c6.358,0.692,12.709,1.452,19.09,2.179
			c2.387,0.263,2.314,0.414,1.83,2.78c-0.475,2.321-0.608,4.733-0.678,7.1c-0.697,23.176-1.306,46.352-2.041,69.519
			c-0.305,9.475-0.719,18.953-1.357,28.408c-0.404,6.127-2.254,11.906-4.831,17.519c-9.476,20.593-25.715,33.444-46.587,41.032
			c-2.992,1.102-6.146,1.821-9.252,2.599c-2.953,0.744-5.904,0.714-8.928-0.039c-14.035-3.489-26.989-9.297-37.98-18.738
			c-4.904-4.222-9.029-9.425-13.165-14.448c-5.764-6.982-8.027-15.522-10.018-24.127c-2.589-11.265-3.59-22.62-3.196-34.218
			c0.258-7.569-0.47-15.173-0.784-22.778c-0.688-16.44-1.401-32.888-2.113-49.329c-0.046-1.122-0.021-2.315-0.395-3.342
			c-0.738-2.033,0.419-2.699,1.967-2.952c2.413-0.395,4.85-0.592,7.286-0.83c6.069-0.581,12.117-1.188,18.194-1.673
			c2.042-0.157,4.135-0.085,6.177,0.092c9.009,0.748,16.614-2.246,22.672-8.813c1.181-1.289,1.788-3.56,1.809-5.394
			c0.143-7.205,0.051-14.435-0.192-21.644c-0.384-10.806-0.981-21.59-1.445-32.383c-0.051-1.497,0.02-3.014,0.15-4.515
			C162.59,30.22,162.913,29.557,162.984,29.305z M177.412,41.585c-1.516,0.237-2.324,0.769-2.042,1.922
			c0.173,0.651,0.991,1.491,1.638,1.603c1.154,0.217,1.941-0.714,1.811-1.831C178.737,42.672,177.908,42.152,177.412,41.585z
			 M147.016,108.51c0.052,0.233,0.113,0.46,0.164,0.697c1.486-0.303,2.982-0.606,4.469-0.91c-0.061-0.272-0.121-0.546-0.172-0.818
			C149.99,107.823,148.505,108.167,147.016,108.51z"/>
		<path fill-rule="evenodd" clip-rule="evenodd" fill="#F1F2F2" d="M177.412,41.585c0.496,0.566,1.325,1.086,1.406,1.694
			c0.131,1.117-0.656,2.047-1.811,1.831c-0.646-0.112-1.465-0.952-1.638-1.603C175.088,42.354,175.896,41.823,177.412,41.585z"/>
		<path fill-rule="evenodd" clip-rule="evenodd" fill="#F1F2F2" d="M147.016,108.51c1.489-0.343,2.974-0.687,4.46-1.031
			c0.051,0.272,0.111,0.546,0.172,0.818c-1.486,0.303-2.982,0.607-4.469,0.91C147.129,108.97,147.068,108.743,147.016,108.51z"/>
	</g>
</g>
</svg>
