<?xml version="1.0" encoding="utf-8"?>
<!DOCTYPE svg PUBLIC "-//W3C//DTD SVG 1.1//EN" "http://www.w3.org/Graphics/SVG/1.1/DTD/svg11.dtd">
<svg version="1.1" id="Layer_1" xmlns="http://www.w3.org/2000/svg" xmlns:xlink="http://www.w3.org/1999/xlink" x="0px" y="0px"
	 width="300px" height="300px" viewBox="0 0 300 300" enable-background="new 0 0 300 300" xml:space="preserve">
<g>
	<path id="Icon_bgrnd_1_" fill-rule="evenodd" clip-rule="evenodd" fill="#008B4A" d="M296.983,149.429
		c0,80.936-65.614,146.553-146.554,146.553c-80.938,0-146.555-65.617-146.555-146.553C3.875,68.484,69.491,2.87,150.429,2.87
		C231.369,2.87,296.983,68.484,296.983,149.429z"/>
	<path fill-rule="evenodd" clip-rule="evenodd" fill="#006838" d="M3.875,149.429c0,24.688,6.134,47.945,16.922,68.35
		c20.412,10.795,43.664,16.929,68.36,16.929c80.934,0,146.549-65.621,146.549-146.556c0-24.697-6.131-47.944-16.923-68.359
		C198.38,9.006,175.122,2.87,150.429,2.87C69.491,2.87,3.875,68.484,3.875,149.429z"/>
	<path fill-rule="evenodd" clip-rule="evenodd" fill="#F1F2F2" d="M139.705,174.607h52.78c0,0,68.203,2.997,68.203-68.204
		c0-71.202-69.65-69.655-69.65-69.655H95.715v103.856H57.012v34.002h38.703v26.896H56.011v34.391h39.704v36.17h43.99v-36.17h111.25
		v-34.391h-111.25V174.607z M139.705,71.887h35.736c0,0,47.182-4.111,47.182,34.036c0,38.146-47.779,34.673-47.779,34.673h-35.138
		V71.887z"/>
</g>
</svg>
