<?xml version="1.0" encoding="utf-8"?>
<!DOCTYPE svg PUBLIC "-//W3C//DTD SVG 1.1//EN" "http://www.w3.org/Graphics/SVG/1.1/DTD/svg11.dtd">
<svg version="1.1" id="Layer_1" xmlns="http://www.w3.org/2000/svg" xmlns:xlink="http://www.w3.org/1999/xlink" x="0px" y="0px"
	 width="300px" height="300px" viewBox="0 0 300 300" enable-background="new 0 0 300 300" xml:space="preserve">
<g>
	<path id="Icon_bgrnd_4_" fill-rule="evenodd" clip-rule="evenodd" fill="#008B4A" d="M296.724,149.424
		c0,80.792-65.494,146.296-146.292,146.296c-80.794,0-146.297-65.504-146.297-146.296c0-80.798,65.503-146.292,146.297-146.292
		C231.229,3.132,296.724,68.626,296.724,149.424z"/>
	<path id="Shade_1_" fill="#006838" d="M4.135,149.424c0,24.658,6.107,47.873,16.877,68.254
		c20.375,10.769,43.618,16.877,68.259,16.877c80.798,0,146.291-65.499,146.291-146.297c0-24.652-6.102-47.879-16.881-68.249
		c-20.37-10.774-43.592-16.876-68.249-16.876C69.638,3.132,4.135,68.626,4.135,149.424z"/>
	<path id="qMark_1_" fill="#FFFFFF" d="M231.956,127.293c0,25.204-7.473,44.786-22.442,58.745
		c-11.264,10.597-22.696,15.899-34.283,15.899v12.737h-48.557v-58.896c8.682,3.692,15.46,5.531,20.284,5.531
		c9.49,0,17.473-3.271,23.904-9.813c6.436-6.557,9.662-14.459,9.662-23.727s-3.357-17.205-10.066-23.828
		c-6.698-6.628-14.449-9.95-23.23-9.95c-7.833,0-15.178,3.049-22.04,9.136c-6.86,6.093-10.784,13.074-11.739,20.921l-49.998-6.513
		c4.167-20.426,13.317-37.14,27.449-50.159c15.395-14.308,34.172-21.456,56.328-21.456c25.035,0,45.415,7.664,61.153,22.993
		C224.104,84.243,231.956,103.698,231.956,127.293z M179.563,254.221c0,7.893-2.781,14.526-8.321,19.926
		c-5.567,5.386-12.28,8.085-20.163,8.085c-8.048,0-14.854-2.699-20.406-8.085c-5.555-5.399-8.327-12.033-8.327-19.926
		c0-7.887,2.771-14.643,8.327-20.277c5.552-5.629,12.357-8.444,20.406-8.444c7.883,0,14.596,2.815,20.163,8.444
		C176.781,239.578,179.563,246.334,179.563,254.221z"/>
</g>
</svg>
