<?xml version="1.0" encoding="utf-8"?>
<!-- Generator: Adobe Illustrator 16.0.0, SVG Export Plug-In . SVG Version: 6.00 Build 0)  -->
<!DOCTYPE svg PUBLIC "-//W3C//DTD SVG 1.1//EN" "http://www.w3.org/Graphics/SVG/1.1/DTD/svg11.dtd">
<svg version="1.1" id="Layer_1" xmlns="http://www.w3.org/2000/svg" xmlns:xlink="http://www.w3.org/1999/xlink" x="0px" y="0px"
	 width="300px" height="400px" viewBox="0 0 300 400" enable-background="new 0 0 300 400" xml:space="preserve">
<g>
	<path fill-rule="evenodd" clip-rule="evenodd" fill="#BE1E2D" d="M56.599,306.603c-0.266,0.327-0.536,0.65-0.806,0.975
		c-1.284-1.053-1.56-2.104-1.129-3.447c0.143-0.441-0.072-1.004-0.155-1.502c-0.019-0.119-0.242-0.205-0.258-0.319
		c-0.202-1.985-1.954-2.192-3.294-2.85c-0.926-0.453-1.368-0.922-0.545-1.905c0.217-0.259,0.264-0.962,0.068-1.216
		c-0.89-1.146-1.997-2.139-2.807-3.334c-0.322-0.467-0.282-1.408-0.038-1.985c0.499-1.192,0.298-4.014,0.015-5.269
		c-0.394-1.746-1.358-3.375-0.753-5.424c0.373-1.271,0.487-2.787-0.126-4.371c-0.593-1.53-0.078-3.47-0.152-5.223
		c-0.082-1.991-0.255-3.979-0.45-5.964c-0.038-0.376-0.289-0.895-0.593-1.053c-1.426-0.739-1.433-1.868-1.355-3.289
		c0.102-1.939-0.277-3.899-0.246-5.85c0.01-0.573,0.57-1.371,1.102-1.662c2.243-1.23,4.581-2.274,6.852-3.453
		c1.364-0.714,1.34-1.179-0.019-1.966c-0.968-0.563-1.936-1.127-2.928-1.639c-3.803-1.963-6.073-5.244-7.329-9.14
		c-0.637-1.968-1.691-3.515-2.956-4.989c-1.625-1.891-2.984-4.014-5.193-5.401c-1.47-0.923-1.132-2.688-1.061-4.126
		c0.118-2.397,0.422-4.792,0.77-7.174c0.105-0.754,0.542-1.479,0.915-2.171c0.927-1.722,1.895-3.419,2.856-5.121
		c2.611-4.601,6.253-8.196,10.754-10.938c0.951-0.58,1.87-1.231,2.875-1.7c0.861-0.403,1.814-0.625,2.741-0.863
		c1.123-0.283,2.251-0.524,3.387-0.738c1.557-0.294,3.143-0.458,4.666-0.86c0.555-0.146,1.29-0.746,1.396-1.253
		c0.512-2.502,0.943-5.033,1.216-7.574c0.539-5.046,0.967-10.109,1.408-15.167c0.074-0.887-0.233-1.841-0.022-2.676
		c0.826-3.281,1.821-6.517,2.684-9.79c0.267-1.023,0.217-2.133,0.484-3.159c1.843-6.994,4.169-13.798,7.86-20.069
		c1.535-2.607,2.9-5.319,4.529-7.863c0.837-1.311,1.948-2.544,3.195-3.469c1.023-0.762,1.604-1.637,1.951-2.767
		c1.276-4.133,2.367-8.333,3.843-12.392c1.489-4.103,3.294-8.099,5.074-12.092c1.489-3.344,2.959-6.719,4.777-9.887
		c1.625-2.836,3.66-5.447,5.608-8.088c1.538-2.083,3.108-4.166,4.87-6.056c2.221-2.377,4.64-4.57,6.998-6.819
		c2.283-2.182,4.504-4.444,6.919-6.471c3.21-2.694,6.499-5.305,9.904-7.745c3.248-2.327,6.545-4.617,10.292-6.14
		c4.138-1.681,8.25-3.458,12.724-4.027c1.985-0.252,4.014-0.106,6.01-0.273c3.063-0.259,6.037,0.121,8.995,0.83
		c2.209,0.529,4.214-0.419,6.281-0.944c2.61-0.663,5.238-1.357,7.901-1.661c2.953-0.34,5.954-0.263,8.936-0.354
		c2.33-0.073,4.712-0.483,6.964-0.117c5.014,0.812,10.025,1.763,14.901,3.138c4.51,1.27,8.939,2.945,13.214,4.865
		c3.069,1.382,5.921,3.33,8.701,5.267c2.781,1.941,5.394,4.14,8.012,6.304c3.84,3.178,6.209,7.426,8.207,11.869
		c2.14,4.752,3.186,9.732,2.575,14.982c-0.2,1.675,0.328,3.113,1.184,4.615c2.936,5.151,3.563,10.617,1.514,16.261
		c-0.229,0.627-0.719,1.226-1.228,1.668c-1.57,1.358-2.142,3.022-2.163,5.082c-0.033,2.979-0.146,5.992-1.396,8.783
		c-1.664,3.716-3.785,7.18-6.553,10.15c-3.201,3.437-6.602,6.696-9.967,9.974c-0.593,0.576-1.457,0.872-2.199,1.295
		c-0.172-0.094-0.342-0.19-0.511-0.285c0.27-1.318,0.522-2.644,0.821-3.954c1.333-5.868,2.646-11.737,2.6-17.814
		c-0.017-1.815,0.241-3.631,0.244-5.447c0-1.096-0.319-2.189-0.375-3.291c-0.044-0.859,0.073-1.73,0.166-2.587
		c0.039-0.311,0.3-0.597,0.33-0.907c0.095-0.897-2.506-3.588-3.428-3.494c-0.93,0.094-1.405-0.229-1.845-1.077
		c-0.546-1.047-1.391-1.697-2.805-1.675c-1.141,0.02-2.376-0.092-3.384-1.085c-1.083-1.069-2.546-0.571-3.861-0.327
		c-0.491,0.09-0.959,0.302-1.595,0.511c-0.087-1.832-1.464-1.934-2.764-2.439c0.636-0.197,1.259-0.481,1.907-0.572
		c5.013-0.699,8.623-3.784,12.112-7.075c0.295-0.279,0.528-0.667,0.68-1.047c0.31-0.747,0.031-1.172-0.803-1.172
		c-1.338,0-2.671,0.011-4.005,0.001c-0.931-0.005-1.532-0.392-1.515-1.416c0.013-0.701,0.043-1.4,0.082-2.1
		c0.073-1.513-0.453-2.302-1.861-2.709c-0.763-0.221-1.532-0.554-2.295-0.551c-0.395,0.001-0.819,0.599-1.173,0.98
		c-0.298,0.323-0.516,0.719-0.77,1.081c-0.354-0.331-0.789-0.614-1.048-1.01c-0.634-0.962-1.018-2.249-2.63-1.448
		c-0.165,0.08-0.504-0.147-0.739-0.273c-0.286-0.15-0.607-0.549-0.808-0.49c-1.686,0.51-2.289-0.983-3.38-1.633
		c-1.533-0.907-3.312-1.401-5.001-2.028c-0.774-0.292-1.625-0.401-2.382-0.729c-1.421-0.619-2.753-0.985-4.262-0.101
		c-0.466,0.273-1.334,0.04-1.953-0.164c-1.088-0.355-2.032-0.829-3.004,0.373c-0.28,0.345-1.278,0.196-1.93,0.129
		c-1.048-0.107-2.087-0.334-3.132-0.511c-4.098-0.69-7.984-1.849-10.931-5.039c-0.534-0.57-1.05-1.152-1.535-1.693
		c0.53-0.663,0.971-1.216,1.52-1.899c0.927,0.752,1.839,1.609,2.869,2.277c0.503,0.321,1.229,0.287,1.852,0.415
		c-0.009-0.679,0.108-1.392-0.064-2.025c-0.181-0.651-0.645-1.221-0.987-1.83c0.1-0.102,0.192-0.205,0.285-0.308
		c1.073,0.341,2.153,0.651,3.207,1.035c0.672,0.241,1.192,0.409,1.241-0.598c0.024-0.505,0.147-1.004,0.23-1.509
		c0.739,0.225,1.619,0.269,2.188,0.711c1.164,0.909,2.129,2.065,3.242,3.048c0.375,0.328,0.952,0.43,1.439,0.637
		c0.034-0.507,0.207-1.052,0.084-1.518c-0.47-1.747-0.491-1.818,1.246-1.575c1.005,0.137,1.961,0.6,2.953,0.878
		c0.466,0.136,0.959,0.224,1.442,0.253c0.263,0.015,0.592-0.269,0.797-0.185c1.699,0.695,2.126-0.328,2.271-1.851
		c2.065,0.895,3.997,1.768,5.961,2.546c0.361,0.143,0.868-0.086,1.309-0.169c0.063-0.011,0.088-0.166,0.159-0.22
		c0.511-0.398,1.521-1.044,1.474-1.142c-0.459-0.885-1.038-1.733-1.709-2.476c-1.964-2.184-4.003-4.298-5.971-6.475
		c-0.418-0.459-0.659-1.075-0.982-1.618c0.15-0.137,0.299-0.272,0.446-0.408c0.566,0.684,1.118,1.379,1.695,2.053
		c3.033,3.526,6.113,7.016,9.095,10.59c0.88,1.062,1.47,2.37,2.244,3.527c0.193,0.284,0.604,0.42,0.907,0.625
		c0.059-0.369,0.278-0.822,0.14-1.09c-0.509-0.988-1.15-1.905-1.715-2.867c-0.33-0.564-0.596-1.164-0.895-1.747
		c0.148-0.138,0.299-0.276,0.445-0.413c1.397,1.013,2.792,2.027,4.188,3.038c0.15-0.111,0.289-0.226,0.429-0.338
		c-0.392-0.729-0.757-1.47-1.179-2.182c-0.285-0.481-0.725-0.883-0.931-1.388c-0.171-0.414-0.1-0.928-0.137-1.396
		c0.375,0.178,0.746,0.372,1.13,0.529c0.472,0.192,1.159,0.645,1.395,0.476c0.873-0.606,1.421-0.386,2.054,0.305
		c0.199,0.218,0.628,0.226,0.953,0.331c0.021-0.338,0.086-0.679,0.064-1.016c-0.279-4.888-4.057-7.359-7.352-9.91
		c-1.358-1.056-3.728-0.923-5.658-1.107c-2.163-0.21-4.354-0.229-6.534-0.198c-0.627,0.009-1.25,0.476-1.979,0.775
		c-3.205-1.934-6.604-0.882-9.991,0.194c-0.707,0.225-0.745,0.771-0.269,1.322c0.25,0.278,0.529,0.535,0.773,0.814
		c0.209,0.236,0.4,0.488,0.395,0.956c-0.293-0.287-0.602-0.566-0.878-0.867c-1.663-1.796-3.582-2.344-5.91-1.36
		c-1.162,0.495-2.623-0.217-2.884-1.295c-0.899,1.275-1.377,1.336-2.735,0.505c-0.627-0.383-1.354-0.596-2.016-0.924
		c-1.024-0.504-1.985-1.319-3.061-1.477c-0.951-0.143-2.014,0.646-3.026,0.635c-2.233-0.025-4.465-0.378-6.697-0.427
		c-1.423-0.029-2.887,0.509-4.271,0.332c-1.898-0.242-3.93-0.597-5.559-1.519c-1.153-0.656-1.895-1.262-3.18-0.509
		c-1.36,0.802-3.046,1.213-4.146,2.259c-1.685,1.6-3.884,2.251-5.64,3.637c-0.756,0.597-1.482,1.23-2.459,1.646
		c1.058-1.135,1.979-2.46,3.204-3.365c2.206-1.628,4.501-3.191,6.929-4.442c3.223-1.661,6.619-2.975,9.915-4.496
		c0.521-0.241,0.893-0.796,1.335-1.207c-0.567-0.29-1.132-0.812-1.708-0.828c-2.222-0.057-4.448,0.001-6.666,0.109
		c-1.603,0.078-2.796,0.831-3.924,2.083c-2.339,2.589-5.053,4.84-7.382,7.431c-3.201,3.563-6.247,7.27-9.243,11.007
		c-1.123,1.397-1.936,3.044-2.854,4.599c-0.49,0.836-0.974,1.098-1.688,0.247c-0.829-0.983-1.65-0.788-1.991,0.327
		c-0.689,2.247-1.514,4.525-1.697,6.837c-0.326,4.022-0.462,8.074,1.387,11.928c1.569,3.263,3.536,6.001,7.032,7.369
		c1.2,0.468,2.41,0.977,2.863,2.606c-1.098-0.357-2.268-0.569-3.276-1.094c-2.968-1.545-5.142-3.946-6.96-6.723
		c-2.689-4.108-3.397-8.596-2.736-13.38c0.187-1.339,0.322-2.683,0.506-4.021c0.089-0.652-0.01-1.03-0.797-1.146
		c-1.976-0.285-2.438-0.094-3.372,1.618c-0.233,0.437-0.543,0.832-0.804,1.229c-2.003-1.032-2.041-1.009-3.012,0.911
		c-1.045,2.064-2.083,4.131-3.204,6.154c-0.156,0.284-0.8,0.514-1.147,0.44c-1.039-0.229-1.604,0.158-1.93,1.101
		c-0.316,0.925-0.744,1.817-0.964,2.764c-0.27,1.148-0.636,2.097-1.542,3.006c-0.701,0.699-0.793,2.021-1.145,3.071
		c-0.208,0.614-0.431,1.225-0.574,1.854c-0.217,0.97-0.665,2.004-0.503,2.923c0.652,3.696,1.008,7.498,3.183,10.761
		c1.601,2.406,3.785,4.037,6.408,5.176c2.309,0.997,4.638,1.707,7.188,1.234c0.103-0.02,0.233,0.117,0.347,0.179
		c-0.345,0.807-1.448,1.313-2.751,1.137c-6.542-0.878-11.334-4.083-13.518-10.513c-0.654-1.923-1.002-3.956-1.377-5.962
		c-0.195-1.067-0.651-1.462-1.712-1.248c-0.447,0.09-0.956-0.063-1.377,0.073c-0.593,0.188-1.521,0.438-1.632,0.844
		c-0.515,1.895-1.854,3.488-1.662,5.681c0.187,2.206-0.286,4.46-0.236,6.689c0.078,3.384,0.822,6.655,2.363,9.698
		c0.466,0.93,0.984,1.847,2.355,1.089c0.307-0.169,0.958,0.108,1.368,0.33c1.526,0.832,2.072,0.619,3.102-0.725
		c0.502-0.664,1.501-1.441,2.202-1.375c1.536,0.144,2.047-0.171,1.57-1.484c1.703-1.762,3.728-1.237,5.701-1.172
		c1.984,0.064,3.97,0.013,6.482,0.013c-1.054,1.321-1.935,2.314-2.686,3.396c-1.116,1.602-3.602,2.047-3.741,4.491
		c-0.025,0.414-0.496,0.783-0.651,1.213c-0.143,0.396-0.14,0.848-0.205,1.275c0.391,0.044,0.801,0.188,1.163,0.109
		c0.816-0.178,1.598-0.549,2.423-0.684c0.726-0.118,1.486-0.025,2.233-0.025c0.063,0.156,0.122,0.315,0.18,0.471
		c-1.26,0.976-2.441,2.083-3.803,2.884c-1.433,0.842-3.053,1.369-4.566,2.084c-0.297,0.139-0.571,0.469-0.679,0.776
		c-0.043,0.12,0.419,0.396,0.617,0.628c0.298,0.344,0.856,0.806,0.782,1.055c-0.189,0.604-0.652,1.565-1.055,1.588
		c-2.115,0.125-2.419,1.555-2.624,3.164c-0.025,0.207-0.174,0.402-0.36,0.798c-1.306-0.793-2.531-1.561-3.778-2.283
		c-0.427-0.25-0.974-0.626-1.384-0.541c-2.834,0.604-5.118-0.628-7.251-2.167c-2.643-1.909-3.542-1.75-4.293,1.443
		c-0.688,2.937-1.309,5.952-1.38,8.947c-0.04,1.565,1.138,3.171,1.809,4.74c0.236,0.549,0.688,1.012,0.881,1.572
		c0.102,0.309-0.13,0.731-0.212,1.102c-0.329-0.099-0.75-0.099-0.964-0.311c-1.752-1.733-2.584-3.953-3.105-6.288
		c-0.838-3.729,0.881-7.024,1.923-10.421c0.174-0.557,0.54-1.147,0.993-1.496c0.614-0.47,1.027-0.983,0.549-1.614
		c-0.63-0.829-1.43-1.534-2.228-2.213c-0.065-0.053-0.835,0.445-0.971,0.804c-0.763,2.034-1.526,4.081-2.122,6.169
		c-1.207,4.208-0.896,8.493-0.41,12.765c0.391,3.395,2.687,5.74,4.616,8.293c1.51,2,3.012,4.015,4.38,6.111
		c1.409,2.161,3.512,3.294,5.794,4.087c1.216,0.422,2.475-0.702,2.975-2.377c0.251-0.84,0.301-1.737,0.48-2.603
		c0.155-0.751,0.36-1.489,0.546-2.232c0.183-0.023,0.366-0.048,0.552-0.074c0.149,0.428,0.509,0.907,0.416,1.271
		c-0.519,2.066-1.138,4.105-1.737,6.149c-0.338,1.149-0.748,2.278-1.039,3.438c-0.587,2.347-1.113,4.707-1.669,7.06
		c-0.729,3.082-1.405,6.176-2.212,9.237c-0.477,1.8-1.339,3.505-1.724,5.318c-0.45,2.124-0.509,4.327-0.85,6.479
		c-0.583,3.723-1.067,7.479-1.945,11.136c-0.887,3.681-2.603,6.999-4.935,10.087c-2.165,2.876-5.167,4.637-7.77,6.922
		c-1.121,0.985-2.308,1.907-3.298,3.007c-0.478,0.534-0.738,1.399-0.806,2.143c-0.298,3.231-1.744,5.812-4.02,8.072
		c-2.292,2.27-4.932,3.937-7.807,5.342c-2.09,1.023-2.432,2.098-1.876,4.365c1.234,5.02,2.311,10.079,3.676,15.061
		c1.293,4.712,2.844,9.354,4.327,14.015c0.775,2.44,1.656,4.851,2.481,7.277c0.46,1.359,1.328,1.823,2.792,1.65
		c3.515-0.42,7.044-0.704,10.572-1.015c1.994-0.179,3.995-0.358,5.998-0.421c0.515-0.019,1.231,0.274,1.508,0.671
		c0.186,0.263-0.1,1.107-0.428,1.434c-1.612,1.605-3.201,3.278-5.007,4.641c-2.636,1.981-5.453,3.718-8.188,5.56
		c-0.273,0.183-0.54,0.377-0.789,0.584c-2.289,1.9-2.184,2.97,0.106,4.823c3.874,3.137,8.322,5.281,12.667,7.609
		c4.802,2.576,9.616,5.126,14.442,7.652c0.862,0.448,1.865,0.632,2.705,1.105c0.534,0.305,1.359,1.104,1.253,1.356
		c-0.397,0.986-1.247,0.441-1.904,0.174c-1.253-0.513-2.463-1.118-3.713-1.634c-1.033-0.425-2.137-0.411-2.82,0.516
		c-0.937,1.275-2.003,1.143-3.213,0.681c-1.142-0.443-1.967-0.392-2.28,1.071c-0.181,0.826-2.308,0.751-2.938-0.239
		c-0.719-1.129-1.482-1.886-2.897-1.727c-0.118,0.014-0.348-0.082-0.366-0.159c-0.477-2.524-3.039-0.875-4.162-2.087
		c-1.781,0.882-3.492,0.802-5.205-0.232c-0.23-0.141-0.719,0.104-1.074,0.218c-0.825,0.265-1.336,0.166-1.771-0.761
		c-0.233-0.492-1.077-0.814-1.707-0.966c-0.555-0.134-1.193,0.142-1.795,0.112c-1.064-0.046-1.781-0.466-1.613-1.738
		c0.155-1.176-0.434-1.479-1.52-1.226c-2.376,0.554-2.41,0.441-3.691-1.664c-0.317-0.521-1.26-0.85-1.948-0.908
		c-1.086-0.092-2.252,0.36-2.895-1.032c-0.108-0.227-0.663-0.388-0.993-0.35c-2.304,0.248-4.605,0.529-6.902,0.852
		c-1.584,0.223-4.426-1.468-4.692-2.932c-0.09-0.5,0.108-1.056,0.173-1.586C56.83,306.667,56.717,306.633,56.599,306.603z
		 M87.742,186.327c-0.272-0.894-0.514-1.861-0.868-2.785c-0.559-1.467-1.418-2.844-0.776-4.536c0.273-0.723,0.322-1.528,0.533-2.278
		c0.578-2.092,0.693-4.09-0.564-6.045c-1.96-3.046-4.548-5.417-7.599-7.287c-0.496-0.303-1.47-0.484-1.812-0.211
		c-0.416,0.331-0.489,1.2-0.54,1.85c-0.093,1.292,0.335,2.784-0.18,3.845c-0.753,1.562-0.229,2.318,0.891,3.136
		c0.164,0.12,0.25,0.352,0.381,0.543c-1.668,0.793-2.053,1.437-1.644,2.758c0.329,1.063,0.72,2.11,1.126,3.293
		c0.164-0.106,0.053-0.021-0.065,0.043c-1.768,0.925-1.762,1.063-0.651,2.643c0.366,0.522,0.584,1.289,0.559,1.929
		c-0.087,2.259,1.288,3.999,3.53,4.365c0.371,0.06,0.843,0.291,1.023,0.592c1.073,1.784,2.06,3.615,3.096,5.419
		c0.217,0.378,0.537,0.698,0.806,1.043c0.286-0.386,0.825-0.789,0.797-1.153c-0.103-1.514-0.409-3.012-0.58-4.524
		c-0.099-0.873-0.087-1.757-0.124-2.638C85.847,186.327,86.609,186.327,87.742,186.327z M229.817,63.016
		c0.155-0.612,0.264-0.797,0.235-0.957c-0.229-1.241,0.27-1.571,1.464-1.376c1.267,0.203,2.559,0.226,4.095,0.35
		c-0.216-0.692-0.321-1.172-0.515-1.613c-1.69-3.843-4.447-6.846-7.556-9.575c-0.918-0.81-1.811-1.253-3.021-0.551
		c-0.354,0.206-0.908,0.172-1.354,0.104c-1.755-0.268-1.419,1.438-2.028,2.213c-0.198,0.254,0.058,1.191,0.394,1.483
		c2.817,2.438,5.055,5.347,7.058,8.455C228.869,61.982,229.253,62.352,229.817,63.016z M77.034,220.648
		c-0.471-1.232-0.821-2.586-1.477-3.775c-1.551-2.822-4.057-4.687-6.764-6.312c-1.021-0.612-1.641-0.272-1.855,0.765
		c-0.344,1.637-0.651,3.292-0.81,4.954c-0.099,1.063,0.239,2.08,1.495,2.377c3.126,0.739,5.459,2.459,6.88,5.391
		c0.425,0.88,1.061,0.772,1.411-0.03C76.352,223.014,76.619,221.934,77.034,220.648z M245.978,98.098
		c-0.8,1.419-1.582,2.766-2.324,4.132c-0.226,0.418-0.343,0.891-0.511,1.339c0.511-0.069,1.037-0.075,1.521-0.225
		c0.707-0.223,1.377-0.556,2.066-0.829c2.387-0.943,4.212-2.577,5.495-4.748c0.366-0.614,0.517-1.544,0.366-2.245
		c-0.311-1.439-0.893-2.817-1.346-4.228c-0.407-1.258-0.8-1.374-1.873-0.51c-1.659,1.339-3.311,2.7-4.987,4.022
		c-0.936,0.739-1.117,1.979-0.218,2.735C244.563,97.879,245.236,97.886,245.978,98.098z M62.98,211.699
		c-0.251-0.379-0.537-0.951-0.952-1.409c-0.435-0.477-1.04-0.796-1.483-1.266c-0.775-0.817-1.514-1.639-2.718-0.753
		c-0.855,0.628-1.684,1.298-2.5,1.978c-0.087,0.072-0.078,0.4,0.013,0.519c1.141,1.477,0.278,2.335-0.891,3.188
		c-0.372,0.27-0.561,0.793-0.834,1.2c0.4,0.153,0.794,0.328,1.2,0.462c1.238,0.405,1.989,1.834,1.527,2.759
		c-0.294,0.6-0.4,1.294-0.593,1.948c0.707-0.054,1.434-0.02,2.109-0.185c0.763-0.182,1.508-0.496,2.211-0.85
		c0.391-0.194,0.878-0.524,0.993-0.898C61.73,216.267,62.3,214.109,62.98,211.699z M88.54,165.789
		c0.096-0.071,0.188-0.139,0.285-0.207c-1.008-2.226-1.69-4.693-3.099-6.627c-2.459-3.36-5.347-6.412-8.12-9.535
		c-0.313-0.359-1.045-0.348-1.582-0.507c0.102,0.575,0.062,1.235,0.341,1.707c0.496,0.827,1.464,1.451,1.731,2.314
		c0.567,1.856,0.756,3.824,1.229,5.717c0.154,0.638,0.57,1.33,1.073,1.74c1.252,1.022,2.689,1.822,3.936,2.852
		c1.064,0.882,1.948,1.979,2.95,2.941c0.198,0.188,0.589,0.284,0.856,0.237C88.307,166.395,88.409,166.012,88.54,165.789z
		 M46.358,211.624c-0.199-0.087-0.4-0.175-0.602-0.261c-1.068,1.259-1.846,2.692-2.147,4.364c-0.304,1.687-0.512,3.393-0.794,5.085
		c-0.187,1.123-0.77,1.737-2.032,1.535c-1.014-0.159-1.427,0.396-1.126,1.334c0.614,1.938,1.225,3.891,2.016,5.758
		c0.189,0.45,1.222,0.982,1.607,0.829c1.452-0.588,2.562-0.179,3.755,0.621c0.835,0.557,1.536,0.064,1.325-0.927
		c-0.18-0.832-0.478-1.768-1.042-2.373c-2.4-2.61-2.488-5.849-2.525-9.053c-0.015-1.283,0.562-2.576,0.862-3.863
		C45.899,213.656,46.127,212.639,46.358,211.624z M247.902,122.159c0.153,0.116,0.304,0.231,0.455,0.348
		c0.319-0.291,0.666-0.554,0.959-0.87c2.449-2.705,3.875-6.001,5.298-9.292c0.173-0.396,0.205-0.915,0.13-1.346
		c-0.192-1.142-0.41-2.289-0.764-3.387c-0.161-0.508-0.577-1.127-1.025-1.302c-0.798-0.305-3.518,1.288-3.801,2.156
		c-0.161,0.488-0.229,1.127-0.052,1.58c0.406,1.026,0.927,2.025,1.528,2.95c0.479,0.731,0.341,1.257-0.123,1.886
		c-0.87,1.161-1.707,2.323-1.034,3.947c0.14,0.345-0.211,0.94-0.429,1.373C248.708,120.875,248.292,121.509,247.902,122.159z
		 M81.774,198.545c-0.397-1.745-0.649-3.122-1.036-4.458c-0.229-0.786-0.738-1.008-1.464-0.348c-0.93,0.843-1.874,1.701-2.922,2.377
		c-0.611,0.394-1.437,0.465-2.177,0.642c-0.415,0.101-1.164,0.025-1.216,0.194c-0.13,0.425-0.105,1.058,0.139,1.405
		c0.81,1.138,1.66,2.268,2.646,3.248c1.287,1.275,3.126,1.273,4.318-0.086C80.843,200.625,81.278,199.432,81.774,198.545z
		 M57.356,233.951c0.71-0.141,1.085-0.177,1.439-0.289c1.545-0.502,3.602-3.404,3.54-5.01c-0.035-0.994-0.797-1.173-1.486-0.959
		c-1.873,0.582-3.694,1.379-4.817,3.091c-0.347,0.526-0.523,1.494-0.266,1.998C56.066,233.368,56.929,233.662,57.356,233.951z
		 M79.957,161.361c-0.165,0.511-0.484,1-0.354,1.192c0.372,0.563,0.913,1.017,1.402,1.496c1.632,1.579,3.307,3.111,4.876,4.748
		c0.462,0.479,0.629,1.492,1.494,1.041c0.971-0.511,0.227-1.292-0.034-1.941c-0.084-0.21-0.214-0.425-0.375-0.585
		c-1.38-1.381-2.73-2.802-4.182-4.102C82.032,162.536,81.083,162.083,79.957,161.361z M84.014,195.301
		c-0.905-1.995-1.762-3.987-2.73-5.927c-0.192-0.383-0.803-0.557-1.221-0.826c-0.044,0.511-0.162,1.03-0.105,1.533
		c0.03,0.286,0.387,0.521,0.511,0.817c0.642,1.523,1.244,3.065,1.883,4.589c0.192,0.462,0.453,0.896,0.682,1.345
		C83.3,196.412,83.567,195.994,84.014,195.301z M81.743,144.125c0.729-0.063,1.153-0.054,1.551-0.149
		c0.354-0.084,0.682-0.279,1.023-0.427c-0.207-0.383-0.322-0.966-0.638-1.115c-1.31-0.617-2.655-1.17-4.039-1.581
		c-0.329-0.096-0.853,0.458-1.285,0.713c0.246,0.312,0.447,0.682,0.751,0.926c0.496,0.399,1.048,0.731,1.594,1.064
		C81.119,143.813,81.563,144.027,81.743,144.125z M87.63,210.082c-0.577-0.9-1.079-1.775-1.693-2.566
		c-0.152-0.196-0.738-0.244-0.983-0.106c-0.18,0.1-0.273,0.687-0.153,0.934c0.391,0.787,0.873,1.535,1.377,2.259
		c0.156,0.223,0.602,0.509,0.732,0.434C87.184,210.889,87.327,210.518,87.63,210.082z M48.56,209.151
		c0.167,0.037,0.335,0.073,0.496,0.109c0.578-0.832,1.145-1.668,1.719-2.5c-0.28-0.153-0.726-0.493-0.8-0.425
		c-0.645,0.582-1.259,1.207-1.786,1.896C48.088,208.367,48.426,208.837,48.56,209.151z M51.146,213.997
		c-0.623,0.891-1.136,1.605-1.597,2.352c-0.028,0.045,0.375,0.352,0.581,0.534c0.545-0.696,1.104-1.382,1.612-2.102
		C51.779,214.724,51.479,214.428,51.146,213.997z M86.896,315.272c-0.103,0.181-0.208,0.361-0.307,0.543
		c0.669,0.392,1.327,0.811,2.028,1.134c0.063,0.028,0.661-0.684,0.58-0.86C88.728,315.05,87.811,315.106,86.896,315.272z
		 M233.318,52.404c0.588,0.499,1.177,0.994,1.953,1.653C235.325,52.451,234.786,51.965,233.318,52.404z"/>
	<path fill-rule="evenodd" clip-rule="evenodd" fill="#BE1E2D" d="M269.042,256.122c0.354,1.253-0.24,2.242-1.046,3.175
		c-4.815,5.596-11.034,8.166-18.283,8.788c-2.045,0.175-4.057,0.999-6.029,1.692c-4.873,1.703-9.723,3.475-14.554,5.283
		c-1.832,0.684-3.625,1.483-5.374,2.354c-0.595,0.297-0.998,0.978-1.495,1.48c0.484,0.438,0.905,0.991,1.465,1.293
		c4.139,2.242,8.375,4.319,11.948,7.47c2.389,2.104,3.598,7.619,1.313,10.84c-0.568,0.8-1.047,1.688-1.732,2.369
		c-1.082,1.075-1.125,2.245-0.764,3.599c0.261,0.985,0.403,2.003,0.542,3.016c0.343,2.529-1.156,4.34-2.535,6.148
		c-0.69,0.905-0.814,1.679-0.532,2.816c1.086,4.387,0.693,8.381-3.226,11.472c-2.038,1.604-3.809,3.549-5.696,5.344
		c-1.553,1.477-3.337,1.805-5.432,1.419c-2.975-0.548-5.982-0.895-8.974-1.311c-1.055-0.146-2.121-0.214-3.164-0.396
		c-0.309-0.053-0.572-0.373-0.852-0.569c0.207-0.282,0.375-0.753,0.636-0.809c0.67-0.143,1.39-0.205,2.066-0.114
		c3.551,0.483,7.097,1.005,10.64,1.554c2.085,0.324,3.715-0.345,5.099-1.934c1.705-1.965,3.485-3.873,5.303-5.737
		c3.811-3.901,2.808-9.605-2.019-12.153c-4.819-2.539-9.555-5.248-14.277-7.967c-1.087-0.625-2.158-1.446-2.526-3.127
		c0.579,0.163,0.982,0.198,1.304,0.381c4.964,2.789,9.92,5.583,14.848,8.42c1.043,0.602,2.005,1.355,2.97,2.087
		c0.962,0.734,1.884,0.967,2.583-0.237c0.892-1.52,1.86-3.035,2.448-4.678c0.691-1.939-1.763-6.435-3.567-7.438
		c-2.395-1.333-4.665-2.893-7.015-4.305c-3.757-2.255-7.632-4.32-11.267-6.749c-2.618-1.744-4.938-3.938-7.353-5.973
		c-0.224-0.19-0.198-0.677-0.291-1.028c0.105-0.071,0.21-0.143,0.315-0.216c0.509,0.354,1.111,0.627,1.521,1.075
		c1.91,2.104,4.28,3.533,6.712,4.951c5.919,3.449,11.761,7.023,17.606,10.602c0.825,0.5,1.46,1.297,2.186,1.95
		c0.934,0.839,1.341,0.71,1.809-0.424c0.423-1.022,0.93-2.014,1.448-2.999c0.748-1.431,1.249-2.826,0.729-4.53
		c-0.851-2.777-2.161-4.984-4.841-6.506c-5.326-3.022-10.943-5.342-16.574-7.687c-4.2-1.744-8.492-3.38-11.648-6.958
		c-0.707-0.804-1.838-1.257-2.811-1.8c-2.259-1.257-4.324-0.211-6.676,2.02c-3.548,3.362-6.917,6.911-10.463,10.271
		c-2.968,2.814-6.094,5.466-9.135,8.204c-5.048,4.548-10.232,8.951-15.067,13.711c-3.414,3.355-7.092,6.281-10.979,9.014
		c-3.691,2.592-7.292,5.306-10.94,7.959c-2.574,1.873-3.753,4.375-4.122,7.567c-0.847,7.236,2.184,13.427,5.041,19.626
		c1.185,2.581,3.195,4.788,4.873,7.142c0.605,0.847,1.386,0.968,2.101,0.118c2.534-3.032,5.849-5.028,9.22-6.938
		c1.105-0.626,1.387-1.403,0.979-2.524c2.988-0.634,5.887-1.257,8.788-1.852c0.25-0.05,0.641-0.018,0.789,0.144
		c1.604,1.735,3.667,1.08,5.54,0.981c5.738-0.304,10.732-2.666,15.25-6.046c3.8-2.85,7.449-5.898,11.191-8.83
		c1.321-1.03,2.723-1.957,4.05-2.982c0.399-0.307,0.671-0.785,0.999-1.186c-0.528-0.196-1.033-0.457-1.576-0.567
		c-0.472-0.095-0.985-0.019-1.544-0.345c0.335-0.08,0.669-0.205,1.01-0.23c2.234-0.15,4.475-0.25,6.707-0.436
		c0.468-0.039,0.917-0.352,1.374-0.537c-0.246-0.398-0.462-0.821-0.74-1.191c-0.748-0.98-1.523-1.936-2.284-2.899
		c0.08-0.112,0.161-0.224,0.243-0.332c0.403,0.184,0.867,0.296,1.203,0.564c1.377,1.1,2.692,2.285,4.089,3.356
		c0.464,0.354,1.118,0.457,1.686,0.677c0.214-0.571,0.597-1.138,0.608-1.711c0.013-1.158-0.192-2.319-0.272-3.481
		c-0.043-0.514-0.013-1.034-0.013-1.651c0.285,0.123,0.358,0.143,0.366,0.164c0.282,3.209,3.244,4.149,5.096,6.035
		c0.723,0.739,1.51,0.893,2.528,0.647c1.464-0.354,2.965-0.537,4.454-0.79c0.038,0.162,0.073,0.321,0.109,0.483
		c-1.675,0.425-3.328,0.968-5.028,1.233c-1.378,0.218-2.339,0.607-2.259,2.45c-0.272-0.334-0.408-0.475-0.516-0.636
		c-1.332-2.024-1.589-2.128-4.007-1.675c-1.053,0.196-2.115,0.364-3.176,0.525c-1.855,0.28-3.534,0.867-4.688,2.485
		c-0.147,0.21-0.438,0.321-0.766,0.557c-0.67-1.235-1.489-0.993-2.377-0.295c-2.046,1.612-4.187,3.114-6.159,4.813
		c-5.354,4.601-10.846,9.017-17.153,12.244c-3.766,1.925-7.654,3.722-11.948,4.143c-1.554,0.15-3.18-0.036-4.727-0.321
		c-3.214-0.593-5.775,0.636-8.043,2.682c-2.032,1.832-3.98,3.757-5.909,5.695c-0.404,0.4-0.633,1.011-0.825,1.564
		c-0.391,1.118-1.222,1.494-2.128,0.682c-1.03-0.923-1.985-1.986-2.754-3.135c-2.177-3.25-4.38-6.492-6.319-9.887
		c-3.514-6.163-5.419-12.742-4.327-19.931c0.485-3.168,1.809-5.662,4.722-7.476c3.27-2.036,6.21-4.605,9.292-6.944
		c0.221-0.169,0.41-0.378,0.633-0.553c2.404-1.914,2.329-1.851,0.267-4.218c-3.766-4.322-7.469-8.7-11.136-13.112
		c-5.118-6.171-10.208-12.366-15.248-18.602c-3.456-4.274-6.843-8.609-10.212-12.955c-5.676-7.326-11.365-14.646-16.936-22.055
		c-1.644-2.185-3.176-4.542-4.253-7.04c-0.778-1.798-1.292-3.921-0.778-5.982c0.134-0.047,0.27-0.09,0.403-0.134
		c0.181,0.27,0.468,0.52,0.515,0.812c0.819,5.089,4.166,8.863,6.802,12.989c1.927,3.013,3.996,5.934,6.086,8.837
		c0.978,1.354,2.187,2.531,3.227,3.841c1.299,1.637,2.497,3.354,3.806,4.982c1.632,2.034,3.362,3.994,5.003,6.022
		c1.678,2.073,3.264,4.22,4.96,6.278c1.353,1.643,2.838,3.18,4.228,4.798c3.26,3.801,6.473,7.642,9.761,11.416
		c0.98,1.127,1.811,2.242,2.376,3.686c0.377,0.985,1.646,1.613,2.475,2.44c0.524,0.521,1.125,1.044,1.421,1.69
		c0.979,2.134,2.906,3.399,4.389,5.067c1.969,2.225,3.93,4.464,5.822,6.753c0.828,1.003,1.519,1.175,2.538,0.268
		c2.891-2.574,5.833-5.09,8.743-7.646c3.748-3.29,7.447-6.639,11.237-9.888c2.86-2.461,5.839-4.789,8.745-7.199
		c1.689-1.399,1.664-1.453,0.902-3.442c-0.099-0.266,0.162-0.653,0.168-0.985c0.012-0.556-0.041-1.109-0.07-1.664
		c-0.378,0.285-0.755,0.571-1.239,0.938c-0.46-1.175-1.055-2.432-1.428-3.748c-0.354-1.244-1.097-1.821-2.3-1.825
		c-1.771-0.003-3.542,0.066-5.313,0.104c-2.877,0.063-5.184-0.863-6.66-3.528c-0.278-0.506-1.378-1.097-1.686-0.922
		c-0.543,0.308-1.128,1.209-1.074,1.804c0.261,2.735,0.729,5.453,1.128,8.176c0.694,4.746,1.407,9.493,2.078,14.242
		c0.043,0.308-0.189,0.65-0.293,0.979c-0.303-0.169-0.792-0.272-0.876-0.518c-0.409-1.179-0.854-2.375-1.023-3.603
		c-0.421-3.048-0.698-6.114-1.039-9.174c-0.235-2.097-0.77-2.373-2.565-1.357c-1.977,1.114-3.927,2.274-5.946,3.296
		c-0.571,0.291-1.358,0.277-2.035,0.229c-2.146-0.151-3.207,0.463-4.045,2.393c-1.126,2.605-2.351,5.171-2.239,8.128
		c0.013,0.335-0.334,0.688-0.521,1.031c-0.305-0.298-0.837-0.574-0.865-0.896c-0.109-1.28-0.326-2.643-0.016-3.848
		c1.068-4.139,2.128-8.303,3.602-12.306c1.554-4.227,3.633-8.26,5.391-12.415c1.815-4.281,3.533-8.605,5.271-12.918
		c0.483-1.208,0.96-2.432,1.291-3.687c0.117-0.438-0.056-1.164-0.373-1.464c-4.554-4.274-9.067-8.596-13.759-12.713
		c-5.944-5.214-11.313-10.974-16.186-17.147c-3.394-4.3-6.241-9.038-9.234-13.648c-1.746-2.692-3.347-5.483-4.891-8.294
		c-0.528-0.943-0.688-2.081-1.021-3.132c0.195-0.1,0.384-0.197,0.573-0.295c0.382,0.409,0.887,0.756,1.123,1.236
		c2.208,4.447,5.583,8.017,8.847,11.643c2.962,3.287,6.131,6.385,9.206,9.57c3.325,3.449,6.488,7.081,10.025,10.304
		c3.542,3.227,7.432,6.074,11.213,9.036c4.712,3.694,10.261,5.353,16.018,6.557c3.098,0.646,6.117,0.375,9.122-0.311
		c0.932-0.213,1.86-0.683,2.649-1.234c4.643-3.231,8.896-6.939,12.727-11.091c2.61-2.834,5.35-5.637,7.453-8.835
		c2.796-4.255,5.969-8.314,7.749-13.223c0.61-1.681,2.158-3.006,3.182-4.555c3.281-4.978,6.65-9.909,9.722-15.012
		c1.582-2.627,2.487-5.606,2.773-8.742c0.205-2.271,0.686-4.516,0.949-6.781c0.131-1.105,0.05-2.234,0.061-3.351
		c0.008-0.467-0.128-0.999,0.051-1.386c0.285-0.61,0.789-1.122,1.194-1.675c0.201,0.516,0.571,1.029,0.58,1.549
		c0.084,5.013-0.37,9.98-1.477,14.872c-0.427,1.906-0.855,3.84-1.582,5.642c-0.782,1.927-1.773,3.801-2.919,5.539
		c-2.151,3.261-4.532,6.374-6.721,9.609c-1.564,2.307-3.016,4.694-4.442,7.085c-0.689,1.155-0.311,1.669,1.007,2.057
		c1.854,0.547,3.367,1.648,4.037,3.524c0.496,1.393,1.436,2.066,2.705,2.742c2.171,1.159,4.071,2.704,4.708,5.355
		c0.974,4.072,1.173,8.114,0.405,12.266c-0.418,2.263-0.896,4.457-1.914,6.512c-0.296,0.6-0.75,1.173-1.253,1.614
		c-1.179,1.037-2.3,2.343-3.696,2.871c-1.507,0.567-3.298,0.403-4.969,0.496c-1.105,0.058-2.216-0.028-3.323,0.011
		c-0.753,0.025-1.007,0.431-0.617,1.121c0.186,0.321,0.348,0.706,0.63,0.916c1.345,1.015,0.927,2.198,0.548,3.514
		c-1.3,4.575-4.67,7.494-8.12,10.34c-1.46,1.204-1.516,1.568,0.168,2.362c1.813,0.854,3.686,1.582,5.485,2.457
		c1.19,0.578,2.324,0.528,3.521,0.112c3.918-1.371,7.848-2.705,11.756-4.096c2.229-0.793,4.367-1.985,6.66-2.446
		c5.563-1.116,11.171-2.074,16.805-2.776c4.949-0.616,9.92-0.968,14.74-2.451c1.895-0.582,3.929-0.718,5.905-1.004
		c0.315-0.046,0.841,0.093,0.962,0.313c0.123,0.239,0.011,0.798-0.2,0.998c-0.867,0.818-1.71,1.766-2.753,2.268
		c-1.759,0.843-3.653,1.403-5.506,2.043c-1.547,0.533-2.875,0.063-4.209-0.828c-0.751-0.502-1.8-0.89-2.667-0.814
		c-4.132,0.356-8.251,0.864-12.372,1.382c-0.864,0.107-1.684,0.548-2.55,0.711c-2.928,0.557-5.863,1.028-8.789,1.6
		c-0.905,0.177-1.92,0.366-2.631,0.893c-2.971,2.207-6.554,2.903-9.92,4.083c-3.996,1.398-8.099,2.466-12.141,3.721
		c-0.486,0.152-0.894,0.568-1.336,0.861c0.375,0.427,0.668,1.037,1.132,1.244c2.689,1.175,5.415,2.257,8.139,3.365
		c1.16,0.474,2.401,0.804,3.481,1.42c1.47,0.836,2.835,0.63,4.292,0.075c3.487-1.328,6.913-2.927,10.513-3.854
		c8.08-2.078,15.854-5.172,24.066-6.874c4.819-1,9.287-3.417,12.426-7.574c0.28-0.363,0.421-0.83,0.651-1.231
		c0.214-0.375,0.466-0.729,0.698-1.091C268.746,255.989,268.895,256.054,269.042,256.122z M191.113,239.633
		c0.336,0.3,0.683,0.629,1.048,0.938c0.286,0.239,0.581,0.468,0.895,0.673c0.57,0.383,1.129,0.945,1.754,1.039
		c0.41,0.063,1.018-0.494,1.362-0.912c0.341-0.412,0.48-1,0.68-1.52c0.691-1.841,0.881-3.785,2.184-5.501
		c2.054-2.703,4.255-5.003,7.562-6.022c1.104-0.341,1.245-1.03,0.779-1.936c-0.506-0.996-1.032-1.979-1.622-2.926
		c-1.253-2.011-2.406-2.054-3.902-0.204c-3.257,4.026-6.771,7.805-10.863,11.006c-0.699,0.547-0.951,1.235-0.358,1.929
		C191.464,237.167,191.906,238.144,191.113,239.633z M212.696,231.241c1.725,0.284,3.169-0.338,4.024-1.721
		c1.08-1.756,1.98-3.659,2.692-5.591c0.311-0.839,0.373-2.205-1.376-1.949c-0.187,0.024-0.427-0.157-0.592-0.299
		c-0.996-0.855-1.274-0.216-1.651,0.659c-0.477,1.119-1.119,2.175-1.721,3.238c-0.913,1.597-2.681,2.018-4.069,2.97
		c-0.429,0.287-0.942,0.94-0.875,1.33c0.075,0.427,0.732,0.903,1.229,1.063C211.095,231.179,211.914,231.153,212.696,231.241z
		 M206.963,240.174c-0.585,0.168-1.03,0.207-1.376,0.416c-0.571,0.341-1.409,0.72-1.515,1.209c-0.1,0.5,0.496,1.2,0.903,1.721
		c0.362,0.465,0.933,0.767,1.33,1.211c0.502,0.559,0.905,1.291,1.818,0.759c1.014-0.591,1.477-1.966,0.973-2.854
		c-0.321-0.566-0.639-1.15-1.054-1.645C207.741,240.631,207.279,240.404,206.963,240.174z M214.123,236.61
		c-0.218,0.446-0.541,0.793-0.5,1.091c0.052,0.354,0.556,0.975,0.618,0.944c0.819-0.373,1.699-0.732,2.356-1.317
		c0.645-0.573,0.205-1.132-0.396-1.599c-0.181-0.137-0.05-0.623-0.184-0.891c-0.218-0.438-0.586-1.203-0.797-1.171
		c-1.067,0.157-2.467-0.871-3.128,0.619c-0.17,0.384,0.311,1.166,0.664,1.632C213.013,236.244,213.557,236.339,214.123,236.61z
		 M194.724,249.346c-0.018,1.405,0.143,2.349,1.432,2.327c0.987-0.019,2.054-0.407,1.905-1.558c-0.16-1.261-0.662-2.516-1.227-3.673
		c-0.393-0.805-1.21-0.634-1.496,0.28C195.038,247.7,194.866,248.716,194.724,249.346z M183.372,252.749
		c0.203-0.091,0.414-0.184,0.619-0.276c-0.164-0.732-0.205-1.525-0.518-2.186c-0.64-1.357-1.38-2.675-2.177-3.942
		c-0.271-0.425-0.848-0.657-1.282-0.979c-0.046,0.537-0.298,1.162-0.105,1.596c0.64,1.479,1.402,2.911,2.202,4.321
		C182.422,251.833,182.943,252.264,183.372,252.749z M127.495,208.91c-0.317-1.596-3.502-5.104-4.848-5.339
		C122.811,204.965,126.078,208.561,127.495,208.91z M219.296,239.1c-0.532-0.301-0.855-0.611-1.011-0.543
		c-0.379,0.166-0.675,0.507-1.011,0.778c0.229,0.173,0.489,0.524,0.669,0.485C218.335,239.734,218.676,239.449,219.296,239.1z"/>
	<path fill-rule="evenodd" clip-rule="evenodd" fill="#BE1E2D" d="M129.898,365.2c-0.785,0.14-1.252,0.3-1.715,0.293
		c-4.408-0.068-4.436-0.054-7.6-4.186c-0.645-0.845-1.603-1.259-2.232-1.907c-1.508-1.563-3.387-2.508-5.025-3.813
		c-0.856-0.686-1.246-1.658-2.568-0.886c-0.173,0.103-1.08-0.544-1.222-0.981c-0.415-1.275-0.698-2.61-0.89-3.942
		c-0.183-1.261-0.586-2.046-2.056-1.75c-0.993,0.202-1.402-0.432-1.405-1.282c-0.004-1.533-0.891-2.301-2.12-3.003
		c-0.719-0.414-1.575-1.114-1.759-1.841c-0.48-1.895-0.853-3.88-0.827-5.822c0.019-1.776,1.724-2.382,3.126-3.044
		c3.108-1.476,6.204-2.98,9.33-4.405c1.607-0.73,3.257-1.364,4.929-1.938c0.587-0.204,1.353-0.299,1.914-0.097
		c1.502,0.543,2.711-0.018,3.982-0.661c2.448-1.246,4.914-2.453,7.386-3.651c0.385-0.188,0.835-0.239,1.256-0.352
		c0.075,0.136,0.146,0.269,0.22,0.403c-0.791,0.558-1.572,1.133-2.379,1.664c-2.131,1.411-4.268,2.809-6.408,4.201
		c-1.055,0.685-2.215,1.234-3.146,2.056c-0.682,0.6-1.398,1.489-1.52,2.335c-0.694,4.774-0.096,9.43,1.212,14.092
		c1.455,5.188,4.074,9.786,6.635,14.428C127.769,362.472,128.81,363.674,129.898,365.2z"/>
	<path fill-rule="evenodd" clip-rule="evenodd" fill="#BE1E2D" d="M161.848,190.24c4.725,0.448,9.488,0.666,14.161,1.426
		c2.846,0.463,5.699,1.483,8.293,2.772c2.412,1.201,4.897,1.37,7.423,1.641c2.527,0.27,4.81,1.167,6.76,2.747
		c0.539,0.438,0.885,1.462,0.824,2.178c-0.037,0.508-0.912,0.95-1.408,1.423c-0.795,0.749-1.78,1.375-2.334,2.273
		c-1.52,2.464-3.169,4.769-5.11,6.956c-1.453,1.632-2.928,3.177-4.808,4.082c-1.284,0.617-2.979,0.653-4.462,0.546
		c-3.293-0.237-6.271-1.477-9.185-3.072c-3.471-1.9-5.846-4.78-8.197-7.815c-2.348-3.03-4.623-6.093-6.067-9.667
		c-0.466-1.137-0.651-2.4-0.854-3.625c-0.176-1.052,0.488-1.586,1.449-1.648c1.164-0.073,2.334-0.018,3.5-0.018
		C161.839,190.374,161.844,190.308,161.848,190.24z M161.125,192.04c-0.019,0.092-0.04,0.183-0.06,0.273
		c-0.375-0.023-0.783-0.16-1.106-0.046c-0.441,0.15-1.056,0.428-1.145,0.771c-0.093,0.351,0.253,0.942,0.573,1.262
		c1.755,1.745,4.615,1.889,6.044,4.15c0.123,0.202,0.477,0.286,0.742,0.37c2.966,0.938,5.906,1.976,8.91,2.768
		c4.094,1.084,8.226,2.073,12.376,2.912c1.954,0.395,3.961,0.118,5.346-1.61c1.661-2.067,1.456-2.527-1.178-3.251
		c-5.035-1.386-10.031-2.907-15.1-4.167C171.429,194.2,166.262,193.174,161.125,192.04z M185.093,208.742
		c0.004-0.043,0.009-0.082,0.015-0.125c0.466-0.022,0.962,0.036,1.396-0.093c0.396-0.117,0.728-0.439,1.09-0.669
		c-0.308-0.228-0.59-0.573-0.934-0.665c-3.287-0.88-6.576-1.74-9.88-2.559c-4.974-1.231-9.996-2.322-14.141-5.645
		c-0.35-0.279-0.961-0.232-1.451-0.337c0.117,0.555,0.052,1.356,0.396,1.618c1.274,0.978,2.621,1.911,4.06,2.618
		c4.451,2.179,9.129,3.761,13.943,4.919C181.392,208.239,183.258,208.438,185.093,208.742z M174.009,210.728
		c-0.254-0.977-0.191-2.201-0.756-2.663c-1.712-1.407-3.639-2.561-5.549-3.7c-0.341-0.2-1.009,0.148-1.523,0.241
		c0.094,0.461,0.056,1.015,0.304,1.362c0.4,0.558,0.976,0.989,1.496,1.452c1.425,1.262,2.847,2.54,4.317,3.747
		c0.304,0.25,0.843,0.3,1.259,0.275C173.725,211.432,173.867,210.967,174.009,210.728z"/>
	<path fill-rule="evenodd" clip-rule="evenodd" fill="#BE1E2D" d="M204.762,153.711c3.417-1.428,6.771-3.045,10.279-4.205
		c1.603-0.532,3.505-0.123,5.272-0.234c0.509-0.031,1-0.389,1.499-0.598c-0.438-0.277-0.873-0.797-1.307-0.794
		c-3.154,0.029-6.303,0.154-9.454,0.267c-0.446,0.015-0.888,0.132-1.434-0.055c0.232-0.174,0.446-0.464,0.702-0.501
		c3.399-0.52,6.773-1.461,10.261-0.628c2.865,0.686,5.382,1.936,7.274,4.281c0.74,0.917,1.956,0.833,2.621-0.415
		c1.289-2.424,2.478-4.918,3.51-7.463c0.546-1.333-0.689-1.995-1.682-2.272c-1.832-0.51-3.729-1.019-5.614-1.073
		c-3.853-0.11-7.711,0.042-11.563,0.17c-1.055,0.034-1.396-0.51-1.05-1.229c0.398-0.826,1.036-1.821,1.809-2.13
		c3.472-1.382,7.089-2.38,10.872-2.159c2.61,0.152,5.267,0.444,7.096,2.703c0.871,1.075,1.373,2.297,1.242,3.751
		c-0.067,0.729-0.05,1.519,0.157,2.212c0.662,2.196-0.043,4.118-0.989,6.03c-0.535,1.083-1.104,2.169-1.475,3.314
		c-0.162,0.514-0.011,1.238,0.237,1.755c0.441,0.929,1.064,1.773,1.771,2.911c-0.566,0.273-1.395,0.7-2.248,1.066
		c-0.339,0.146-0.761,0.097-1.086,0.255c-0.567,0.277-1.089,0.647-1.628,0.978c0.278,0.428,0.557,0.854,1.003,1.527
		c-0.619,0.242-1.233,0.703-1.803,0.657c-1.007-0.082-2.067-0.314-2.96-0.771c-1.196-0.611-2.261-1.838-2.104-3.595
		c0.332-3.557-1.259-5.968-4.38-6.637c-1.423-0.306-2.983,0.006-4.479,0.04c-0.036,0.173-0.073,0.35-0.111,0.526
		c0.34,0.251,0.664,0.516,1.015,0.751c2.503,1.681,3.135,3.88,1.783,6.228c-1.151,1.995-3.673,2.619-5.715,1.412
		c-2.114-1.25-2.852-3.612-1.754-5.594c0.086-0.164,0.236-0.319,0.261-0.494c0.068-0.413,0.082-0.838,0.122-1.259
		c-0.395,0.027-0.823-0.044-1.172,0.097c-1.071,0.436-2.104,0.989-3.187,1.42c-0.459,0.185-1,0.177-1.502,0.257
		C204.822,154.046,204.792,153.878,204.762,153.711z M211.696,157.317c0.472-1.021,0.918-1.946,1.316-2.896
		c0.048-0.131-0.148-0.522-0.265-0.537c-0.244-0.031-0.552,0.048-0.759,0.189C211.207,154.617,211.023,156.205,211.696,157.317z"/>
	<path fill-rule="evenodd" clip-rule="evenodd" fill="#BE1E2D" d="M196.28,84.485c-0.121-0.063-0.272-0.098-0.354-0.194
		c-2.039-2.385-5.065-2.497-7.767-3.314c-1.179-0.358-2.471-0.351-3.719-0.488c-0.775-0.086-1.388,0.051-1.474,1.033
		c-0.018,0.242-0.44,0.68-0.561,0.642c-1.164-0.347-1.821,0.442-2.563,1.047c-1.857,1.521-3.973,1.501-6.194,1.107
		c-0.58-0.103-1.326-0.003-1.83,0.293c-2.587,1.53-4.401,1.368-6.97-0.377c-1.236-0.838-2.698-1.583-4.146-1.814
		c-2.643-0.42-5.348-0.424-8.027-0.603c-0.49-0.033-0.98-0.078-1.813-0.143c0.479-0.444,0.658-0.717,0.906-0.822
		c1.458-0.615,2.888-1.343,4.406-1.746c2.053-0.543,4.18-0.762,6.245-1.262c0.643-0.156,1.173-0.772,2.044-1.382
		c-0.016-0.009,0.32,0.278,0.687,0.317c0.571,0.063,1.169,0.007,1.736-0.094c0.342-0.061,0.676-0.477,0.968-0.435
		c1.539,0.223,3.061,0.559,4.595,0.821c0.396,0.067,0.908,0.166,1.199-0.014c0.717-0.443,1.273-0.296,2.059-0.104
		c2.561,0.621,5.182,0.999,7.781,1.455c0.25,0.044,0.523-0.026,0.788-0.043c0.033-0.124,0.067-0.247,0.104-0.373
		c-0.949-0.331-1.91-0.642-2.85-1.003c-0.891-0.339-1.766-0.73-2.56-1.302c4.356,0.848,8.98,0.792,12.584,3.851
		c1.74,1.476,3.399,3.051,5.096,4.58C196.529,84.238,196.405,84.361,196.28,84.485z"/>
	<path fill-rule="evenodd" clip-rule="evenodd" fill="#BE1E2D" d="M170.23,68.852c-0.973,0.054-1.953,0.217-2.914,0.14
		c-1.712-0.141-3.344-0.325-4.553,1.335c-0.275,0.371-0.982,0.457-1.505,0.61c-2.641,0.772-5.343,1.412-7.059,3.877
		c-0.229,0.326-0.598,0.614-0.968,0.772c-1.745,0.751-3.472,1.601-5.287,2.123c-1.355,0.389-2.844,0.5-4.259,0.427
		c-1.252-0.066-2.233-0.793-2.586-2.182c-0.298-1.171-0.797-2.288-1.117-3.453c-0.097-0.351,0.109-0.782,0.173-1.175
		c0.366,0.107,0.859,0.099,1.076,0.341c0.841,0.929,1.523,0.684,2.188-0.153c0.652-0.819,1.324-1.078,2.236-0.316
		c0.238,0.2,0.738,0.099,1.117,0.133c-0.022-0.341,0.068-0.749-0.084-1.014c-0.562-0.955-0.323-1.379,0.738-1.688
		c0.993-0.288,1.892-1.042,2.959-0.152c0.077,0.062,0.775-0.332,0.821-0.58c0.174-0.944,0.651-0.913,1.418-0.747
		c0.643,0.137,1.339,0.005,2.016-0.005c0.316-0.005,0.689-0.114,0.938,0.012c1.259,0.644,1.75,0.196,1.589-1.38
		c0.718,0.146,1.296,0.195,1.823,0.386c0.83,0.301,1.619,0.72,2.44,1.051c0.766,0.311,1.442,0.443,1.66-0.72
		c0.043-0.248,0.788-0.63,1.051-0.531c2.026,0.775,4.012,1.652,6.01,2.498C170.179,68.592,170.204,68.722,170.23,68.852z"/>
	<path fill-rule="evenodd" clip-rule="evenodd" fill="#BE1E2D" d="M156.345,139.18c-2.608-0.783-5.059-1.384-6.69-3.481
		c0.13-0.023,0.263-0.045,0.396-0.07c0.028-0.721,0.198-1.473,0.056-2.162c-0.342-1.648-0.583-3.263-0.019-4.879
		c0.155-0.044,0.303-0.092,0.458-0.138c0.229,0.611,0.459,1.219,0.682,1.828c0.283,0.771,0.473,1.589,0.875,2.29
		c0.137,0.242,0.782,0.194,1.194,0.279c-0.013-0.382,0.066-0.798-0.066-1.134c-0.364-0.953-0.817-1.871-1.239-2.801
		c0.168-0.091,0.334-0.185,0.502-0.278c0.306,0.461,0.543,0.982,0.925,1.361c0.291,0.283,0.754,0.386,1.142,0.568
		c0.05-0.406,0.205-0.837,0.125-1.22c-0.107-0.522-0.395-1.011-0.64-1.599c1.588-0.457,2.841-0.26,3.771,1.08
		c0.13,0.189,0.272,0.41,0.466,0.515c0.427,0.232,0.884,0.4,1.334,0.594c0.1-0.413,0.194-0.825,0.296-1.235
		c0.039-0.133,0.082-0.261,0.132-0.413c0.144-0.01,0.362-0.077,0.396-0.025c1.179,1.861,3.146,1.403,4.873,1.748
		c2.262,0.454,4.594,0.839,6.693,1.735c2.819,1.206,5.456,2.859,7.078,5.623c-1.9-1.339-3.821-2.72-5.778-4.047
		c-0.564-0.385-1.216-0.715-1.88-0.874c-0.401-0.098-0.896,0.177-1.352,0.282c0.189,0.398,0.271,0.935,0.582,1.168
		c1.003,0.747,2.057,1.439,3.149,2.051c2.007,1.127,2.962,3.063,3.843,5.006c0.753,1.668,1.285,3.437,1.936,5.228
		c-1.482,0.008-1.886-0.344-2.14-2.245c-0.317-2.352-1.598-4.243-3.103-5.816c-2.075-2.169-4.727-3.573-7.764-4.176
		c-2.448-0.485-4.774-0.387-6.79,1.175c-1.005,0.78-1.787,1.853-2.634,2.825C156.829,138.318,156.602,138.78,156.345,139.18z"/>
	<path fill-rule="evenodd" clip-rule="evenodd" fill="#BE1E2D" d="M148.768,120.565c0.846-0.584,1.644-1.266,2.55-1.73
		c1.772-0.913,3.69-1.571,5.408-2.575c2.531-1.479,5.472-1.823,7.974-1.262c2.813,0.631,5.979,0.433,8.474,2.739
		c2.605,2.413,5.738,4.253,8.524,6.489c0.946,0.757,1.654,1.889,2.238,2.977c0.311,0.581,0.342,1.965,0.111,2.062
		c-0.818,0.345-2.047,0.694-2.686,0.313c-1.942-1.151-3.651-2.678-5.503-3.992c-2.835-2.017-5.559-4.28-8.613-5.889
		c-4.728-2.486-9.7-1.644-14.557-0.048c-1.245,0.41-2.46,0.904-3.686,1.359C148.923,120.859,148.848,120.712,148.768,120.565z"/>
	<path fill-rule="evenodd" clip-rule="evenodd" fill="#BE1E2D" d="M211.235,94.553c-0.203-0.681-0.419-1.359-0.612-2.044
		c-0.492-1.778-0.813-1.908-2.387-0.775c-1.227-2.911-2.436-5.789-3.649-8.667c0.028-0.033,0.054-0.065,0.082-0.099
		c1.065,1.399,2.13,2.796,3.199,4.193c0.181-0.098,0.361-0.196,0.543-0.293c-0.75-1.834-1.503-3.671-2.251-5.505
		c0.096-0.055,0.188-0.107,0.285-0.162c0.563,0.812,1.162,1.596,1.666,2.44c0.483,0.803,0.93,1.05,1.498,0.097
		c1.194,1.552,2.447,1.983,4.271,1.501c1.942-0.511,4.201,0.776,4.636,2.683c0.346,1.527,0.645,3.065,0.937,4.602
		c0.478,2.515-0.014,3.142-2.563,3.337c-1.823,0.141-3.082-0.598-3.882-2.273c-0.082-0.167-0.121-0.375-0.243-0.501
		c-0.356-0.36-0.744-0.688-1.117-1.031c-0.064,0.509-0.148,1.018-0.179,1.529c-0.02,0.293,0.052,0.594,0.08,0.89
		C211.446,94.5,211.338,94.527,211.235,94.553z"/>
	<path fill-rule="evenodd" clip-rule="evenodd" fill="#BE1E2D" d="M191.981,186.766c0.416-0.307,0.559-0.5,0.689-0.497
		c3.499,0.104,5.167-2.432,7.081-4.737c1.66-2,2.603-4.285,3.228-6.738c0.394-1.543-1.246-5.419-2.535-6.202
		c-1.657-1.007-1.955-2.24-1.093-3.992c0.291-0.586,0.479-1.329,0.416-1.971c-0.664-6.537,1.276-12.014,6.387-16.291
		c1.263-1.055,2.382-2.278,3.563-3.428c0.161,0.102,0.316,0.199,0.476,0.3c-0.239,0.575-0.37,1.239-0.743,1.712
		c-1.5,1.902-3.014,3.8-4.637,5.603c-3.073,3.426-3.725,7.589-3.405,11.889c0.202,2.707,0.645,5.559,1.754,7.99
		c1.537,3.374,1.542,6.528,0.354,9.845c-0.486,1.346-0.972,2.721-1.689,3.943c-0.505,0.856-1.313,1.579-2.58,0.84
		c-0.313-0.18-1.16,0.172-1.514,0.525c-1.173,1.177-2.55,1.7-4.169,1.631C193.117,187.17,192.678,186.958,191.981,186.766z"/>
	<path fill-rule="evenodd" clip-rule="evenodd" fill="#BE1E2D" d="M106.518,141.791c-0.416,1.461-1.064,2.905-1.176,4.386
		c-0.109,1.474,0.124,3.05,0.583,4.459c0.391,1.204,0.245,2.211-0.726,2.627c-0.658,0.28-1.985,0.011-2.447-0.511
		c-0.673-0.766-0.971-1.952-1.179-3.007c-0.179-0.924-0.238-1.82-1.355-1.985c-2.438-0.359-3.375-2.336-3.717-4.211
		c-0.703-3.892,1.695-6.484,5.394-7.035c0.472-0.07,1.083,0.063,1.464,0.334c0.487,0.347,0.803,0.928,1.194,1.408
		c-0.446,0.343-0.844,0.856-1.353,1.005c-2.056,0.603-3.142,2.117-3.797,3.974c-0.402,1.15-0.07,2.291,1.005,2.947
		c1.657,1.007,2.606,2.292,2.488,4.329c-0.027,0.49,0.472,1.028,0.794,1.5c0.05,0.068,0.664-0.086,0.689-0.202
		c0.108-0.558,0.316-1.239,0.105-1.699c-1.068-2.312-0.938-4.515,0.356-6.665c0.389-0.652,0.875-1.245,1.319-1.864
		C106.278,141.651,106.396,141.723,106.518,141.791z"/>
	<path fill-rule="evenodd" clip-rule="evenodd" fill="#BE1E2D" d="M168.849,140.28c0.05,1.855-1.942,3.715-4.001,3.735
		c-2.222,0.023-4.783-2.417-4.821-4.638c-0.041-2.413,2.108-3.602,4.839-3.874C166.913,135.299,168.773,137.673,168.849,140.28z
		 M166.577,140.522c1.073-0.927,1.186-1.883,0.422-2.591c-0.186-0.169-0.593-0.355-0.713-0.271c-0.214,0.155-0.44,0.537-0.391,0.765
		C166.045,139.112,166.32,139.771,166.577,140.522z M163.649,141.517c-0.341-0.872-0.65-1.723-1.036-2.539
		c-0.042-0.085-0.738-0.042-0.811,0.104C161.311,140.051,162.365,141.458,163.649,141.517z"/>
	<path fill-rule="evenodd" clip-rule="evenodd" fill="#BE1E2D" d="M121.387,103.544c0.419-0.139,0.521-0.214,0.586-0.189
		c4.324,1.752,8.71,0.994,13.096,0.334c0.962-0.146,1.936-0.333,2.9-0.316c0.642,0.011,1.275,0.362,1.917,0.538
		c0.475,0.129,0.953,0.249,1.437,0.316c0.658,0.095,1.321,0.134,1.982,0.195c0.019,0.17,0.04,0.341,0.059,0.51
		c-0.571,0.172-1.135,0.418-1.719,0.5c-2.543,0.369-5.087,0.678-7.63,1.036c-0.552,0.078-1.117,0.199-1.613,0.428
		c-0.75,0.348-1.16,0.163-1.799-0.403c-0.596-0.524-1.663-0.803-2.479-0.73C125.6,105.991,123.521,105.149,121.387,103.544z"/>
	<path fill-rule="evenodd" clip-rule="evenodd" fill="#BE1E2D" d="M152.251,182.879c0.989-0.203,1.889-0.236,2.664-0.569
		c2.798-1.211,5.549-2.537,8.334-3.788c1.778-0.797,3.577-1.549,5.382-2.293c0.273-0.112,0.614-0.059,0.921-0.081
		c0.075,0.114,0.15,0.23,0.222,0.344c-0.575,0.446-1.117,0.94-1.731,1.323c-2.748,1.718-5.5,3.434-8.288,5.091
		c-1.396,0.827-2.836,1.582-4.306,2.266C154.431,185.646,153.408,184.905,152.251,182.879z"/>
	<path fill-rule="evenodd" clip-rule="evenodd" fill="#BE1E2D" d="M169.683,150.589c-1.474-0.171-3.005-0.138-4.408-0.562
		c-1.696-0.511-3.296-1.369-4.895-2.172c-0.278-0.141-0.337-0.736-0.496-1.121c0.384-0.028,0.85-0.213,1.136-0.059
		c2.134,1.194,4.443,1.764,6.829,2.176c0.707,0.123,1.347,0.65,2.018,0.995C169.804,150.093,169.748,150.341,169.683,150.589z"/>
	<path fill-rule="evenodd" clip-rule="evenodd" fill="#BE1E2D" d="M144.409,100.787c-2.943,1.183-11.411,1.827-14.73,1.169
		C130.634,101.317,143.531,100.234,144.409,100.787z"/>
	<path fill-rule="evenodd" clip-rule="evenodd" fill="#BE1E2D" d="M187.149,178.945c1.179,0.427,2.323,0.749,3.368,1.267
		c0.626,0.309,0.925,1.018,0.285,1.62c-0.614,0.572-1.078,0.186-1.451-0.412c-0.748-1.198-1.83-0.794-2.879-0.581
		c-0.762,0.155-1.526,0.326-2.301,0.369c-0.273,0.014-0.664-0.274-0.811-0.532c-0.077-0.133,0.214-0.663,0.432-0.741
		C184.866,179.562,185.964,179.282,187.149,178.945z"/>
	<path fill-rule="evenodd" clip-rule="evenodd" fill="#BE1E2D" d="M186.586,138.732c0.716,1.416,1.432,2.835,2.151,4.249
		c0.802,1.563,1.812,3.071,1.626,4.931c-0.069,0.726-0.397,1.424-0.608,2.136c-0.193-0.019-0.384-0.039-0.577-0.057
		c-0.136-0.408-0.466-0.867-0.378-1.214c0.837-3.159-0.943-5.537-2.284-8.061c-0.283-0.53-0.434-1.128-0.645-1.693
		C186.107,138.925,186.343,138.831,186.586,138.732z"/>
	<path fill-rule="evenodd" clip-rule="evenodd" fill="#BE1E2D" d="M209.5,163.113c0.857,0.191,1.707,0.4,2.569,0.564
		c1.267,0.244,2.543,0.405,3.791,0.7c0.507,0.12,0.998,0.445,1.403,0.783c0.095,0.08-0.095,0.806-0.291,0.878
		c-1.621,0.609-6.393-1.009-7.583-2.508C209.426,163.389,209.465,163.25,209.5,163.113z"/>
	<path fill-rule="evenodd" clip-rule="evenodd" fill="#BE1E2D" d="M180.887,182.958c-2.871,0.054-3.89-2.12-4.1-4.098
		c-0.05-0.475,0.582-1.021,0.905-1.536c0.309,0.343,0.709,0.638,0.921,1.035C179.394,179.855,180.115,181.384,180.887,182.958z"/>
	<path fill-rule="evenodd" clip-rule="evenodd" fill="#BE1E2D" d="M202.602,88.182c-2.468-3.151-4.841-6.179-7.231-9.235
		C197.164,78.862,202.969,86.096,202.602,88.182z"/>
	<path fill-rule="evenodd" clip-rule="evenodd" fill="#BE1E2D" d="M216.617,161.982c2.239-0.351,4.014-0.666,5.799-0.881
		c0.422-0.05,0.883,0.24,1.325,0.374c-0.173,0.392-0.244,0.96-0.543,1.137c-0.593,0.348-1.358,0.744-1.973,0.643
		C219.786,163.015,218.394,162.494,216.617,161.982z"/>
	<path fill-rule="evenodd" clip-rule="evenodd" fill="#BE1E2D" d="M200.639,282.997c-2.212,1.893-4.494,3.673-7.386,4.451
		C195.178,285.079,197.684,283.668,200.639,282.997z"/>
	<path fill-rule="evenodd" clip-rule="evenodd" fill="#BE1E2D" d="M192.945,306.815c0.225-0.269,0.407-0.597,0.686-0.797
		c1.429-1.024,2.873-2.033,4.343-3.001c0.25-0.166,0.653-0.107,0.981-0.152c-0.05,0.377,0.036,0.931-0.179,1.101
		c-1.373,1.093-2.792,2.139-4.26,3.11c-0.349,0.229-0.929,0.108-1.399,0.146C193.062,307.087,193.003,306.951,192.945,306.815z"/>
	<path fill-rule="evenodd" clip-rule="evenodd" fill="#BE1E2D" d="M146.968,93.187c-0.449,1.392-1.284,1.871-2.298,1.807
		c-1.014-0.064-2.152-0.21-2.398-1.807C143.82,93.187,145.28,93.187,146.968,93.187z"/>
	<path fill-rule="evenodd" clip-rule="evenodd" fill="#BE1E2D" d="M140.163,96.87c3.034-1.067,3.778-0.937,5.254,0.891
		C143.575,97.97,142.067,97.491,140.163,96.87z"/>
	<path fill-rule="evenodd" clip-rule="evenodd" fill="#BE1E2D" d="M221.077,93.556c0-2.294,0-4.589,0-6.883
		c0.64,2.259,1.023,4.54,0.527,6.862C221.428,93.542,221.251,93.548,221.077,93.556z"/>
	<path fill-rule="evenodd" clip-rule="evenodd" fill="#BE1E2D" d="M157.757,141.437c1.282,0.917,2.27,1.622,3.436,2.454
		C159.639,144.223,158.179,143.231,157.757,141.437z"/>
	<path fill-rule="evenodd" clip-rule="evenodd" fill="#BE1E2D" d="M199.323,58.16c1.189,0.951,2.38,1.9,3.563,2.85
		c-0.067,0.087-0.136,0.173-0.207,0.259c-1.207-0.934-2.41-1.866-3.617-2.8C199.15,58.368,199.237,58.264,199.323,58.16z"/>
	<path fill-rule="evenodd" clip-rule="evenodd" fill="#BE1E2D" d="M86.896,315.272c0.915-0.166,1.833-0.223,2.301,0.816
		c0.081,0.177-0.518,0.889-0.58,0.86c-0.701-0.323-1.359-0.742-2.028-1.134C86.688,315.634,86.792,315.453,86.896,315.272z"/>
	<path fill-rule="evenodd" clip-rule="evenodd" fill="#BE1E2D" d="M127.495,208.91c-1.417-0.35-4.684-3.945-4.848-5.339
		C123.993,203.806,127.178,207.314,127.495,208.91z"/>
	<path fill-rule="evenodd" clip-rule="evenodd" fill="#BE1E2D" d="M211.696,157.317c-0.673-1.112-0.489-2.701,0.293-3.244
		c0.207-0.141,0.515-0.22,0.759-0.189c0.116,0.014,0.313,0.405,0.265,0.537C212.614,155.371,212.168,156.297,211.696,157.317z"/>
	<path fill-rule="evenodd" clip-rule="evenodd" fill="#BE1E2D" d="M166.577,140.522c-0.257-0.75-0.532-1.41-0.682-2.098
		c-0.05-0.229,0.177-0.61,0.391-0.765c0.12-0.084,0.527,0.103,0.713,0.271C167.763,138.639,167.65,139.595,166.577,140.522z"/>
	<path fill-rule="evenodd" clip-rule="evenodd" fill="#BE1E2D" d="M163.649,141.517c-1.284-0.058-2.339-1.466-1.847-2.436
		c0.072-0.146,0.769-0.189,0.811-0.104C162.999,139.793,163.309,140.645,163.649,141.517z"/>
</g>
</svg>
