<?xml version="1.0" encoding="utf-8"?>
<!-- Generator: Adobe Illustrator 16.0.0, SVG Export Plug-In . SVG Version: 6.00 Build 0)  -->
<!DOCTYPE svg PUBLIC "-//W3C//DTD SVG 1.1//EN" "http://www.w3.org/Graphics/SVG/1.1/DTD/svg11.dtd">
<svg version="1.1" id="Layer_1" xmlns="http://www.w3.org/2000/svg" xmlns:xlink="http://www.w3.org/1999/xlink" x="0px" y="0px"
	 width="300px" height="400px" viewBox="0 0 300 400" enable-background="new 0 0 300 400" xml:space="preserve">
<g id="icon_1_">
	<path fill-rule="evenodd" clip-rule="evenodd" fill="#4D758C" d="M2.957,230.898c1.417,1.386,1.7,3.184,1.664,5.051
		c-0.068,3.257-0.314,6.528-0.253,9.783c0.053,3.206,0.157,3.274,3.188,3.96c7.551,1.72-0.998,11.366,6.517,13.2
		c3.618,0.886-3.147,5.546,0.42,6.652c1.48,0.465,2.205,1.373,2.135,2.884c-0.237,4.798-0.464,9.599-0.813,14.395
		c-0.191,2.651-0.577,5.294-0.979,7.919c-0.178,1.194,0.14,2.113,1.061,2.745c1.581,1.088,3.169,2.172,4.853,3.082
		c2.134,1.155,4.309,2.188,5.756,4.278c0.193,0.268,0.612,0.485,0.946,0.511c6.908,0.526,13.325,2.807,19.541,5.642
		c8.352,3.811,17.158,6.121,25.986,8.421c6.29,1.632,12.361,3.817,18.178,6.801c1.464,0.75,3.526,0.319,5.301,0.468
		c0.578,0.057,1.255,0.087,1.692,0.396c4.596,3.219,9.795,5.147,14.927,7.269c4.917,2.035,9.808,4.152,14.605,6.449
		c2.052,0.985,3.837,2.519,6.124,4.06c0.084-0.703,0.302-1.354,0.193-1.942c-0.105-0.567-0.653-1.039-0.791-1.612
		c-0.124-0.464,0.071-1.013,0.119-1.52c0.466,0.104,0.964,0.143,1.389,0.345c0.986,0.459,1.895,1.252,2.919,1.416
		c0.745,0.119,1.896-0.338,2.35-0.936c0.316-0.411-0.171-1.53-0.448-2.284c-0.13-0.378-0.703-0.591-0.85-0.973
		c-0.214-0.532-0.211-1.155-0.298-1.739c0.611-0.028,1.341-0.287,1.798-0.039c0.691,0.379,1.196,1.1,1.764,1.694
		c0.835,0.866,1.548,1.893,2.501,2.587c1.527,1.112,2.686,0.732,3.341-1.067c0.564-1.563,1.357-1.845,2.741-1.057
		c0.555,0.313,1.231,0.516,1.867,0.582c2.826,0.302,4.477-1.8,3.477-4.429c-0.472-1.239-1.157-2.393-1.619-3.631
		c-0.289-0.782-0.341-1.657-0.495-2.485c0.148-0.122,0.297-0.241,0.441-0.361c1.27,0.793,2.63,1.475,3.781,2.412
		c2.989,2.42,5.884,4.953,8.817,7.445c0.414,0.359,0.832,0.717,1.264,1.056c2.938,2.376,2.936,2.386,5.799,0.046
		c1.148-0.938,2.268-1.371,3.768-0.66c1.069,0.504,2.373,0.48,3.496,0.893c1.357,0.496,2.63,1.237,3.958,1.813
		c0.631,0.271,1.357,0.68,1.966,0.578c9.223-1.55,17.964-4.762,26.677-8.072c2.465-0.938,4.927-1.86,7.812-2.942
		c0.718,3.225,1.59,6.194,2.007,9.223c0.797,5.697,1.144,11.461,2.023,17.139c0.888,5.726,3.436,10.591,8.486,13.802
		c2.977,1.897,3.74,1.61,4.798-1.879c0.132-0.425,0.242-0.854,0.419-1.262c0.727-1.672,2.22-1.993,3.565-0.752
		c0.484,0.45,0.864,1.004,1.327,1.468c1.08,1.084,2.27,1.528,3.684,0.582c2.885-1.932,5.788-3.846,8.661-5.796
		c2.462-1.675,4.896-3.396,7.598-5.285c0.721,3.399,3.392,4.731,5.545,6.537c1.92,1.617,3.207,3.498,2.646,5.938
		c2.481,0.244,4.945,0.479,7.398,0.739c2.882,0.305,5.119-1.011,7.112-2.898c2.981-2.84,4.764-6.484,6.647-10.069
		c0.716-1.359,1.492-2.689,2.246-4.03c0.093-0.323,0.188-0.636,0.281-0.957c-1.285-3.291-2.557-6.578-3.856-9.864
		c-3.649-9.187-7.316-18.367-10.946-27.564c-0.591-1.509-1.409-2.225-3.166-2.151c-2.19,0.098-2.74-0.752-2.779-3.045
		c-0.008-0.604-0.334-1.207-0.656-2.242c-1.449,1.97-1.57,3.684-1.292,5.365c0.356,2.181,0.897,4.332,1.468,6.467
		c0.936,3.573,0.914,7.102-0.23,10.642c-3.369,10.409-9.979,18.143-19.248,23.65c-1.438,0.855-3.055,1.412-4.624,2.123
		c-0.209-0.448-0.328-0.636-0.389-0.836c-1.172-4.15-2.366-8.288-3.479-12.459c-0.127-0.469,0.052-1.083,0.235-1.578
		c1.198-3.208,3.612-5.443,6.249-7.374c4.523-3.301,7.876-7.512,10.515-12.429c1.861-3.469,3.89-6.87,7.13-9.275
		c0.813-0.6,1.076-1.229,1.028-2.201c-1.013-20.46-0.119-40.849,2.548-61.18c1.073-8.199,1.597-16.444,0.487-24.686
		c-0.653-4.854-0.938-5.11-5.658-6.218c-1.41-0.335-3.432-0.35-4.014-1.26c-0.689-1.086-0.25-2.996-0.08-4.521
		c0.38-3.471,0.946-6.92,1.309-10.392c0.075-0.724-0.175-1.72-0.653-2.226c-3.147-3.338-7.462-3.662-11.177-0.919
		c-2.547,1.876-4.457,4.35-5.727,7.21c-1.282,2.914-2.239,5.978-3.389,9.114c-2.709-0.688-5.598-1.494-8.534-2.156
		c-3.651-0.827-7.33-1.527-11.09-0.605c-2.556,0.625-4.324,2.178-5.143,4.69c-0.471,1.459-0.707,2.999-1.078,4.611
		c-3.47-0.305-5.667,1.625-7.078,4.586c-1.401,2.932-1.637,5.949,0.09,9.102c-3.688,0.461-5.391,2.318-5.682,6.1
		c-0.593,7.695,0.888,14.985,3.158,22.202c0.625,1.984,1.277,3.959,2.018,6.248c-2.378-1.017-4.462-1.946-6.584-2.789
		c-6.335-2.5-12.695-4.928-19.026-7.449c-5.944-2.364-10.513-6.277-13.405-12.109c-0.78-1.567-1.802-3.037-2.856-4.445
		c-0.729-0.965-1.686-1.748-2.543-2.614c-0.323,0.869-0.391,1.532-0.291,2.164c0.774,4.635,1.564,9.26,2.38,13.886
		c0.784,4.462,1.725,8.898,2.347,13.388c0.283,2.019-0.019,4.131-0.052,6.202c-0.146,0.023-0.288,0.049-0.426,0.077
		c-0.574-0.987-1.062-2.046-1.735-2.953c-1.594-2.164-2.871-4.958-5.022-6.206c-3.33-1.936-4.417-4.643-4.988-8.035
		c-0.245-1.414-0.767-2.771-1.159-4.154c-1.251-4.416-2.458-8.848-3.783-13.236c-0.441-1.462-0.141-2.352,1.064-3.362
		c2.453-2.053,4.766-4.288,7.019-6.566c0.789-0.804,1.489-1.002,2.561-0.984c4.492,0.09,9.038,0.461,13.473-0.074
		c7.624-0.927,10.594-4.002,12.45-11.46c1.084-4.353,1.934-8.806,3.47-13.001c3.699-10.097,7.834-20.034,11.618-30.101
		c3.411-9.062,5.513-18.376,4.465-28.159c-0.432-4.068-0.893-8.137-1.326-12.208c-0.609-5.722-0.357-11.378,1.121-16.984
		c1.345-5.091,2.583-10.214,3.794-15.344c2.429-10.336,2.479-10.375-2.167-19.892c-2.638-5.408-5.535-10.687-8.342-16.005
		c-1.09-2.069-2.023-4.125-1.836-6.585c0.084-1.082-0.181-2.2-0.38-3.287c-2.691-14.389-15.643-26.194-30.494-27.882
		c-5.298-0.602-10.424,0.383-15.476,1.787c-7.145,1.99-14.342,2.617-21.714,1.911c-3.975-0.374-8.002-0.21-12.004-0.21
		c-0.73,0-1.718,0.135-2.145,0.616c-1.626,1.838-3.765,2.404-5.974,2.932c-0.609,0.147-1.212,0.477-1.727,0.856
		c-2.45,1.789-4.754,3.797-7.322,5.399c-4.867,3.043-9.925,5.775-14.812,8.795c-7.612,4.693-12.255,11.521-14.563,20.219
		c-3.673,13.905-4.432,27.963-3.298,42.208c0.075,0.943-0.23,2.079-0.732,2.899c-2.55,4.167-4.33,8.585-4.842,13.497
		c-0.755,7.239,0.987,14.018,4.023,20.42c2.503,5.283,5.49,10.329,8.191,15.517c0.438,0.828,0.671,1.854,0.691,2.796
		c0.094,4.423-0.089,8.871,0.151,13.281c0.321,5.753,2.412,10.869,6.31,15.155c1.33,1.465,2.637,2.962,4.053,4.344
		c8.106,7.893,17.517,13.976,27.187,19.666c10.37,6.094,20.812,12.075,31.248,18.062c0.986,0.564,1.239,1.196,1.005,2.268
		c-2.232,10.392-5.521,20.445-9.599,30.246c-1.271,3.067-2.871,5.992-4.137,9.06c-0.415,0.994-0.238,2.227-0.327,3.352
		c0.243,0.069,0.484,0.137,0.73,0.198c0.991-1.57,2.223-3.034,2.926-4.729c1.825-4.406,3.348-8.924,5.123-13.354
		c0.804-2.012,1.905-3.904,2.88-5.844c3.4,1.772,4.412,3.551,3.868,6.896c-0.247,1.571-0.891,3.078-1.343,4.617
		c-0.811,2.705-1.748,5.382-2.389,8.126c-1.409,5.986-2.621,12.025-4.008,18.019c-0.321,1.398-1.023,2.718-1.641,4.305
		c-0.39-0.509-0.557-0.707-0.709-0.927c-11.211-16.449-22.554-32.808-33.585-49.379c-6.842-10.275-13.477-20.713-19.728-31.365
		c-5.321-9.056-8.658-18.971-9.888-29.525c-0.032-0.246-0.137-0.493-0.225-0.816c-3.8,1.089-6.924,3.126-9.662,5.767
		c-3.103,2.99-6.072,6.123-9.158,9.137c-3.808,3.725-8.3,6.007-13.643,6.385c-4.869,0.354-9.579,1.465-14.112,3.229
		c-6.012,2.334-1.835,1.367-7.708,4.031c-9.134,4.153-1.957,0.575-11.058,4.813c-3.471,1.626-6.851,3.281-9.308,6.368
		C3.087,230.472,3.022,230.685,2.957,230.898z M105.25,105.794c1.484-0.051,2.982,0.117,4.446-0.042
		c1.126-0.119,2.214-0.597,3.314-0.919c0-0.251-0.004-0.512-0.011-0.76c-1.093-0.33-2.175-0.894-3.273-0.934
		c-1.803-0.06-3.612,0.292-5.419,0.337c-1.353,0.03-2.701-0.136-4.053-0.21c-0.04-0.203-0.077-0.412-0.127-0.616
		c1.039-0.365,2.039-0.924,3.102-1.073c1.846-0.252,3.724-0.222,5.585-0.374c2.023-0.164,4.067-0.311,5.688-1.905
		c-0.807-1.25-1.898-0.829-2.971-0.665c-0.993,0.158-2.007,0.208-3.008,0.311c-0.052-0.199-0.097-0.395-0.143-0.592
		c2.055-0.765,4.137-1.494,6.178-2.307c2.121-0.833,3.768-2.207,4.805-4.572c-2.846-0.348-5.754,1.162-8.254-0.904
		c0.034-1.389,0.893-1.816,2.145-1.903c0.977-0.07,1.944-0.261,2.909-0.394c0.023-0.211,0.043-0.417,0.066-0.627
		c-0.664-0.367-1.335-0.741-2.028-1.123c-0.075-1.566,3.457-0.403,2.114-2.939c-0.809,0.229-1.6,0.454-2.393,0.678
		c-0.087-0.314-0.175-0.445-0.14-0.517c1.025-2.031,1.013-2.053-1.319-2.03c-2.96,0.033-5.931,0.182-8.883,0.014
		c-1.403-0.081-2.774-0.775-4.315-1.241c1.53-2.5,3.583-3.623,5.994-3.965c2.394-0.341,4.826-0.375,7.228-0.575
		c1.899-0.168,3.799-0.383,5.692-0.572c0.02-0.197,0.036-0.393,0.057-0.591c-0.9-0.165-1.796-0.413-2.705-0.479
		c-2.844-0.212-5.711-0.259-8.543-0.561c-2.582-0.272-5.026-1.03-6.881-2.998c0.028-0.166,0.055-0.333,0.083-0.5
		c2.821,0.23,5.641,0.457,8.463,0.697c3.23,0.279,6.442,0.707,9.674,0.794c1.544,0.046,3.212-0.303,4.64-0.91
		c3.339-1.425,4.237-5.042,2.139-7.994c-0.732-1.033-1.751-1.922-2.233-3.056c-0.509-1.194-0.877-2.652-0.695-3.907
		c0.314-2.152,1.193-2.657,3.305-2.361c3.258,0.454,6.519,0.973,9.763,1.528c0.468,0.083,0.88,0.505,1.311,0.766
		c-0.341,0.458-0.602,1.023-1.042,1.343c-0.52,0.389-1.202,0.546-1.789,0.842c-1.657,0.841-1.789,1.373-0.423,2.677
		c2.784,2.647,6.33,3.426,9.982,3.78c1.284,0.129,2.591-0.015,4.135-0.037c-1.143-4.117-5.412-4.467-7.651-7.45
		c7.338,0.333,12.677,4.945,19.175,7.191c-0.82-1.235-1.487-2.603-2.472-3.679c-4.146-4.532-9.411-7.395-15.276-8.607
		c-4.467-0.917-9.158-0.774-13.743-1.059c-3.125-0.195-6.25-0.308-9.37-0.498c-0.628-0.04-1.248-0.268-2.182-0.471
		c2.212-2.108,4.621-3.034,7.265-3.438c5.057-0.762,9.997,0.063,14.832,1.381c5.881,1.608,11.684,3.471,17.526,5.228
		c1.616,0.488,3.227,0.971,5.08,1.525c-0.47-1.873-1.67-2.758-3.03-3.242c-2.426-0.862-4.952-1.433-7.388-2.268
		c-1.958-0.669-3.878-1.486-5.752-2.362c-0.593-0.278-1-0.954-1.407-1.618c6.524,0.545,12.146,3.87,18.268,5.686
		c-2.095-3.008-5.503-3.948-8.596-5.546c1.254-1.323,2.718-1.181,3.981-0.549c2.007,1,3.867,2.282,5.783,3.454
		c0.732,0.444,1.446,0.922,2.257,1.438c0.821-1.441,0.071-2.272-0.813-2.924c-1.192-0.876-2.488-1.599-3.731-2.415
		c-0.576-0.377-1.112-0.814-1.53-1.603c3.841,0.209,7.705,0.279,11.529,0.682c3.087,0.316,5.667,1.894,7.747,4.266
		c0.141-0.136,0.293-0.277,0.432-0.416c-1.156-1.332-2.322-2.667-3.479-3.991c3.494-4.177,10.364-4.873,14.257-1.529
		c1.11,0.954,1.184,1.778,0.102,2.682c-0.925,0.774-1.867,1.589-2.924,2.132c-1.302,0.669-1.189,1.402-0.463,2.354
		c0.168,0.219,0.371,0.405,0.566,0.603c1.908,1.984,1.539,4.209-1.075,5.137c-1.399,0.503-3.011,0.49-4.528,0.579
		c-1.259,0.078-2.524-0.043-3.785-0.056c-0.382-0.004-0.768,0.073-1.382,0.136c0.386,0.428,0.618,0.756,0.914,1.016
		c4.505,3.981,7.896,8.713,9.76,14.51c0.143,0.453,0.877,0.965,1.354,0.973c0.846,0.017,1.733-0.244,2.559-0.53
		c0.979-0.355,1.905-0.87,2.863-1.28c3.766-1.634,6.233-0.891,8.044,2.8c5.803,11.844,9.058,24.301,8.256,37.659
		c-0.127,2.094-0.419,4.188-0.643,6.28c-0.026,0.209-0.12,0.413-0.248,0.83c-3.498-1.329-7.217-1.938-10.243-4.338
		c-0.318-0.247-1.034-0.338-1.377-0.151c-5.467,2.978-10.486,6.556-14.557,11.359c-2.605,3.077-3.45,6.506-2.121,10.374
		c1.524,4.427,2.123,9.005,2.574,13.656c0.239,2.482,1.243,4.89,1.973,7.314c0.424,1.424,1.258,2.779,1.403,4.225
		c0.136,1.395-0.074,3.019-0.682,4.266c-0.932,1.921-1.789,2.035-3.656,1.079c-3.337-1.704-6.887-2.149-10.572-1.817
		c-2.084,0.182-4.171,0.289-6.236,0.543c-1.5,0.177-1.964-0.591-2.099-1.871c-0.102-0.958-0.248-1.911-0.376-2.869
		c-2.186,0.373-3.084,1.454-2.934,3.293c0.241,2.975,2.128,4.602,5.092,4.237c1.629-0.202,3.235-0.641,4.864-0.92
		c1.238-0.212,2.497-0.443,3.753-0.478c2.589-0.071,3.527,0.794,4.389,3.91c2.319,0.242,4.499-0.451,6.613-1.399
		c4.173-1.874,5.376-4.499,4.11-8.983c-0.122-0.427-0.213-0.88-0.426-1.253c-3.228-5.693-3.758-12.057-4.512-18.385
		c-0.257-2.239-0.821-4.466-1.469-6.625c-0.331-1.126-0.243-2.009,0.292-2.981c2.411-4.43,6.271-6.737,11.106-7.054
		c3.753-0.249,7.552,0.071,11.327,0.268c1.13,0.068,1.955,0.766,2.08,2.123c1.819,19.217,0.969,38.192-5.429,56.646
		c-3.994,11.525-7.972,23.059-12.11,34.529c-0.972,2.686-2.473,5.199-3.897,7.682c-1.496,2.617-3.903,3.96-6.841,4.462
		c-3.805,0.645-7.573,0.397-11.296-0.402c-6.55-1.403-12.57-3.876-17.509-8.638c-1.714-1.66-3.68-3.061-5.531-4.585
		c-0.195,0.064-0.379,0.132-0.575,0.2c-0.1,1.46-0.188,2.917-0.293,4.563c-10.249-2.688-18.465-9.022-27.26-14.213
		c-0.138,0.136-0.275,0.278-0.423,0.418c1.286,1.528,2.43,3.203,3.867,4.567c3.48,3.287,7.815,5.253,12.052,7.354
		c2.458,1.212,4.914,2.419,7.247,3.569c-0.484,2.824-0.938,5.476-1.432,8.381c-1.78-0.825-3.74-1.696-5.667-2.643
		c-12.659-6.21-23.941-14.483-34.836-23.355c-2.007-1.631-4.03-3.247-6.002-4.914c-0.429-0.362-0.877-0.883-1.005-1.406
		c-1.246-5.049-2.477-10.098-3.587-15.175c-0.177-0.791,0.159-1.747,0.43-2.564c0.452-1.361,1.003-2.689,1.58-4.004
		c0.548-1.229,1.189-2.414,1.791-3.615c0.218,0.007,0.434,0.007,0.646,0.009c0.893,1.867,1.911,3.692,2.65,5.618
		c0.985,2.577,1.578,5.319,2.682,7.832c0.778,1.781,1.996,3.419,3.291,4.873c0.475,0.541,1.811,0.678,2.602,0.448
		c0.989-0.297,1.196-1.375,0.83-2.384c-1.105-3.059-2.187-6.129-3.356-9.164c-1.555-4.065-3.169-8.113-4.805-12.138
		c-0.155-0.388-0.804-0.926-1.082-0.852c-1.089,0.289-2.207,0.652-3.141,1.26c-2.214,1.421-2.569,1.503-4.664-0.088
		c-4.932-3.754-8.342-8.743-11.045-14.241c-3.719-7.544-5.983-15.477-5.31-24.012c0.2-2.565,0.696-5.196,1.587-7.604
		c2.201-5.958,9.472-7.154,13.441-2.234c1.391,1.733,2.2,3.924,3.376,5.85c1.167,1.92,2.446,3.768,3.703,5.631
		c0.134,0.194,0.434,0.284,0.671,0.432c1.627-1.113-0.137-2.685,0.636-3.842c1.819,0.347,3.621,0.836,5.455,1.015
		c2.396,0.237,2.746-0.347,1.911-2.634c-0.643-1.727-0.518-1.858,1.214-2.323c0.523-0.143,0.936-0.739,1.4-1.13
		c-0.46-0.322-0.891-0.72-1.407-0.938c-0.313-0.135-0.757-0.044-1.125,0.035c-1.854,0.399-3.692,0.831-5.992,1.356
		c0.671,0.384,1.168,0.624,1.602,0.944c0.313,0.234,0.55,0.58,0.814,0.878c-0.352,0.153-0.718,0.471-1.048,0.444
		c-1.7-0.144-3.387-0.347-5.072-0.597c-0.318-0.047-0.654-0.332-0.862-0.603c-1.334-1.733-2.577-3.533-3.952-5.226
		c-1.151-1.416-2.362-2.758-2.526-5.138c7.713-1.056,15.386-2.1,23.07-3.151c0.014-0.23,0.032-0.465,0.054-0.696
		c-1.571-0.392-3.136-0.781-4.95-1.229C102.452,106.281,103.777,105.852,105.25,105.794z M241.059,262.203
		c0.373-0.121,0.595-0.729,0.903-1.136c-1.276-1.496-2.824-1.531-4.455-1.311c-2.021,0.275-4.046,0.62-5.943-0.723
		c0.161-2.041,1.521-3.059,3.201-3.807c1.336-0.591,2.722-1.123,3.528-2.768c-4.488-0.17-7.171,2.112-9.21,6.087
		c-1.376-0.77-2.738-1.506-4.072-2.282c-1.355-0.78-2.69-1.604-4.028-2.407c-0.203,0.152-0.407,0.306-0.608,0.456
		c0.356,0.813,0.582,1.719,1.104,2.401c0.448,0.589,1.221,0.921,1.854,1.354c1.717,1.171,2.018,1.783,1.903,3.794
		c1.643,0.778,3.324,1.444,4.876,2.348c1.971,1.143,2.887,3.179,2.401,5.186c-0.107,0.453-0.746,1.08-1.194,1.123
		c-8.133,0.815-14.607-3.536-16.489-11.51c-0.806-3.387-0.718-7.004-0.914-10.525c-0.026-0.444,0.576-1.223,1.03-1.356
		c2.526-0.758,5.087-1.4,7.654-2.002c2.833-0.666,5.753-1.039,8.521-1.923c2.083-0.673,3.981-1.95,5.967-2.953
		c-0.069-0.211-0.14-0.429-0.207-0.636c-0.939,0.056-1.905-0.03-2.8,0.189c-2.719,0.689-5.406,1.492-8.104,2.261
		c-3.967,1.119-7.935,2.217-11.884,3.396c-0.484,0.146-1.018,0.625-1.232,1.082c-1.26,2.712-1.354,5.572-0.957,8.469
		c0.275,1.953,0.584,3.897,0.691,5.904c-1.528-1.811-2.317-3.964-2.477-6.235c-0.239-3.525-0.191-7.073-0.259-10.612
		c-0.018-1.328,0.107-2.675-0.041-3.983c-0.131-1.102,0.317-1.578,1.211-2.03c3.208-1.641,6.646-2.391,10.175-2.587
		c5.155-0.288,10.324-0.352,15.482-0.612c2.039-0.097,4.06-0.466,6.088-0.715c0.008-0.25,0.02-0.5,0.028-0.757
		c-2.444-0.355-4.911-1.082-7.345-1c-4.824,0.157-9.639,0.747-14.446,1.177c-1.425,0.125-2.839,0.327-4.268,0.452
		c-2.076,0.192-2.391,0.061-2.221-2.086c0.162-2.121,0.723-4.225,1.24-6.306c0.291-1.196,1.146-1.636,2.461-1.681
		c10.351-0.334,20.648,0.291,30.913,1.5c2.511,0.295,5.016,0.591,7.522,0.912c2.194,0.288,2.867,0.879,3.078,3.125
		c0.161,1.803,0.007,3.644,0.063,5.467c0.049,1.543,0.159,3.078,1.684,4.373c1.666-5.235,1.627-10.172-0.511-15.004
		c-0.207-0.466-1.135-0.807-1.753-0.854c-8.488-0.621-16.985-1.178-25.477-1.76c-3.651-0.243-7.303-0.511-10.978-0.763
		c0.63-3.453,3.074-5.781,6.558-6.378c3.396-0.582,6.677,0.163,9.924,0.984c3.942,1.003,7.826,2.24,11.788,3.13
		c2.169,0.479,4.458,0.574,6.691,0.608c1.209,0.017,2.427-0.468,3.97-0.804c-1.591-1.635-3.321-1.8-5.021-2.057
		c-1.515-0.229-3.077-0.343-4.513-0.813c-0.655-0.214-1.423-1.121-1.531-1.813c-0.659-4.212,0.356-8.07,3.174-11.294
		c2.006-2.295,4.598-2.881,7.524-1.955c0.862,0.282,1.243,0.684,1.159,1.659c-0.243,2.699-0.396,5.408-0.568,8.12
		c-0.043,0.768-0.048,1.55-0.013,2.321c0.238,4.96,2.308,7.478,7.093,8.607c1.665,0.396,3.376,2.452,3.269,4.17
		c-0.753,11.557-1.378,23.114-2.373,34.642c-1.199,13.923-2.233,27.843-1.219,41.805c0.537,7.34-2.015,13.513-6.725,18.854
		c-3.003,3.403-6.303,6.524-9.493,9.742c-3.41,3.435-6.424,7.146-8.583,11.535c-1.095,2.216-1.371,4.391-0.612,6.74
		c0.657,2.043,1.305,4.104,1.819,6.192c0.472,1.893,0.189,3.739-0.998,5.835c-0.648-1.007-1.356-1.773-1.68-2.682
		c-0.547-1.545-1.101-3.164-1.217-4.785c-0.496-7.34-0.854-14.688-1.24-22.044c-0.032-0.701,0.065-1.419,0.102-2.149
		c2.94-0.261,3.134,3.936,6.266,3.66c-1.229-5.135-2.14-10.206-3.741-15.037c-0.803-2.395-2.811-4.408-4.415-6.478
		c-0.759-0.989-1.791-1.807-2.823-2.524c-5.467-3.789-6.974-9.165-5.867-15.436c0.696-3.919,1.698-7.794,2.718-11.646
		c1.575-5.992,3.542-11.898,3.563-18.059C237.604,263.121,239.352,262.729,241.059,262.203z M101.884,62.657
		c2.4,0.153,4.789,0.585,7.19,0.741c1.18,0.081,2.426-0.063,3.562-0.367c0.566-0.146,1.385-0.892,1.376-1.341
		c-0.023-0.695-0.532-1.497-1.071-2.019c-0.473-0.462-1.257-0.605-1.907-0.891c0.53-4.408,4.813-6.836,9.316-5.05
		c-1.953,5.275,2.957,8.426,4.078,12.796c-5.608,4.686-20.64,3.642-27.089-1.886C98.494,62.947,100.146,62.547,101.884,62.657z
		 M157.479,234.046c-0.882,0.832-2.053,1.422-2.742,2.379c-1.223,1.699-2.565,1.596-4.11,0.755
		c-2.164-1.184-4.313-2.389-6.455-3.615c-1.707-0.974-3.38-1.993-4.696-2.768c0.827-2.737,1.589-5.292,2.434-8.094
		c6.087,3.412,12.808,4.173,18.632,8.187C159.379,232.089,158.475,233.114,157.479,234.046z M160.378,297.452
		c3.739,2.699,7.488,5.367,11.219,8.075c2.841,2.056,3.394,4.08,2.093,7.742c-0.845-0.509-1.73-0.909-2.466-1.502
		c-7.721-6.241-15.436-12.498-23.129-18.775c-1.028-0.847-0.677-2.319,0.855-3.821C152.747,291.924,156.561,294.695,160.378,297.452
		z M162.85,322.816c-4.83-3.617-9.687-7.202-14.411-10.95c-1.6-1.268-2.987-2.887-4.164-4.562c-0.407-0.575,0.109-1.804,0.206-2.732
		c0.895,0.17,1.993,0.061,2.649,0.556c3.819,2.856,7.501,5.89,11.277,8.797c3.395,2.606,6.969,4.99,10.241,7.743
		c1.67,1.413,2.953,3.341,4.188,5.189c0.469,0.71,0.323,1.848,0.453,2.788c-0.213,0.116-0.423,0.234-0.632,0.355
		C169.385,327.605,166.099,325.241,162.85,322.816z M167.572,284.767c3.278,2.309,5.639,5.4,5.894,9.694
		c0.02,0.313-0.03,0.635-0.039,0.943c-0.181,0.013-0.321,0.073-0.377,0.024c-6.522-5.204-13.073-10.386-19.547-15.654
		c-2.23-1.808-2.159-2.028-0.732-4.802C157.713,278.223,162.731,281.357,167.572,284.767z M83.647,110.311
		c-0.064-0.861-0.13-1.734-0.218-2.602c-0.32-3.273,2.246-5.622,5.397-4.787c1.423,0.37,2.732,1.119,4.103,1.669
		c2.007,0.808,4.024,1.597,5.96,2.362C95.875,110.376,88.384,112.107,83.647,110.311z M215.938,269.261
		c0.623,0.109,1.275,0.138,1.862,0.349c3.921,1.403,7.842,2.792,11.711,4.324c0.573,0.23,1.235,1.229,1.194,1.821
		c-0.164,2.104-0.621,4.182-1.003,6.516C222.821,279.969,220.077,273.927,215.938,269.261z M155.129,304.354
		c-2.489-2.074-4.976-4.144-7.413-6.274c-0.345-0.309-0.388-0.975-0.341-1.637c8.705,5.665,16.236,12.673,23.979,19.408
		C165.497,312.65,160.231,308.609,155.129,304.354z M169.388,278.777c-3.401,0.363-12.895-6.818-14.189-10.744
		C160.867,270.448,164.975,274.761,169.388,278.777z M171.398,332.876c-5.451-2.628-9.896-6.635-14.323-10.674
		C162.781,324.484,167.144,328.605,171.398,332.876z M200.444,62.976c-0.132,0.061-0.266,0.114-0.398,0.174
		c-1.93-4.712-3.853-9.417-5.783-14.126c0.146-0.068,0.301-0.129,0.443-0.193C198.944,52.554,199.763,57.735,200.444,62.976z
		 M158.459,287.405c2.744,0.679,9.288,6.005,10.95,8.937C165.733,293.508,161.282,291.639,158.459,287.405z M147.317,314.771
		c3.553-0.088,5.271,2.723,7.469,4.771C151.185,319.652,149.371,317.029,147.317,314.771z M152.66,260.107
		c-0.831-1.357,0.291-4.826,2.449-7.574C156.31,254.305,155.168,257.82,152.66,260.107z M97.59,67.742
		c0.248,0.22,0.227,0.991,0.038,1.36c-0.114,0.231-0.786,0.288-1.186,0.244c-1.939-0.196-2.743-1.508-1.898-3.885
		C95.692,66.295,96.71,66.938,97.59,67.742z M150.599,256.342c-0.232,0.455-1.01,0.63-1.551,0.93
		c-0.175-0.564-0.602-1.192-0.48-1.686c0.352-1.447,1.311-2.335,3.069-2.487C151.276,254.306,151.081,255.404,150.599,256.342z
		 M165.376,270.808c-1.636,0.453-2.587-0.269-4.535-3.166c0.114-0.153,0.229-0.3,0.343-0.455
		C162.548,268.366,163.906,269.541,165.376,270.808z"/>
	<path fill-rule="evenodd" clip-rule="evenodd" fill="#4D758C" d="M256.863,347.181c-3.676,0.004-4.64-1.169-4.019-4.779
		c0.203-1.194,0.815-2.319,1.272-3.559C258.519,340.771,256.248,344.299,256.863,347.181z"/>
	<path fill-rule="evenodd" clip-rule="evenodd" fill="#4D758C" d="M97.34,64.64c1.153-1.693,2.805-2.093,4.544-1.983
		c2.4,0.153,4.789,0.585,7.19,0.741c1.18,0.081,2.426-0.063,3.562-0.367c0.566-0.146,1.385-0.892,1.376-1.341
		c-0.023-0.695-0.532-1.497-1.071-2.019c-0.473-0.462-1.257-0.605-1.907-0.886c0.53-4.414,4.813-6.842,9.316-5.056
		c-1.953,5.275,2.957,8.426,4.078,12.796C118.821,71.212,103.79,70.167,97.34,64.64z"/>
	<path fill-rule="evenodd" clip-rule="evenodd" fill="#4D758C" d="M98.89,106.954c-3.016,3.422-10.506,5.153-15.243,3.357
		c-0.064-0.861-0.13-1.734-0.218-2.602c-0.32-3.273,2.246-5.622,5.397-4.787c1.423,0.37,2.732,1.119,4.103,1.669
		C94.937,105.4,96.955,106.189,98.89,106.954z"/>
	<path fill-rule="evenodd" clip-rule="evenodd" fill="#4D758C" d="M194.706,48.83c4.238,3.724,5.057,8.905,5.738,14.146
		c-0.132,0.061-0.266,0.114-0.398,0.174c-1.93-4.712-3.853-9.417-5.783-14.126C194.409,48.955,194.563,48.894,194.706,48.83z"/>
	<path fill-rule="evenodd" clip-rule="evenodd" fill="#4D758C" d="M94.544,65.461c1.148,0.834,2.166,1.478,3.046,2.281
		c0.248,0.22,0.227,0.991,0.038,1.36c-0.114,0.231-0.786,0.288-1.186,0.244C94.503,69.149,93.7,67.837,94.544,65.461z"/>
	<path fill-rule="evenodd" clip-rule="evenodd" fill="#4D758C" d="M157.568,190.673c6.679,4.222,14.067,5.355,21.795,4.968
		c0.612-0.026,1.345-0.529,1.77-1.028c3.721-4.37,7.383-8.788,11.289-13.453c-15.521-2.957-30.736-5.052-45.931,1.098
		c0.15,0.473,0.173,0.694,0.279,0.873c0.896,1.498,2.107,2.635,3.955,2.513c1.739-0.123,1.167-1.86,1.734-2.814
		c0.273-0.457,0.871-0.941,1.364-0.999c2.624-0.303,5.255-0.43,7.877-0.695c5.979-0.606,11.952-0.824,17.923-0.076
		c2.264,0.29,4.401,0.961,6.022,2.734c0.729,0.798,0.877,1.558-0.209,2.129c-1.11,0.587-2.231,1.432-3.406,1.549
		c-2.605,0.266-5.259,0.308-7.863,0.132c-4.317-0.297-8.611-0.964-12.933-1.229c-2.207-0.13-4.348,0.542-6.18,2.41
		C155.997,189.502,156.741,190.151,157.568,190.673z M159.927,189.731c0.061-0.216,0.121-0.439,0.179-0.652
		c0.903,0.137,1.885,0.12,2.687,0.497c0.316,0.151,0.229,1.169,0.325,1.793c-0.16,0.081-0.328,0.159-0.493,0.236
		C161.725,190.986,160.83,190.354,159.927,189.731z"/>
	<path fill-rule="evenodd" clip-rule="evenodd" fill="#4D758C" d="M122.342,124.004c1.667-1.956,3.196-4.057,5.041-5.836
		c2.53-2.456,5.303-4.674,7.986-6.98c0.275-0.233,0.659-0.491,0.995-0.501c5.596-0.095,11.206-0.373,16.787-0.138
		c2.382,0.102,4.845,1.007,7.029,2.043c2.829,1.346,4.089,3.991,4.414,7.61c-2.688-0.245-5.269-0.237-7.729-0.765
		c-4.619-0.97-9.275-1.96-13.723-3.491c-4.789-1.651-8.66-0.507-12.329,2.617c-1.764,1.512-3.604,2.931-5.453,4.338
		c-0.778,0.59-1.653,1.058-2.482,1.58C122.699,124.325,122.521,124.167,122.342,124.004z"/>
	<path fill-rule="evenodd" clip-rule="evenodd" fill="#4D758C" d="M137.255,123.622c3.837-1.059,7.647-2.246,11.523-3.126
		c2.235-0.507,4.499-0.093,6.428,1.318c0.563,0.409,1.041,0.944,1.514,1.618c-5.185-1.617-10.275-2.539-15.399,0.923
		c2.633-0.059,4.969-0.2,7.301-0.146c2.828,0.063,5.57,0.637,7.999,2.18c1.809,1.151,2.926,2.769,3.18,5.05
		c-1.623,0.368-2.714-0.572-3.921-1.288c-1.721-1.024-3.479-2.025-5.308-2.818c-1.446-0.625-2.577-0.091-2.921,1.615
		c-0.266,1.307-0.964,1.749-2.348,1.601c-2.727-0.281-5.49-0.216-8.209-0.534c-1.507-0.178-2.96-0.839-4.435-1.284
		c0.003-0.187,0.003-0.374,0.007-0.559c2.491-0.788,4.981-1.572,7.471-2.36c-0.021-0.211-0.034-0.427-0.048-0.643
		c-0.923-0.278-1.85-0.556-2.771-0.834C137.294,124.097,137.28,123.858,137.255,123.622z"/>
	<path fill-rule="evenodd" clip-rule="evenodd" fill="#4D758C" d="M76.236,120.638c2.966,0.686,5.274,2.211,6.848,4.48
		c2.371,3.431,4.465,7.081,6.597,10.677c0.227,0.37,0.161,1.185-0.111,1.53c-0.691,0.901-1.478,1.788-2.393,2.435
		c-2.162,1.535-2.61,2.726-1.557,5.204c0.432,1.014,1.126,1.922,1.475,2.963c0.416,1.243,0.584,2.566,0.862,3.862
		c-0.268,0.125-0.523,0.251-0.796,0.376c-0.993-1.309-2.2-2.501-2.935-3.951c-1.22-2.4-2.162-4.951-3.143-7.477
		c-0.161-0.433-0.084-1.111,0.148-1.533c0.803-1.518,1.794-2.929,2.557-4.459c0.352-0.72,0.679-1.762,0.416-2.404
		c-0.637-1.561-1.52-3.045-2.512-4.404c-1.079-1.457-2.473-2.667-3.585-4.099C77.361,122.868,76.857,121.711,76.236,120.638z"/>
	<path fill-rule="evenodd" clip-rule="evenodd" fill="#4D758C" d="M140.308,209.18c-4.217-3.794-6.799-8.529-8.424-13.816
		c-2.378-7.736-2.867-15.725-2.901-23.765c-0.005-0.156,0.07-0.311,0.264-1.083c0.654,0.849,1.375,1.354,1.43,1.927
		c1.236,12.265,4.817,23.898,9.135,35.333C139.99,208.235,140.14,208.71,140.308,209.18z"/>
	<path fill-rule="evenodd" clip-rule="evenodd" fill="#4D758C" d="M140.927,167.299c3.239-1.967,6.285-3.708,9.218-5.62
		c2.893-1.886,5.673-3.942,8.66-6.045c0.832,0.398,1.128,1.184,0.186,2.145c-2.046,2.081-4.044,4.226-6.235,6.128
		c-2.644,2.29-5.438,4.424-6.756,7.813c-0.75,1.938-1.227,3.985-1.882,6.177c-1.091-0.066-1.762-0.927-1.585-2.344
		c0.178-1.366,0.596-2.701,0.846-4.057C143.831,169.125,143.488,168.483,140.927,167.299z"/>
	<path fill-rule="evenodd" clip-rule="evenodd" fill="#4D758C" d="M202.951,136.136c-1.073-0.76-1.957-1.259-2.682-1.92
		c-1.02-0.93-1.785-1.406-2.93,0.008c-1.405,1.735-3.441,1.791-5.466,1.332c-2.757-0.628-5.506-1.289-8.411-1.971
		c0.737-0.591,1.512-1.445,2.473-1.941c4.19-2.172,8.607-2.62,13.12-1.342C201.983,131.125,203.201,132.854,202.951,136.136z"/>
	<path fill-rule="evenodd" clip-rule="evenodd" fill="#4D758C" d="M180.928,201.222c-7.223,6.035-17.826,2.263-21.182-3.145
		c1.578,0.292,2.893,0.432,4.155,0.788c2.951,0.829,5.861,1.826,8.823,2.627c2.227,0.602,4.444,0.473,6.598-0.536
		C179.644,200.806,180.154,201.081,180.928,201.222z"/>
	<path fill-rule="evenodd" clip-rule="evenodd" fill="#4D758C" d="M74.44,130.928c0.444,0.137,0.895,0.271,1.542,0.463
		c-3.044,8.542-0.898,15.646,6.008,21.384c-0.125,0.164-0.253,0.318-0.374,0.474c-1.303-0.541-2.785-0.845-3.844-1.683
		c-1.252-0.983-2.419-2.295-3.155-3.708C72.228,143.291,72.229,135.294,74.44,130.928z"/>
	<path fill-rule="evenodd" clip-rule="evenodd" fill="#4D758C" d="M195.656,176.481c-3.168-3.525-5.641-7.176-4.73-12.388
		c3.089,1.08,4.919,3.25,5.968,6.151C197.773,172.685,197.352,174.737,195.656,176.481z"/>
	<path fill-rule="evenodd" clip-rule="evenodd" fill="#4D758C" d="M157.368,135.368c-2.007,5.463-13.411,5.226-16.412,0.561
		C146.498,136.457,151.906,137.574,157.368,135.368z"/>
	<path fill-rule="evenodd" clip-rule="evenodd" fill="#4D758C" d="M185.752,140.468c4.692-1.164,9.161,1.595,13.796,0.112
		C197.85,144.391,189.46,144.282,185.752,140.468z"/>
	<path fill-rule="evenodd" clip-rule="evenodd" fill="#4D758C" d="M186.205,129.299c5.483-4.623,12.068-5.11,15.982-1.12
		c-0.704,1.095-1.804,0.929-2.597,0.487c-3.737-2.098-7.256-1.933-10.769,0.604c-0.651,0.463-1.694,0.379-2.555,0.539
		C186.252,129.641,186.23,129.469,186.205,129.299z"/>
	<path fill-rule="evenodd" clip-rule="evenodd" fill="#4D758C" d="M141.206,96.822c-3.232,3.091-7.254,2.982-11.031,3.75
		C131.291,97.779,136.353,96.012,141.206,96.822z"/>
	<path fill-rule="evenodd" clip-rule="evenodd" fill="#4D758C" d="M173.313,156.866c-2.455,1.09-6.063-0.141-8.721-3.002
		c1.064-0.307,1.955-0.862,2.752-0.753C169.799,153.453,171.814,154.653,173.313,156.866z"/>
	<path fill-rule="evenodd" clip-rule="evenodd" fill="#4D758C" d="M166.338,134.063c-3.122-1.788-2.581-5.285-4.005-7.809
		C165.57,125.529,167.695,129.653,166.338,134.063z"/>
	<path fill-rule="evenodd" clip-rule="evenodd" fill="#4D758C" d="M166.808,57.917c3.897,1.614,6.169,5.275,5.216,7.853
		C168.918,63.84,167.06,61.08,166.808,57.917z"/>
	<path fill-rule="evenodd" clip-rule="evenodd" fill="#4D758C" d="M97.394,114.789c1.298-0.378,2.589-0.831,3.906-1.111
		c2.043-0.438,4.103-0.826,6.169-1.088c0.436-0.054,0.957,0.521,1.439,0.802c-0.355,0.392-0.669,1.085-1.05,1.126
		c-3.455,0.379-6.912,0.645-10.372,0.942C97.453,115.24,97.426,115.015,97.394,114.789z"/>
	<path fill-rule="evenodd" clip-rule="evenodd" fill="#4D758C" d="M98.172,118.654c-1.718,2.323-6.042,2.017-9.533-0.557
		C92.003,116.642,94.919,118.35,98.172,118.654z"/>
	<path fill-rule="evenodd" clip-rule="evenodd" fill="#4D758C" d="M242.947,313.755c2.34,1.006,4.563,1.938,6.762,2.92
		c1.143,0.511,1.675,1.26,1.509,2.726c-0.164,1.384,0.263,2.834,0.454,4.248c0.188,1.403,0.403,2.805,0.632,4.396
		c-1.982-0.239-3.117-1.196-3.929-2.56c-0.385-0.65-0.737-1.411-0.803-2.152c-0.265-2.837-1.125-5.17-3.877-6.553
		C242.692,316.285,242.324,315.096,242.947,313.755z"/>
	<path fill-rule="evenodd" clip-rule="evenodd" fill="#4D758C" d="M250.65,234.925c3.229,1.964,2.873,4.994,2.858,7.969
		C250.943,242.284,249.902,239.432,250.65,234.925z"/>
	<path fill-rule="evenodd" clip-rule="evenodd" fill="#4D758C" d="M250.597,230.433c-0.88-0.527-2.442-0.688-2.264-2.325
		c0.117-1.11,1.904-1.714,3.312-1.33c1.434,0.392,2.571,1.705,2.175,2.612C253.198,230.808,251.996,230.761,250.597,230.433z"/>
</g>
</svg>
