<?xml version="1.0" encoding="utf-8"?>
<!DOCTYPE svg PUBLIC "-//W3C//DTD SVG 1.1//EN" "http://www.w3.org/Graphics/SVG/1.1/DTD/svg11.dtd">
<svg version="1.1" id="CzoLogo" xmlns="http://www.w3.org/2000/svg" xmlns:xlink="http://www.w3.org/1999/xlink" x="0px" y="0px"
	 width="300px" height="400px" viewBox="0 0 300 400" enable-background="new 0 0 300 400" xml:space="preserve">
<g>
	<g>
		<rect x="20.161" y="163.063" width="58.131" height="4.392"/>
		<path d="M121.9,167.455H78.292v-4.392H121.9V167.455z M79.478,166.269h41.234v-2.017H79.478V166.269z"/>
		<rect x="121.9" y="163.063" width="58.127" height="4.392"/>
		<path d="M223.64,167.455h-43.612v-4.392h43.612V167.455z M181.212,166.269h41.24v-2.017h-41.24V166.269z"/>
		<rect x="223.64" y="163.063" width="58.127" height="4.392"/>
		<rect x="77.682" y="156.226" width="1.218" height="6.837"/>
		<rect x="121.294" y="167.455" width="1.216" height="6.841"/>
		<rect x="179.42" y="156.226" width="1.217" height="6.837"/>
		<rect x="223.023" y="167.455" width="1.224" height="6.841"/>
	</g>
	<g>
		<path d="M95.854,183.494v-2.103h13.443v2.103h-0.851c-1.486,0-2.437,0.159-2.854,0.476c-0.417,0.318-0.626,1.204-0.626,2.658
			v24.172c0,1.438,0.2,2.365,0.601,2.783c0.4,0.418,1.185,0.627,2.353,0.627h1.377l3.079,8.536l-2.203,0.826
			c-0.718-2.11-1.702-3.718-2.954-4.823c-1.251-1.105-2.395-1.787-3.43-2.047s-2.879-0.39-5.532-0.39H73.674v-2.103h1.202
			c1.252,0,2.074-0.217,2.466-0.652c0.392-0.434,0.588-1.354,0.588-2.758v-23.897c0-1.588-0.18-2.553-0.538-2.896
			c-0.359-0.343-1.339-0.514-2.941-0.514h-0.776v-2.103h13.343v2.103h-0.977c-1.235,0-2.053,0.079-2.453,0.238
			c-0.4,0.159-0.655,0.401-0.764,0.728c-0.109,0.326-0.163,1.241-0.163,2.746v23.596c0,1.171,0.058,1.886,0.175,2.145
			c0.117,0.26,0.346,0.439,0.688,0.539c0.342,0.101,1.18,0.15,2.516,0.15h10.865c1.302,0,2.124-0.046,2.466-0.138
			s0.572-0.268,0.688-0.526s0.175-0.982,0.175-2.17v-23.897c0-1.571-0.18-2.532-0.538-2.883c-0.359-0.351-1.339-0.526-2.941-0.526
			H95.854z"/>
		<path d="M135.033,209.854l1.602,1.302c-1.218,1.452-2.399,2.604-3.542,3.455s-2.224,1.447-3.242,1.789
			c-1.018,0.343-2.211,0.514-3.58,0.514c-2.453,0-4.54-0.5-6.258-1.502c-1.97-1.151-3.48-2.653-4.531-4.506
			s-1.577-4.039-1.577-6.559c0-2.637,0.509-4.89,1.527-6.76c1.018-1.869,2.44-3.342,4.268-4.418
			c1.828-1.076,3.943-1.615,6.346-1.615c1.786,0,3.338,0.279,4.656,0.837s2.437,1.399,3.354,2.522
			c0.918,1.124,1.585,2.41,2.003,3.858c0.233,0.849,0.367,1.948,0.4,3.297H118.76c-0.05,0.819-0.075,1.43-0.075,1.831
			c0,2.107,0.367,3.984,1.102,5.632c0.734,1.647,1.706,2.859,2.916,3.638c1.21,0.777,2.583,1.166,4.118,1.166
			c1.302,0,2.562-0.305,3.78-0.914S133.297,211.624,135.033,209.854z M131.828,199.741c-0.25-1.536-0.605-2.67-1.064-3.405
			s-1.11-1.318-1.953-1.752c-0.843-0.434-1.79-0.651-2.841-0.651s-2.036,0.217-2.954,0.651c-0.918,0.434-1.682,1.035-2.291,1.802
			c-0.609,0.768-1.139,1.886-1.589,3.355H131.828z"/>
		<path d="M152.731,214.211v2.103h-12.542v-2.103h0.626c1.135,0,1.928-0.101,2.378-0.301c0.451-0.201,0.747-0.493,0.889-0.878
			c0.142-0.384,0.212-1.378,0.212-2.982v-11.63c0-1.554-0.063-2.523-0.188-2.908c-0.125-0.384-0.413-0.689-0.864-0.915
			c-0.451-0.225-1.26-0.338-2.428-0.338h-0.626v-2.103h12.542v2.103h-0.65c-1.186,0-1.975,0.092-2.366,0.275
			c-0.393,0.184-0.68,0.513-0.864,0.989c-0.184,0.476-0.275,1.331-0.275,2.566v4.757h13.042v-4.757c0-1.803-0.263-2.892-0.788-3.267
			s-1.448-0.563-2.767-0.563h-0.65v-2.103h12.566v2.103h-0.876c-1.385,0-2.277,0.218-2.679,0.652
			c-0.4,0.435-0.601,1.421-0.601,2.958v12.759c0,1.537,0.2,2.519,0.601,2.944c0.401,0.427,1.294,0.64,2.679,0.64h0.876v2.103
			h-12.566v-2.103h0.65c1.318,0,2.241-0.184,2.767-0.553c0.525-0.368,0.788-1.455,0.788-3.263v-5.423h-13.042v5.423
			c0,1.204,0.088,2.05,0.263,2.534c0.175,0.486,0.463,0.82,0.863,1.005s1.193,0.276,2.379,0.276H152.731z"/>
		<path d="M183.147,194.659h-1.401c-2.12,0-3.772,0.459-4.957,1.377s-2.253,2.42-3.204,4.506l-2.178-1.026l3.905-8.562h1.728
			l0.175,1.202h16.172l0.2-1.202h1.728l3.905,8.562l-2.178,1.026c-1.035-2.203-2.145-3.734-3.33-4.594
			c-1.185-0.859-2.795-1.289-4.831-1.289h-1.402v15.39c0,1.572,0.066,2.549,0.2,2.934s0.426,0.686,0.877,0.902
			c0.45,0.217,1.302,0.326,2.553,0.326h0.626v2.103h-12.842v-2.103h0.625c1.219,0,2.049-0.096,2.491-0.289
			c0.442-0.191,0.742-0.488,0.901-0.89c0.158-0.401,0.237-1.396,0.237-2.983V194.659z"/>
		<path d="M200.497,195.735v-2.078c1.251,0,2.361-0.156,3.329-0.47s2.027-0.858,3.18-1.633h1.978v4.181
			c2.086-1.652,3.821-2.762,5.207-3.329c1.385-0.567,2.771-0.852,4.155-0.852c2.854,0,5.286,1.119,7.298,3.354
			c2.011,2.237,3.017,5.149,3.017,8.737c0,3.973-1.144,7.227-3.43,9.764c-2.087,2.336-4.773,3.504-8.062,3.504
			c-1.636,0-3.171-0.309-4.605-0.926c-1.035-0.434-2.229-1.21-3.58-2.328v8.236c0,1.234,0.033,1.961,0.1,2.178
			c0.084,0.316,0.251,0.584,0.501,0.801s0.567,0.359,0.951,0.426c0.284,0.05,1.235,0.075,2.854,0.075v2.103h-12.893v-2.103h1.126
			c1.151,0,1.898-0.088,2.241-0.263c0.342-0.176,0.596-0.447,0.763-0.814c0.101-0.283,0.15-1.15,0.15-2.604v-25.96H200.497z
			 M208.983,198.314v8.612c0,1.135,0.066,1.978,0.2,2.528c0.199,0.851,0.587,1.619,1.162,2.304c0.574,0.684,1.357,1.268,2.349,1.752
			s2.028,0.727,3.112,0.727c2.165,0,4.044-0.818,5.635-2.454c1.592-1.636,2.387-4.114,2.387-7.435c0-3.104-0.658-5.503-1.975-7.198
			c-1.316-1.694-2.873-2.541-4.673-2.541c-1.166,0-2.433,0.309-3.799,0.926C212.016,196.153,210.55,197.079,208.983,198.314z"/>
	</g>
	<g>
		<path d="M16.313,257.266l3.605-7.861h1.752l0.725,1.492c1.416-0.66,3.082-0.99,4.999-0.99c2.682,0,4.793,0.527,6.334,1.586
			c1.542,1.057,2.312,2.502,2.312,4.334c0,2.898-1.886,4.973-5.658,6.221c4.589,0.617,6.884,2.662,6.884,6.133
			c0,2.137-0.901,3.869-2.704,5.195c-1.803,1.326-4.223,1.99-7.26,1.99c-4.64,0-8.554-2.119-11.741-6.359l1.602-1.301
			c2.754,3.404,5.908,5.105,9.463,5.105c2.086,0,3.618-0.486,4.594-1.463c0.977-0.977,1.465-2.182,1.465-3.617
			c0-1.135-0.526-2.141-1.577-3.018c-1.052-0.877-3.238-1.314-6.559-1.314h-1.352v-2.104h1.352c4.756,0,7.135-1.676,7.135-5.031
			c0-1.402-0.48-2.436-1.439-3.104c-0.96-0.668-2.19-1.002-3.692-1.002c-1.586,0-3.038,0.416-4.356,1.244
			c-1.319,0.83-2.554,2.451-3.705,4.865L16.313,257.266z"/>
		<path d="M62.225,268.305l1.602,1.303c-1.218,1.451-2.399,2.604-3.542,3.455c-1.143,0.85-2.224,1.447-3.242,1.789
			c-1.018,0.342-2.211,0.514-3.58,0.514c-2.453,0-4.54-0.5-6.258-1.502c-1.97-1.152-3.48-2.654-4.531-4.506
			c-1.051-1.854-1.577-4.039-1.577-6.559c0-2.639,0.509-4.891,1.527-6.76c1.018-1.869,2.44-3.342,4.268-4.418
			c1.828-1.078,3.943-1.615,6.346-1.615c1.786,0,3.338,0.279,4.656,0.836c1.318,0.559,2.437,1.398,3.354,2.523
			c0.918,1.123,1.585,2.41,2.003,3.857c0.233,0.85,0.367,1.949,0.4,3.297H45.953c-0.05,0.82-0.075,1.43-0.075,1.832
			c0,2.107,0.367,3.984,1.102,5.631c0.734,1.648,1.706,2.859,2.916,3.637c1.21,0.779,2.583,1.168,4.118,1.168
			c1.302,0,2.562-0.305,3.78-0.914S60.489,270.074,62.225,268.305z M59.021,258.191c-0.25-1.535-0.605-2.67-1.064-3.404
			s-1.11-1.318-1.953-1.752s-1.79-0.652-2.841-0.652s-2.036,0.219-2.954,0.652s-1.682,1.035-2.291,1.803
			c-0.609,0.768-1.139,1.885-1.589,3.354H59.021z"/>
		<path d="M67.307,274.764v-2.102h0.626c1.135,0,1.928-0.102,2.378-0.301c0.451-0.201,0.747-0.494,0.889-0.879
			c0.142-0.383,0.213-1.377,0.213-2.982v-11.631c0-1.553-0.063-2.521-0.188-2.906s-0.413-0.689-0.864-0.916
			c-0.451-0.225-1.26-0.338-2.428-0.338h-0.626v-2.104h9.485l7.776,18.451l7.542-18.451h10.12v2.104h-0.851
			c-1.402,0-2.303,0.217-2.704,0.652c-0.4,0.434-0.601,1.42-0.601,2.957v12.758c0,1.555,0.204,2.541,0.613,2.959
			c0.409,0.418,1.306,0.627,2.691,0.627h0.851v2.102H89.687v-2.102h0.626c1.302,0,2.219-0.176,2.754-0.527
			c0.534-0.35,0.801-1.445,0.801-3.283V253.16l-9.021,21.604h-1.954l-8.776-20.678v14.766c0,1.203,0.083,2.047,0.25,2.531
			s0.451,0.818,0.852,1.002c0.4,0.186,1.201,0.277,2.403,0.277h0.651v2.102H67.307z"/>
		<path d="M127.338,268.305l1.602,1.303c-1.218,1.451-2.399,2.604-3.542,3.455c-1.143,0.85-2.224,1.447-3.242,1.789
			c-1.018,0.342-2.211,0.514-3.58,0.514c-2.453,0-4.54-0.5-6.258-1.502c-1.97-1.152-3.48-2.654-4.531-4.506
			c-1.051-1.854-1.577-4.039-1.577-6.559c0-2.639,0.509-4.891,1.527-6.76c1.018-1.869,2.44-3.342,4.268-4.418
			c1.828-1.078,3.943-1.615,6.346-1.615c1.786,0,3.338,0.279,4.656,0.836c1.318,0.559,2.437,1.398,3.354,2.523
			c0.918,1.123,1.585,2.41,2.003,3.857c0.233,0.85,0.367,1.949,0.4,3.297h-17.699c-0.05,0.82-0.075,1.43-0.075,1.832
			c0,2.107,0.367,3.984,1.102,5.631c0.734,1.648,1.706,2.859,2.916,3.637c1.21,0.779,2.583,1.168,4.118,1.168
			c1.302,0,2.562-0.305,3.78-0.914S125.603,270.074,127.338,268.305z M124.134,258.191c-0.25-1.535-0.605-2.67-1.064-3.404
			s-1.11-1.318-1.953-1.752s-1.79-0.652-2.841-0.652s-2.036,0.219-2.954,0.652s-1.682,1.035-2.291,1.803
			c-0.609,0.768-1.139,1.885-1.589,3.354H124.134z"/>
		<path d="M130.367,274.764v-2.102c1.068,0,1.844-0.213,2.328-0.641c0.484-0.426,1.018-1.332,1.603-2.719l8.019-18.697h3.018
			l8.038,19.123c0.384,0.918,0.83,1.637,1.34,2.156c0.509,0.518,1.298,0.777,2.365,0.777v2.102h-11.49v-2.102h0.701
			c1.084,0,1.819-0.088,2.203-0.264s0.577-0.531,0.577-1.066c0-0.418-0.185-1.094-0.551-2.029l-5.695-14.266l-5.545,14.266
			c-0.368,0.918-0.551,1.57-0.551,1.955c0,0.936,0.776,1.404,2.328,1.404h1.202v2.102H130.367z"/>
		<path d="M158.731,274.764v-2.102h0.626c1.218,0,2.053-0.096,2.503-0.289c0.451-0.191,0.751-0.488,0.901-0.891
			c0.15-0.4,0.226-1.395,0.226-2.982v-11.631c0-1.553-0.067-2.527-0.2-2.92c-0.134-0.393-0.426-0.697-0.876-0.914
			c-0.451-0.217-1.302-0.326-2.554-0.326h-0.626v-2.104H172.1v2.104h-0.651c-1.535,0-2.507,0.072-2.916,0.213
			c-0.409,0.143-0.722,0.451-0.938,0.926c-0.218,0.477-0.326,1.373-0.326,2.691v4.607h3.305c3.138,0,5.486,0.133,7.047,0.4
			c1.561,0.266,2.867,0.938,3.918,2.014c1.052,1.078,1.577,2.408,1.577,3.994c0,4.807-3.889,7.209-11.666,7.209H158.731z
			 M167.268,263.398v7.084c0,0.92,0.084,1.475,0.251,1.666c0.166,0.191,0.676,0.287,1.527,0.287h2.402
			c4.69,0,7.035-1.535,7.035-4.605c0-1.035-0.317-1.924-0.951-2.666c-0.635-0.742-1.402-1.223-2.304-1.439s-2.161-0.326-3.78-0.326
			H167.268z"/>
		<path d="M198.359,272.662v2.102h-12.542v-2.102h0.626c1.135,0,1.928-0.102,2.378-0.301c0.451-0.201,0.747-0.494,0.889-0.879
			c0.142-0.383,0.213-1.377,0.213-2.982v-11.631c0-1.553-0.063-2.521-0.188-2.906s-0.413-0.689-0.863-0.916
			c-0.451-0.225-1.261-0.338-2.429-0.338h-0.626v-2.104h12.542v2.104h-0.65c-1.186,0-1.975,0.092-2.366,0.275
			c-0.393,0.184-0.68,0.514-0.863,0.988c-0.185,0.477-0.275,1.332-0.275,2.566v4.756h13.042v-4.756c0-1.803-0.263-2.891-0.788-3.266
			c-0.525-0.377-1.448-0.564-2.767-0.564h-0.65v-2.104h12.566v2.104h-0.876c-1.385,0-2.277,0.217-2.679,0.652
			c-0.4,0.434-0.601,1.42-0.601,2.957v12.758c0,1.539,0.2,2.52,0.601,2.945c0.401,0.428,1.294,0.641,2.679,0.641h0.876v2.102
			h-12.566v-2.102h0.65c1.318,0,2.241-0.186,2.767-0.553c0.525-0.369,0.788-1.457,0.788-3.264v-5.422h-13.042v5.422
			c0,1.205,0.087,2.051,0.263,2.535c0.175,0.486,0.463,0.82,0.863,1.004c0.4,0.186,1.193,0.277,2.379,0.277H198.359z"/>
		<path d="M218.187,274.764v-2.102h0.626c1.218,0,2.053-0.096,2.503-0.289c0.451-0.191,0.751-0.488,0.901-0.891
			c0.15-0.4,0.226-1.395,0.226-2.982v-11.631c0-1.553-0.067-2.527-0.2-2.92c-0.134-0.393-0.426-0.697-0.876-0.914
			c-0.451-0.217-1.302-0.326-2.554-0.326h-0.626v-2.104h13.368v2.104h-0.651c-1.535,0-2.507,0.072-2.916,0.213
			c-0.409,0.143-0.722,0.451-0.938,0.926c-0.218,0.477-0.326,1.373-0.326,2.691v4.607h3.305c3.138,0,5.486,0.133,7.047,0.4
			c1.561,0.266,2.867,0.938,3.918,2.014c1.052,1.078,1.577,2.408,1.577,3.994c0,4.807-3.889,7.209-11.666,7.209H218.187z
			 M226.723,263.398v7.084c0,0.92,0.084,1.475,0.251,1.666c0.166,0.191,0.676,0.287,1.526,0.287h2.403
			c4.69,0,7.035-1.535,7.035-4.605c0-1.035-0.317-1.924-0.951-2.666c-0.635-0.742-1.402-1.223-2.304-1.439s-2.161-0.326-3.78-0.326
			H226.723z M257.114,272.662v2.102h-12.542v-2.102h0.626c1.135,0,1.923-0.102,2.365-0.301c0.442-0.201,0.739-0.498,0.889-0.891
			c0.15-0.393,0.226-1.383,0.226-2.971v-11.631c0-1.537-0.063-2.502-0.188-2.895s-0.413-0.701-0.864-0.928
			c-0.45-0.225-1.26-0.338-2.428-0.338h-0.626v-2.104h12.542v2.104h-0.65c-1.186,0-1.979,0.092-2.379,0.275s-0.688,0.514-0.863,0.99
			c-0.176,0.477-0.263,1.334-0.263,2.57v12.307c0,1.203,0.087,2.047,0.263,2.531c0.175,0.484,0.459,0.818,0.851,1.002
			c0.393,0.186,1.189,0.277,2.392,0.277H257.114z"/>
		<path d="M259.842,250.605h12.581v2.078h-0.873c-0.499,0-0.956,0.061-1.371,0.178c-0.251,0.066-0.455,0.197-0.613,0.391
			c-0.159,0.193-0.238,0.373-0.238,0.541c0,0.387,0.317,0.967,0.951,1.74l3.559,4.502l4.188-4.498
			c0.768-0.84,1.152-1.473,1.152-1.893c0-0.303-0.134-0.539-0.401-0.707c-0.267-0.168-0.842-0.254-1.725-0.254h-0.949v-2.078h10.678
			v2.078c-1.052,0.051-1.958,0.27-2.718,0.656c-0.759,0.387-1.656,1.117-2.691,2.191l-5.729,5.936l7.139,8.164l0.274,0.354
			c0.7,0.91,1.483,1.641,2.351,2.197c0.483,0.32,1.233,0.488,2.25,0.504v2.078h-12.281v-2.078h1.051c0.801,0,1.31-0.049,1.526-0.15
			c0.367-0.168,0.551-0.455,0.551-0.857c0-0.371-0.4-1.053-1.201-2.045l-4.563-5.59l-5.064,5.592l-0.499,0.602l-0.275,0.303
			c-0.417,0.455-0.626,0.859-0.626,1.213c0,0.32,0.129,0.557,0.389,0.707c0.258,0.152,0.837,0.227,1.734,0.227h0.998v2.078h-10.527
			v-2.078c0.817-0.016,1.459-0.104,1.926-0.266c0.467-0.158,0.918-0.408,1.352-0.744c0.75-0.607,1.292-1.088,1.625-1.443
			l7.356-7.529l-6.255-7.166c-0.784-0.891-1.406-1.518-1.864-1.881c-0.459-0.361-0.905-0.613-1.338-0.758
			c-0.434-0.143-1.042-0.215-1.826-0.215V250.605z"/>
	</g>
	<g>
		<path d="M19.092,308.447c2.454,0,4.577,0.51,6.371,1.527s3.208,2.502,4.243,4.455s1.552,4.182,1.552,6.684
			c0,2.504-0.53,4.732-1.589,6.686c-1.06,1.951-2.503,3.441-4.331,4.469c-1.828,1.025-4.01,1.539-6.546,1.539
			c-4.039,0-7.072-1.26-9.1-3.781c-2.027-2.52-3.042-5.482-3.042-8.887c0-2.486,0.526-4.693,1.577-6.621s2.524-3.422,4.418-4.48
			C14.54,308.977,16.689,308.447,19.092,308.447z M18.892,310.875c-1.903,0-3.513,0.752-4.832,2.254
			c-1.669,1.869-2.503,4.59-2.503,8.16c0,3.439,0.709,6.059,2.128,7.861c1.285,1.602,3.029,2.402,5.232,2.402
			c1.418,0,2.683-0.375,3.793-1.125c1.109-0.752,2.006-1.949,2.691-3.594c0.684-1.643,1.026-3.574,1.026-5.795
			c0-2.17-0.367-4.113-1.102-5.832c-0.567-1.369-1.423-2.434-2.566-3.193C21.617,311.256,20.327,310.875,18.892,310.875z"/>
		<path d="M44.727,311.551h-1.402c-2.12,0-3.772,0.459-4.957,1.377s-2.253,2.42-3.204,4.506l-2.178-1.025l3.906-8.563h1.727
			l0.175,1.201h16.172l0.2-1.201h1.728l3.905,8.563l-2.178,1.025c-1.035-2.203-2.145-3.734-3.33-4.594
			c-1.186-0.859-2.796-1.289-4.832-1.289h-1.402v15.391c0,1.57,0.066,2.549,0.2,2.934c0.133,0.385,0.425,0.686,0.876,0.902
			s1.302,0.326,2.554,0.326h0.625v2.102H40.471v-2.102h0.626c1.218,0,2.048-0.096,2.491-0.289c0.442-0.191,0.743-0.488,0.901-0.891
			c0.158-0.4,0.238-1.395,0.238-2.982V311.551z"/>
		<path d="M74.793,331.104v2.102H62.251v-2.102h0.626c1.135,0,1.928-0.102,2.378-0.301c0.451-0.201,0.747-0.494,0.889-0.879
			c0.142-0.383,0.212-1.377,0.212-2.982v-11.631c0-1.553-0.063-2.521-0.188-2.906c-0.125-0.385-0.413-0.689-0.864-0.916
			c-0.451-0.225-1.26-0.338-2.428-0.338h-0.626v-2.104h12.542v2.104h-0.651c-1.185,0-1.974,0.092-2.366,0.275
			s-0.68,0.514-0.864,0.988c-0.184,0.477-0.275,1.332-0.275,2.566v4.756H83.68v-4.756c0-1.803-0.263-2.891-0.789-3.266
			c-0.526-0.377-1.448-0.564-2.766-0.564h-0.651v-2.104h12.567v2.104h-0.876c-1.386,0-2.278,0.217-2.679,0.652
			c-0.401,0.434-0.601,1.42-0.601,2.957v12.758c0,1.539,0.2,2.52,0.601,2.945c0.4,0.428,1.293,0.641,2.679,0.641h0.876v2.102H79.475
			v-2.102h0.651c1.318,0,2.24-0.186,2.766-0.553c0.526-0.369,0.789-1.457,0.789-3.264v-5.422H70.637v5.422
			c0,1.205,0.088,2.051,0.263,2.535c0.175,0.486,0.463,0.82,0.864,1.004c0.4,0.186,1.193,0.277,2.378,0.277H74.793z"/>
		<path d="M108.289,308.447c2.454,0,4.577,0.51,6.371,1.527s3.208,2.502,4.243,4.455s1.552,4.182,1.552,6.684
			c0,2.504-0.53,4.732-1.589,6.686c-1.06,1.951-2.503,3.441-4.331,4.469c-1.828,1.025-4.01,1.539-6.546,1.539
			c-4.039,0-7.072-1.26-9.1-3.781c-2.027-2.52-3.042-5.482-3.042-8.887c0-2.486,0.526-4.693,1.577-6.621s2.524-3.422,4.418-4.48
			C103.736,308.977,105.885,308.447,108.289,308.447z M108.088,310.875c-1.903,0-3.513,0.752-4.832,2.254
			c-1.669,1.869-2.503,4.59-2.503,8.16c0,3.439,0.709,6.059,2.128,7.861c1.285,1.602,3.029,2.402,5.232,2.402
			c1.418,0,2.683-0.375,3.793-1.125c1.109-0.752,2.006-1.949,2.691-3.594c0.684-1.643,1.026-3.574,1.026-5.795
			c0-2.17-0.367-4.113-1.102-5.832c-0.567-1.369-1.423-2.434-2.566-3.193C110.813,311.256,109.523,310.875,108.088,310.875z"/>
		<path d="M156.329,311.15v-2.104h12.366v2.104h-0.851c-1.386,0-2.283,0.217-2.691,0.652c-0.409,0.434-0.613,1.42-0.613,2.957
			v12.758c0,1.539,0.204,2.52,0.613,2.945c0.408,0.428,1.306,0.641,2.691,0.641h0.851v2.102h-44.21v-2.102h0.626
			c1.135,0,1.928-0.102,2.378-0.301c0.451-0.201,0.747-0.494,0.889-0.879c0.142-0.383,0.213-1.377,0.213-2.982v-11.631
			c0-1.553-0.063-2.521-0.188-2.906s-0.413-0.689-0.864-0.916c-0.451-0.225-1.26-0.338-2.428-0.338h-0.626v-2.104h12.367v2.104
			h-0.651c-1.369,0-2.265,0.23-2.691,0.689s-0.638,1.506-0.638,3.141v13.844c0,0.902,0.091,1.449,0.275,1.641
			c0.183,0.191,0.734,0.287,1.652,0.287h7.761c0.901,0,1.443-0.1,1.627-0.301c0.184-0.199,0.275-0.742,0.275-1.627V314.98
			c0-1.568-0.221-2.6-0.663-3.092c-0.442-0.492-1.356-0.738-2.741-0.738h-0.626v-2.104h12.292v2.104h-0.65
			c-1.386,0-2.287,0.23-2.704,0.689s-0.625,1.506-0.625,3.141v13.844c0,0.902,0.091,1.449,0.276,1.641
			c0.183,0.191,0.726,0.287,1.627,0.287h7.785c0.918,0,1.465-0.1,1.64-0.301c0.175-0.199,0.263-0.742,0.263-1.627V314.98
			c0-1.568-0.222-2.6-0.663-3.092c-0.442-0.492-1.348-0.738-2.717-0.738H156.329z"/>
		<path d="M193.979,326.746l1.603,1.303c-1.219,1.451-2.399,2.604-3.542,3.455c-1.144,0.85-2.225,1.447-3.242,1.789
			c-1.019,0.342-2.212,0.514-3.58,0.514c-2.453,0-4.54-0.5-6.259-1.502c-1.969-1.152-3.479-2.654-4.53-4.506
			c-1.052-1.854-1.577-4.039-1.577-6.559c0-2.639,0.509-4.891,1.526-6.76c1.019-1.869,2.441-3.342,4.269-4.418
			c1.827-1.078,3.943-1.615,6.346-1.615c1.786,0,3.338,0.279,4.657,0.836c1.317,0.559,2.437,1.398,3.354,2.523
			c0.917,1.123,1.585,2.41,2.002,3.857c0.234,0.85,0.367,1.949,0.401,3.297h-17.699c-0.051,0.82-0.075,1.43-0.075,1.832
			c0,2.107,0.367,3.984,1.102,5.631c0.734,1.648,1.706,2.859,2.916,3.637c1.21,0.779,2.583,1.168,4.118,1.168
			c1.302,0,2.562-0.305,3.78-0.914C190.767,329.705,192.244,328.516,193.979,326.746z M190.775,316.633
			c-0.25-1.535-0.605-2.67-1.063-3.404c-0.46-0.734-1.11-1.318-1.953-1.752s-1.79-0.652-2.841-0.652
			c-1.052,0-2.037,0.219-2.954,0.652c-0.918,0.434-1.682,1.035-2.291,1.803s-1.139,1.885-1.59,3.354H190.775z"/>
		<path d="M211.679,331.104v2.102h-12.542v-2.102h0.626c1.135,0,1.928-0.102,2.378-0.301c0.451-0.201,0.747-0.494,0.889-0.879
			c0.142-0.383,0.213-1.377,0.213-2.982v-11.631c0-1.553-0.063-2.521-0.188-2.906s-0.413-0.689-0.863-0.916
			c-0.451-0.225-1.261-0.338-2.429-0.338h-0.626v-2.104h12.542v2.104h-0.65c-1.186,0-1.975,0.092-2.366,0.275
			c-0.393,0.184-0.68,0.514-0.863,0.988c-0.185,0.477-0.275,1.332-0.275,2.566v4.756h13.042v-4.756c0-1.803-0.263-2.891-0.788-3.266
			c-0.525-0.377-1.448-0.564-2.767-0.564h-0.65v-2.104h12.566v2.104h-0.876c-1.385,0-2.277,0.217-2.679,0.652
			c-0.4,0.434-0.601,1.42-0.601,2.957v12.758c0,1.539,0.2,2.52,0.601,2.945c0.401,0.428,1.294,0.641,2.679,0.641h0.876v2.102H216.36
			v-2.102h0.65c1.318,0,2.241-0.186,2.767-0.553c0.525-0.369,0.788-1.457,0.788-3.264v-5.422h-13.042v5.422
			c0,1.205,0.087,2.051,0.263,2.535c0.175,0.486,0.463,0.82,0.863,1.004c0.4,0.186,1.193,0.277,2.379,0.277H211.679z"/>
		<path d="M232.457,333.205v-2.102h0.626c1.135,0,1.928-0.102,2.378-0.301c0.451-0.201,0.747-0.494,0.889-0.879
			c0.142-0.383,0.213-1.377,0.213-2.982v-11.631c0-1.553-0.063-2.521-0.188-2.906s-0.413-0.689-0.863-0.916
			c-0.451-0.225-1.261-0.338-2.429-0.338h-0.626v-2.104h12.542v2.104h-0.65c-1.186,0-1.975,0.092-2.366,0.275
			c-0.393,0.184-0.676,0.514-0.851,0.99c-0.176,0.475-0.264,1.33-0.264,2.566v10.365l13.018-11.068c0-1.066-0.2-1.855-0.601-2.365
			s-1.385-0.764-2.954-0.764h-0.65v-2.104h12.566v2.104h-0.876c-1.385,0-2.277,0.217-2.679,0.652c-0.4,0.434-0.601,1.42-0.601,2.957
			v12.758c0,1.539,0.2,2.52,0.601,2.945c0.401,0.428,1.294,0.641,2.679,0.641h0.876v2.102h-12.566v-2.102h0.65
			c1.318,0,2.241-0.184,2.767-0.551s0.788-1.453,0.788-3.256v-10.043l-13.018,10.971c0.033,0.926,0.184,1.586,0.451,1.982
			c0.267,0.395,0.575,0.643,0.926,0.744s1.052,0.152,2.104,0.152h0.65v2.102H232.457z"/>
		<path d="M265.777,333.205v-2.102h0.626c1.135,0,1.928-0.102,2.378-0.301c0.451-0.201,0.747-0.494,0.889-0.879
			c0.142-0.383,0.213-1.377,0.213-2.982v-11.631c0-1.553-0.063-2.521-0.188-2.906s-0.413-0.689-0.863-0.916
			c-0.451-0.225-1.261-0.338-2.429-0.338h-0.626v-2.104h12.542v2.104h-0.65c-1.186,0-1.975,0.092-2.366,0.275
			c-0.393,0.184-0.676,0.514-0.851,0.99c-0.176,0.475-0.264,1.33-0.264,2.566v10.365l13.018-11.068c0-1.066-0.2-1.855-0.601-2.365
			s-1.385-0.764-2.954-0.764h-0.65v-2.104h12.566v2.104h-0.876c-1.385,0-2.277,0.217-2.679,0.652c-0.4,0.434-0.601,1.42-0.601,2.957
			v12.758c0,1.539,0.2,2.52,0.601,2.945c0.401,0.428,1.294,0.641,2.679,0.641h0.876v2.102h-12.566v-2.102h0.65
			c1.318,0,2.241-0.184,2.767-0.551s0.788-1.453,0.788-3.256v-10.043l-13.018,10.971c0.033,0.926,0.184,1.586,0.451,1.982
			c0.267,0.395,0.575,0.643,0.926,0.744s1.052,0.152,2.104,0.152h0.65v2.102H265.777z M280.623,306.193
			c-2.638,0-4.895-0.563-6.772-1.689c-1.877-1.127-2.816-2.316-2.816-3.566c0-0.635,0.222-1.127,0.664-1.479
			c0.441-0.35,0.93-0.525,1.464-0.525c0.868,0,1.644,0.66,2.328,1.979c0.584,1.15,1.265,2.016,2.041,2.59
			c0.775,0.576,1.806,0.865,3.092,0.865c1.268,0,2.29-0.289,3.066-0.865c0.775-0.574,1.464-1.439,2.065-2.59
			c0.667-1.318,1.443-1.979,2.328-1.979c0.517,0,1.001,0.172,1.451,0.514c0.451,0.342,0.677,0.848,0.677,1.514
			c0,1.219-0.936,2.396-2.804,3.531C285.537,305.627,283.276,306.193,280.623,306.193z"/>
	</g>
	<g>
		<path d="M78.213,61.495v-4.626h29.575v4.626h-1.873c-3.268,0-5.361,0.35-6.278,1.048c-0.918,0.699-1.377,2.648-1.377,5.847v53.179
			c0,3.163,0.44,5.205,1.322,6.124s2.606,1.378,5.177,1.378h3.029l6.774,18.781l-4.847,1.817c-1.579-4.643-3.745-8.18-6.499-10.61
			c-2.753-2.433-5.269-3.934-7.545-4.504c-2.277-0.572-6.333-0.857-12.171-0.857H29.417v-4.626h2.644
			c2.754,0,4.562-0.478,5.425-1.434c0.862-0.956,1.294-2.979,1.294-6.068V68.998c0-3.494-0.395-5.618-1.184-6.372
			c-0.79-0.754-2.947-1.131-6.472-1.131h-1.707v-4.626h29.355v4.626h-2.148c-2.718,0-4.516,0.175-5.397,0.524
			c-0.881,0.349-1.441,0.883-1.68,1.6c-0.239,0.718-0.358,2.731-0.358,6.041v51.911c0,2.575,0.128,4.147,0.385,4.717
			c0.256,0.571,0.762,0.966,1.515,1.187c0.752,0.221,2.597,0.331,5.535,0.331h23.902c2.864,0,4.672-0.101,5.425-0.303
			c0.752-0.202,1.257-0.589,1.515-1.158c0.256-0.57,0.385-2.161,0.385-4.773V68.998c0-3.457-0.395-5.571-1.184-6.344
			c-0.79-0.772-2.946-1.159-6.471-1.159H78.213z"/>
		<path d="M126.514,56.869h3.91l1.817,5.067c6.389-4.259,13.309-6.389,20.764-6.389c8.223,0,14.76,1.897,19.605,5.692
			c4.848,3.795,7.27,8.57,7.27,14.326c0,4.327-1.479,8.065-4.434,11.219c-2.955,3.153-6.912,5.298-11.867,6.434
			c6.975,1.102,11.941,3.406,14.896,6.912c2.955,3.506,4.434,7.5,4.434,11.979c0,6.609-2.965,12.081-8.895,16.412
			c-5.93,4.333-13.301,6.499-22.111,6.499c-7.858,0-14.77-1.946-20.736-5.838c-5.967-3.892-10.511-8.39-13.631-13.493l4.406-3.029
			c2.79,4.04,6.847,7.665,12.171,10.877c5.323,3.213,10.923,4.819,16.798,4.819c6.094,0,11.023-1.551,14.787-4.654
			c3.764-3.102,5.646-7.113,5.646-12.034c0-4.406-1.709-8.059-5.123-10.96c-3.414-2.9-9.803-4.351-19.166-4.351h-5.673V91.07h7.215
			c5.801,0,10.547-1.218,14.237-3.655s5.535-6.276,5.535-11.517c0-5.058-1.662-8.759-4.984-11.104
			c-3.324-2.346-7.354-3.519-12.09-3.519c-5.25,0-10.06,1.515-14.429,4.544c-4.37,3.029-8.39,8.839-12.062,17.431l-5.122-1.377
			L126.514,56.869z"/>
		<path d="M233.828,55.547c7.018,0,13.355,1.689,19.014,5.067c6.136,3.635,10.849,8.353,14.138,14.154
			c3.288,5.802,4.933,12.521,4.933,20.157c0,11.823-3.675,21.461-11.023,28.914c-7.349,7.454-16.718,11.18-28.107,11.18
			c-12.713,0-22.78-4.479-30.202-13.438c-6.063-7.306-9.094-16.045-9.094-26.216c0-7.563,1.708-14.347,5.125-20.35
			c3.417-6.003,8.267-10.748,14.551-14.237C219.443,57.292,226.333,55.547,233.828,55.547z M233.803,61.495
			c-5.74,0-10.671,1.313-14.791,3.938c-4.12,2.625-7.422,6.49-9.906,11.593c-2.483,5.104-3.724,11.4-3.724,18.891
			c0,7.16,1.223,13.228,3.669,18.202c2.446,4.976,5.73,8.785,9.851,11.428s8.756,3.965,13.907,3.965
			c5.113,0,9.639-1.294,13.576-3.883c3.936-2.588,7.192-6.664,9.768-12.227s3.863-11.74,3.863-18.533
			c0-6.902-1.288-13.218-3.863-18.946c-2.208-4.919-5.133-8.555-8.774-10.905C243.736,62.671,239.21,61.495,233.803,61.495z"/>
	</g>
	<path d="M247.734,33.115c-4.5,3.545-11.434,5.27-21.198,5.27c-9.53,0-19.95-1.707-27.563-2.949
		c-4.348-0.711-7.776-1.271-10.031-1.383c-1.168-0.06-2.364-0.057-3.557,0c-0.003-0.298-0.07-0.586-0.222-0.862
		c-1.204-2.214-6.34-1.58-9.478-0.964c-0.075-0.419-0.319-0.809-0.735-1.151c-3.581-2.897-13.322,1.52-21.082,7.618
		c2.229-3.946,5.03-6.018,7.732-8.033c1.026-0.755,1.995-1.475,2.918-2.285l0.33-0.284l-0.418-0.125
		c-3.721-1.165-7.635,0.332-10.063,2.42c-0.063-6.025-1.281-7.561-3.097-9.855l-0.12-0.147c-0.004-0.004-0.014-0.008-0.017-0.017
		c-0.012-0.011-0.013-0.018-0.02-0.023c-0.005-0.002-0.012-0.004-0.015-0.004c-0.015-0.012-0.033-0.015-0.046-0.026
		c-0.017-0.003-0.031-0.014-0.044-0.016c-0.015,0-0.034-0.001-0.048-0.001c-0.013,0-0.025,0.001-0.044,0.001
		c-0.017,0.001-0.027,0.012-0.044,0.016c-0.017,0.011-0.027,0.014-0.039,0.026c-0.009,0-0.019,0.002-0.02,0.004
		c-0.01,0.006-0.014,0.012-0.015,0.023c-0.014,0.008-0.021,0.012-0.028,0.017l-0.112,0.147c-1.821,2.294-3.035,3.83-3.108,9.855
		c-2.414-2.088-6.335-3.584-10.042-2.42l-0.421,0.125l0.33,0.284c0.921,0.811,1.885,1.528,2.91,2.285
		c2.71,2.009,5.503,4.087,7.734,8.033c-7.757-6.104-17.5-10.519-21.077-7.618c-0.413,0.334-0.648,0.724-0.731,1.151
		c-3.138-0.616-8.288-1.25-9.49,0.964c-0.155,0.276-0.216,0.563-0.223,0.862c-1.192-0.057-2.39-0.06-3.553,0
		c-2.255,0.112-5.683,0.671-10.028,1.383c-7.612,1.246-18.033,2.949-27.564,2.949c-9.772,0.004-16.703-1.725-21.206-5.27
		l-0.306,0.377c5.576,4.63,12.795,6.881,22.074,6.881c8.155,0,16.53-1.673,24.637-3.285c5.816-1.16,11.308-2.253,15.998-2.533
		c0.225,0.83,1.029,1.701,2.354,2.525c2.537,1.589,6.71,2.87,9.291,2.87c0.9,0,1.604-0.155,1.988-0.513
		c0.315-0.302,0.413-0.662,0.27-1.055c-0.654-1.813-6.487-3.775-12.596-4.256c0.046-0.203,0.157-0.375,0.336-0.529
		c1.012-0.856,3.99-0.946,8.173-0.262c0.492,1.161,2.021,2.504,4.568,3.982c0,0,0.012,0.004,0.012,0.006
		c0.014,0.008,0.025,0.01,0.038,0.014c0.004,0.006,0.012,0.012,0.02,0.016l0,0l0,0c0.002,0,0.002,0.006,0.008,0.01
		c2.494,1.439,5.418,2.688,7.208,3.287c1.044,0.348,1.924,0.523,2.586,0.523c0.674,0,1.121-0.179,1.304-0.545
		c0.487-0.995-1.419-2.573-3.142-3.74c-0.104-0.075-0.216-0.147-0.341-0.221h-0.002c-0.192-0.125-0.405-0.25-0.638-0.377
		c0,0-0.01-0.004-0.012-0.006c-2.488-1.401-6.516-2.855-10.326-3.741c0.117-0.308,0.369-0.563,0.792-0.743
		c2.315-0.989,9.842,0.313,20.204,8.018l0.37-0.298c-3.119-6.438-6.056-8.633-8.651-10.567c-0.1-0.074-0.192-0.145-0.294-0.216
		c1.34-0.175,4.731,0.244,7.436,2.315c-0.056,2.184,0.238,4.278,0.739,5.363c0.532,1.152,1.188,1.766,1.719,1.644
		c0.242-0.05,0.652-0.301,0.652-1.358c0-0.645-0.146-1.47-0.432-2.441c-0.345-1.179-1.099-2.367-2.184-3.426
		c0.068-1.873,0.511-6.112,2.919-8.093c2.415,1.979,2.856,6.22,2.928,8.093c-1.09,1.06-1.841,2.248-2.189,3.426
		c-0.285,0.971-0.43,1.796-0.43,2.441c0,1.056,0.402,1.304,0.649,1.358c0.554,0.123,1.186-0.497,1.729-1.644
		c0.505-1.091,0.794-3.188,0.727-5.363c2.711-2.073,6.104-2.49,7.44-2.315c-0.088,0.067-0.184,0.141-0.279,0.208
		c-2.595,1.934-5.532,4.124-8.649,10.559c-0.007,0.002-0.008,0.015-0.008,0.015c0,0.001,0,0.001,0,0.001l0.365,0.298
		c10.358-7.704,17.885-9.001,20.198-8.018c0.422,0.181,0.675,0.433,0.791,0.743c-3.812,0.89-7.84,2.34-10.332,3.747
		c0,0-0.005,0-0.005,0.007c-0.23,0.121-0.444,0.246-0.636,0.371c-0.003,0-0.008,0-0.008,0c-0.119,0.074-0.23,0.146-0.374,0.239
		c-1.685,1.151-3.591,2.727-3.1,3.724c0.175,0.363,0.629,0.542,1.304,0.542c0.66,0,1.534-0.175,2.583-0.523
		c1.789-0.598,4.71-1.848,7.202-3.287c1.8-1.035,4.042-2.558,4.664-4.028c4.181-0.684,7.154-0.594,8.164,0.262
		c0.183,0.154,0.294,0.326,0.337,0.529c-6.096,0.479-11.95,2.444-12.602,4.258c-0.143,0.391-0.044,0.75,0.267,1.053
		c0.377,0.358,1.084,0.513,1.991,0.513c2.591,0,6.764-1.278,9.3-2.87c1.338-0.844,2.122-1.695,2.336-2.525
		c4.693,0.28,10.198,1.374,16.022,2.533c8.1,1.612,16.477,3.285,24.624,3.285c9.279,0,16.491-2.251,22.072-6.881L247.734,33.115z
		 M130.045,38.547c0.071,0.205,0.023,0.367-0.157,0.541c-1.142,1.075-7.296-0.306-10.655-2.404
		c-0.769-0.825-1.214-1.521-1.325-2.073C124.753,35.151,129.576,37.246,130.045,38.547 M141.717,40.416
		c-0.147,0.3-1.152,0.495-3.304-0.227c-1.76-0.588-4.65-1.824-7.112-3.245c-0.011-0.008-0.023-0.008-0.033-0.015
		c-0.004-0.003-0.01-0.01-0.026-0.02c-2.321-1.498-3.159-2.639-3.453-3.328c3.9,0.757,7.881,2,10.014,3.134
		c0.219,0.125,0.429,0.244,0.606,0.359c0.002,0.006,0.004,0.006,0.004,0.006s0,0.004,0.008,0.004
		c0.119,0.068,0.22,0.139,0.347,0.225C141.423,39.104,141.87,40.104,141.717,40.416 M149.761,34.391
		c0.27,0.924,0.415,1.718,0.415,2.308c0,0.57-0.139,0.854-0.268,0.887c-0.2,0.04-0.677-0.298-1.181-1.376
		c-0.441-0.95-0.708-2.756-0.698-4.7C148.88,32.425,149.477,33.409,149.761,34.391 M153.208,36.209
		c-0.507,1.078-0.998,1.42-1.187,1.376c-0.129-0.032-0.271-0.316-0.271-0.887c0-0.59,0.15-1.384,0.416-2.308
		c0.288-0.982,0.883-1.966,1.737-2.884C153.915,33.449,153.652,35.255,153.208,36.209 M163.517,40.189
		c-2.149,0.722-3.147,0.526-3.303,0.227c-0.147-0.312,0.299-1.311,2.968-3.125c0.105-0.066,0.216-0.137,0.327-0.205l0.008-0.004
		c0,0,0,0,0-0.006c0.184-0.115,0.39-0.234,0.608-0.351c2.13-1.142,6.115-2.385,10.021-3.14c-0.306,0.699-1.155,1.852-3.524,3.36
		C168.158,38.367,165.273,39.601,163.517,40.189 M172.032,39.088c-0.17-0.169-0.218-0.335-0.143-0.541
		c0.47-1.301,5.297-3.396,12.141-3.936c-0.111,0.554-0.557,1.248-1.326,2.073C179.348,38.782,173.181,40.173,172.032,39.088"/>
	<path d="M54.197,366.002c4.496-3.549,11.429-5.273,21.197-5.273c9.535,0,19.956,1.709,27.562,2.957
		c4.346,0.702,7.779,1.271,10.029,1.374c1.167,0.063,2.364,0.056,3.558,0c0.007,0.302,0.07,0.588,0.223,0.87
		c1.202,2.214,6.338,1.582,9.476,0.958c0.08,0.425,0.325,0.815,0.744,1.148c3.576,2.896,13.317-1.518,21.078-7.618
		c-2.231,3.947-5.027,6.025-7.735,8.036c-1.023,0.764-1.989,1.478-2.921,2.284l-0.324,0.283l0.415,0.135
		c3.719,1.16,7.636-0.343,10.06-2.424c0.067,6.017,1.284,7.558,3.103,9.852l0.114,0.146c0.005,0.004,0.015,0.009,0.018,0.023
		c0.01,0,0.014,0.008,0.023,0.016c0.003,0,0.011,0,0.02,0.009c0.012,0.008,0.022,0.017,0.039,0.024
		c0.017,0.007,0.027,0.007,0.044,0.015c0.019,0,0.029,0,0.048,0c0.01,0,0.029,0,0.042,0c0.02-0.008,0.033-0.008,0.046-0.015
		c0.013-0.008,0.031-0.017,0.046-0.024c0.003-0.009,0.007-0.009,0.015-0.009c0.007-0.008,0.008-0.016,0.017-0.016
		c0.011-0.015,0.016-0.02,0.025-0.023l0.114-0.146c1.815-2.294,3.033-3.835,3.104-9.852c2.42,2.081,6.334,3.584,10.046,2.424
		l0.418-0.135l-0.329-0.283c-0.924-0.807-1.884-1.521-2.91-2.284c-2.71-2.011-5.499-4.086-7.732-8.031
		c7.76,6.099,17.492,10.515,21.068,7.613c0.419-0.33,0.657-0.719,0.732-1.148c3.144,0.624,8.29,1.256,9.499-0.958
		c0.15-0.282,0.214-0.568,0.217-0.87c1.192,0.056,2.389,0.063,3.551,0c2.256-0.104,5.689-0.672,10.029-1.374
		c7.621-1.253,18.033-2.957,27.568-2.957c9.768,0,16.701,1.725,21.201,5.273l0.311-0.382c-5.581-4.622-12.798-6.87-22.081-6.87
		c-8.153,0-16.523,1.668-24.627,3.277c-5.821,1.156-11.317,2.249-16.003,2.54c-0.222-0.84-1.034-1.709-2.353-2.527
		c-2.532-1.598-6.708-2.874-9.291-2.874c-0.898,0-1.606,0.155-1.988,0.514c-0.317,0.302-0.412,0.666-0.27,1.049
		c0.651,1.819,6.486,3.783,12.595,4.259c-0.044,0.204-0.155,0.374-0.338,0.533c-1.007,0.851-3.983,0.945-8.171,0.255
		c-0.493-1.16-2.022-2.495-4.571-3.974c0-0.005-0.007-0.008-0.007-0.008c-0.008-0.009-0.024-0.009-0.04-0.014
		c-0.009-0.007-0.009-0.015-0.017-0.02c-0.004,0-0.007-0.003-0.012-0.008c-2.495-1.438-5.416-2.687-7.205-3.291
		c-1.049-0.345-1.928-0.524-2.583-0.524c-0.683,0-1.129,0.184-1.307,0.549c-0.488,0.994,1.418,2.572,3.135,3.743
		c0.111,0.072,0.22,0.144,0.347,0.216h0.003c0.191,0.128,0.405,0.253,0.641,0.381c0,0,0.004,0,0.007,0.005
		c2.493,1.401,6.519,2.857,10.325,3.739c-0.116,0.309-0.369,0.564-0.794,0.747c-2.311,0.985-9.837-0.318-20.203-8.021l-0.362,0.299
		c3.115,6.438,6.051,8.635,8.647,10.566c0.098,0.071,0.189,0.146,0.294,0.219c-1.345,0.171-4.729-0.247-7.44-2.317
		c0.056-2.178-0.23-4.275-0.733-5.365c-0.536-1.148-1.182-1.759-1.721-1.645c-0.241,0.056-0.65,0.302-0.65,1.359
		c0,0.648,0.145,1.47,0.43,2.448c0.347,1.184,1.102,2.359,2.189,3.425c-0.071,1.876-0.513,6.108-2.924,8.092
		c-2.418-1.979-2.854-6.216-2.925-8.092c1.087-1.065,1.841-2.241,2.186-3.425c0.286-0.979,0.432-1.8,0.432-2.448
		c0-1.058-0.403-1.304-0.652-1.359c-0.551-0.114-1.187,0.501-1.729,1.645c-0.502,1.09-0.791,3.188-0.729,5.365
		c-2.704,2.075-6.104,2.488-7.437,2.317c0.089-0.067,0.185-0.14,0.276-0.211c2.597-1.932,5.538-4.12,8.653-10.56
		c0.003-0.003,0.006-0.003,0.006-0.003c0-0.008,0-0.012,0-0.012l-0.361-0.299c-10.36,7.702-17.885,9.006-20.201,8.021
		c-0.419-0.183-0.675-0.43-0.792-0.747c3.813-0.882,7.844-2.341,10.338-3.744c0,0,0.001,0,0.005-0.004
		c0.228-0.124,0.444-0.249,0.632-0.377h0.006c0.121-0.072,0.23-0.144,0.368-0.238c1.688-1.148,3.597-2.727,3.107-3.721
		c-0.181-0.365-0.627-0.549-1.3-0.549c-0.663,0-1.542,0.18-2.586,0.524c-1.787,0.604-4.706,1.853-7.204,3.291
		c-1.802,1.034-4.043,2.56-4.664,4.022c-4.182,0.69-7.157,0.596-8.165-0.255c-0.183-0.159-0.294-0.329-0.336-0.533
		c6.092-0.476,11.946-2.439,12.6-4.259c0.139-0.383,0.044-0.747-0.268-1.049c-0.375-0.358-1.085-0.514-1.994-0.514
		c-2.581,0-6.755,1.276-9.287,2.874c-1.345,0.833-2.128,1.685-2.345,2.527c-4.697-0.291-10.193-1.384-16.023-2.54
		c-8.097-1.609-16.47-3.277-24.623-3.277c-9.275,0-16.494,2.248-22.07,6.87L54.197,366.002z M171.885,360.569
		c-0.075-0.207-0.022-0.37,0.152-0.54c1.144-1.073,7.305,0.306,10.658,2.403c0.767,0.823,1.216,1.515,1.327,2.071
		C177.179,363.972,172.354,361.869,171.885,360.569 M160.21,358.697c0.15-0.299,1.152-0.488,3.307,0.228
		c1.765,0.588,4.65,1.826,7.114,3.249c0.016,0.009,0.022,0.009,0.03,0.009c0.005,0.008,0.012,0.011,0.024,0.02
		c2.32,1.498,3.163,2.639,3.461,3.331c-3.906-0.755-7.888-2-10.021-3.137c-0.219-0.118-0.425-0.237-0.608-0.356l0,0
		c0,0,0-0.005-0.005-0.008c-0.122-0.063-0.225-0.136-0.353-0.228C160.508,360.01,160.066,359.011,160.21,358.697 M152.167,364.721
		c-0.272-0.916-0.416-1.72-0.416-2.308c0-0.564,0.141-0.85,0.271-0.883c0.196-0.039,0.675,0.294,1.185,1.376
		c0.439,0.949,0.701,2.754,0.693,4.697C153.05,366.689,152.455,365.703,152.167,364.721 M148.719,362.906
		c0.509-1.082,1.001-1.423,1.186-1.376c0.132,0.033,0.271,0.318,0.271,0.883c0,0.588-0.146,1.392-0.415,2.308
		c-0.284,0.982-0.882,1.969-1.733,2.886C148.018,365.664,148.274,363.868,148.719,362.906 M138.421,358.925
		c2.142-0.716,3.135-0.526,3.294-0.228c0.151,0.313-0.294,1.313-2.965,3.127c-0.103,0.072-0.214,0.145-0.328,0.208l-0.001,0.008
		h-0.008c-0.181,0.119-0.39,0.238-0.61,0.356c-2.128,1.137-6.114,2.382-10.014,3.137c0.302-0.699,1.146-1.848,3.515-3.359
		C133.771,360.744,136.658,359.513,138.421,358.925 M129.893,360.029c0.172,0.166,0.224,0.333,0.145,0.54
		c-0.461,1.3-5.293,3.402-12.135,3.935c0.111-0.557,0.555-1.248,1.323-2.071C122.582,360.335,128.75,358.947,129.893,360.029"/>
</g>
</svg>
