<svg width="700" height="150" xmlns="http://www.w3.org/2000/svg">
 <g>
  <title>Layer 1</title>
  <g id="svg_1">
   <g id="svg_2">
    <path id="svg_3" d="m248,44.944v84.895996h78.213013c0,0 32.564972,0 32.564972,-36.001984c0,-29.570007 -26.819977,-31.662018 -50.070984,-38.397003c-22.35498,-6.486 -34.020996,-8.370998 -34.020996,-24.306c0,-23.745 37.28302,-25.864 37.28302,-25.864s-48.66803,-4.10901 -49.72403,24.86799c-1.109009,31.001999 33.033997,33.588005 54.400024,41.658997c7.29599,2.752007 12.360992,6.315002 12.547974,23.339005c0.253998,22.033997 -12.415009,23.25 -12.415009,23.25h-15.699982l0.507996,-46.423004c0,0 -42.976013,-7.743996 -43.52301,-36.519997c-9.781982,0 -9.781982,0 -9.781982,0l-0.281006,9.5z" fill="#A31E22"/>
    <g id="svg_4">
     <path id="svg_5" d="m396.100006,23.818001v0.634998c-0.468018,0.121 -0.813995,0.248001 -1.001984,0.401001c-0.187012,0.146 -0.320038,0.367001 -0.387024,0.674c-0.065979,0.294001 -0.106018,0.802 -0.106018,1.497v11.091002c0,0.494999 0.027008,0.869999 0.040039,1.117001c0.026978,0.246998 0.065979,0.445999 0.133972,0.599998c0.067017,0.146999 0.132996,0.266998 0.213013,0.361c0.093994,0.093998 0.213989,0.18 0.375,0.261002c0.159973,0.073997 0.401001,0.153999 0.734009,0.239998v0.628002h-5.38501v-0.628002c0.468018,-0.119999 0.802002,-0.252998 0.989014,-0.394001c0.187988,-0.146999 0.32196,-0.368 0.386993,-0.667c0.07901,-0.300999 0.121979,-0.802998 0.121979,-1.517998v-13.116001h-6.802979v13.116001c0,0.573997 0.013,0.995998 0.053986,1.263c0.040009,0.260998 0.092987,0.467999 0.186005,0.621998c0.095001,0.153 0.229004,0.281002 0.401001,0.386002c0.173004,0.099998 0.455994,0.208 0.856018,0.307999v0.628002h-5.397034v-0.628002c0.52002,-0.139999 0.880005,-0.286999 1.054016,-0.454998c0.187988,-0.166 0.306,-0.400002 0.360992,-0.708c0.053009,-0.307003 0.080017,-0.782001 0.080017,-1.417v-11.090002c0,-0.587999 -0.026031,-1.015999 -0.054016,-1.289999c-0.052002,-0.267 -0.121002,-0.480001 -0.212982,-0.628c-0.093994,-0.147001 -0.22702,-0.268 -0.386993,-0.361c-0.174011,-0.093 -0.456024,-0.187 -0.841034,-0.293001v-0.634998h14.58902l0,0z" fill="#231F20"/>
     <path id="svg_6" d="m402.380981,40.936001v2.710999c0,0.555 0.027008,0.963001 0.054016,1.237c0.040009,0.275002 0.121002,0.495003 0.212006,0.656002c0.095978,0.153999 0.229004,0.286999 0.414978,0.387001c0.201019,0.099998 0.482025,0.200996 0.897034,0.280998v0.626999h-5.226013v-0.626999c0.306976,-0.080002 0.55899,-0.167999 0.748016,-0.262001c0.187988,-0.084999 0.333984,-0.219997 0.441986,-0.394001c0.105011,-0.172997 0.17099,-0.413998 0.199982,-0.713997c0.041016,-0.301003 0.054016,-0.696003 0.054016,-1.190002v-11.002998c0,-0.621998 0,-1.057003 -0.026001,-1.315998c-0.014008,-0.262001 -0.041992,-0.475002 -0.108002,-0.650002c-0.041016,-0.173 -0.119995,-0.313 -0.214996,-0.420002c-0.106018,-0.113998 -0.225006,-0.205997 -0.400024,-0.287998c-0.174988,-0.074001 -0.440979,-0.153 -0.827972,-0.227001v-0.674l3.019012,-0.119999h0.774963l-0.16098,2.084l0.188019,0.053997c0.533997,-0.533997 0.947998,-0.928997 1.255981,-1.169998c0.307007,-0.247999 0.627991,-0.446999 0.947998,-0.606998c0.334015,-0.167002 0.656006,-0.280001 0.963013,-0.348001c0.307983,-0.066 0.613983,-0.099998 0.961975,-0.099998c1.416992,0 2.5,0.528999 3.247009,1.578001c0.762024,1.055 1.135986,2.605999 1.135986,4.635998c0,1.41 -0.214966,2.600002 -0.628967,3.562c-0.438995,0.962002 -1.068024,1.684002 -1.882996,2.165001c-0.802002,0.487999 -1.777008,0.728001 -2.898041,0.728001c-0.641998,0 -1.215973,-0.054001 -1.724976,-0.167c-0.521027,-0.108002 -0.976013,-0.241001 -1.417023,-0.429001zm0,-4.229c0,0.820999 0.054016,1.455997 0.161011,1.903999c0.105011,0.440998 0.279999,0.801998 0.548004,1.075001c0.253998,0.280998 0.561005,0.487999 0.921021,0.627998c0.347992,0.132999 0.815979,0.208 1.403992,0.208c1.027985,0 1.81601,-0.434998 2.325012,-1.295998c0.533966,-0.856003 0.787964,-2.125 0.787964,-3.796001c0,-3.354 -0.988007,-5.030998 -2.938995,-5.030998c-0.47998,0 -0.894989,0.073997 -1.229004,0.227997c-0.347992,0.146004 -0.695007,0.387001 -1.028992,0.722c-0.346985,0.333 -0.586975,0.654999 -0.733978,0.968002c-0.14801,0.308998 -0.214996,0.647999 -0.214996,1.008999v3.381001l-0.001038,0z" fill="#231F20"/>
     <path id="svg_7" d="m419.096985,41.529999c-1.776978,0 -3.138977,-0.528 -4.074982,-1.569c-0.936005,-1.049 -1.404022,-2.599998 -1.404022,-4.649998c0,-1.409 0.242004,-2.605003 0.735016,-3.575001c0.495026,-0.976002 1.162994,-1.704998 2.018982,-2.177999c0.854004,-0.475 1.830017,-0.715 2.926025,-0.715c1.830994,0 3.220978,0.534 4.154999,1.597002c0.936005,1.069 1.416992,2.591995 1.416992,4.583c0,1.423996 -0.240997,2.619999 -0.722015,3.594997c-0.46698,0.974998 -1.123962,1.705002 -1.990997,2.185001c-0.852966,0.487999 -1.883972,0.726997 -3.059998,0.726997zm-3.046997,-6.493999c0,1.765003 0.268005,3.121002 0.830017,4.062c0.560974,0.950001 1.362,1.424 2.403992,1.424c0.575012,0 1.057983,-0.139999 1.471008,-0.427998c0.388,-0.274002 0.721008,-0.648003 0.963013,-1.117001c0.267975,-0.474003 0.454987,-1.014 0.55896,-1.636002c0.108032,-0.615002 0.162018,-1.263 0.162018,-1.944c0,-1.256001 -0.132996,-2.292 -0.414978,-3.126999c-0.279999,-0.828999 -0.654022,-1.436001 -1.136017,-1.829998c-0.480011,-0.387001 -1.028992,-0.582003 -1.643005,-0.582003c-1.028992,0 -1.829987,0.448 -2.378998,1.35c-0.548004,0.895 -0.81601,2.170998 -0.81601,3.827999z" fill="#231F20"/>
     <path id="svg_8" d="m438.127014,45.466c-0.188019,-1.195999 -0.386993,-2.077999 -0.575012,-2.639999c-0.200989,-0.568001 -0.442017,-0.955002 -0.723022,-1.175999c-0.293976,-0.219002 -0.787964,-0.327 -1.496979,-0.327h-5.477997c-0.737,0 -1.296997,0.260998 -1.697998,0.788998c-0.387024,0.527 -0.694,1.657001 -0.921021,3.380001h-1.174988v-5.271999h1.494995c0.910004,-1.269001 1.618011,-2.732002 2.138,-4.375999c0.509003,-1.650002 0.763,-3.160004 0.763,-4.537003c0,-0.960999 -0.386993,-1.501999 -1.161987,-1.615999v-0.621h9.513977v0.622c-0.560974,0.114 -0.949982,0.320002 -1.148987,0.608c-0.187988,0.299999 -0.294006,0.822002 -0.294006,1.589001v8.332001h1.963013v5.245998h-1.200989l0,-0.000999zm-2.953003,-15.366997h-3.072998c-0.375031,4.369999 -1.337006,7.743996 -2.901001,10.121998h5.973999v-10.121998l0,0z" fill="#231F20"/>
     <path id="svg_9" d="m448.056,35.477001h-2.912994v3.000999c0,0.781998 0.092987,1.309998 0.278992,1.583c0.187988,0.273998 0.549011,0.488998 1.109009,0.634998v0.628002h-4.930023v-0.628002c0.574005,-0.153999 0.948029,-0.374001 1.123016,-0.667999c0.174011,-0.286999 0.266998,-0.800999 0.266998,-1.549999v-6.588001c0,-0.855 -0.121979,-1.403 -0.321014,-1.656998c-0.214966,-0.261002 -0.560974,-0.435001 -1.067993,-0.541002v-0.622h4.903992v0.622c-0.549988,0.114 -0.908966,0.320002 -1.096985,0.608c-0.174011,0.299999 -0.266998,0.822002 -0.266998,1.589001v2.472h2.966003c0.14798,-1.756001 0.694,-3.106003 1.656006,-4.062c0.962982,-0.957001 2.218994,-1.438 3.769012,-1.438c3.621979,0 5.427002,2.052002 5.427002,6.153999c0,2.118 -0.481018,3.735001 -1.458038,4.843002c-0.975983,1.115997 -2.36499,1.670998 -4.167999,1.670998c-3.446991,0.000999 -5.211975,-2.015999 -5.277985,-6.051998zm5.438019,-5.586c-2.058014,0 -3.086029,1.710997 -3.086029,5.144999c0,3.655003 1.041992,5.486 3.125031,5.486c0.988983,0 1.751984,-0.460999 2.28598,-1.382c0.520996,-0.909 0.789001,-2.152 0.789001,-3.729c0,-1.785 -0.281006,-3.153999 -0.815002,-4.103001c-0.563019,-0.947998 -1.324005,-1.416998 -2.298981,-1.416998z" fill="#231F20"/>
     <path id="svg_10" d="m471.187012,29.357v2.685999h-1.630005c-0.14801,-0.555 -0.333008,-0.994999 -0.533997,-1.316002c-0.215027,-0.327995 -0.468994,-0.548996 -0.749023,-0.673996c-0.281006,-0.127001 -0.626984,-0.195002 -1.055969,-0.195002c-0.602997,0 -1.121033,0.195002 -1.591034,0.573999c-0.453979,0.395 -0.826996,0.977001 -1.093964,1.764999c-0.267029,0.781002 -0.402039,1.744003 -0.402039,2.879002c0,0.729 0.05304,1.396999 0.161011,1.998001c0.093018,0.601997 0.279999,1.115997 0.52002,1.542999c0.240997,0.427998 0.574982,0.762001 0.987976,1.002998c0.415009,0.239002 0.924011,0.353001 1.524017,0.353001c0.588989,0 1.149017,-0.113998 1.642975,-0.339001c0.51004,-0.235001 1.044037,-0.635998 1.592041,-1.223999l0.721985,0.849998c-0.427002,0.481003 -0.815002,0.848003 -1.149017,1.108002c-0.334991,0.262001 -0.694977,0.480999 -1.082001,0.655998c-0.375,0.18 -0.747986,0.307003 -1.122009,0.379002c-0.375,0.087002 -0.761993,0.126999 -1.202972,0.126999c-1.615997,0 -2.859985,-0.535 -3.714996,-1.608997c-0.84201,-1.076 -1.269989,-2.620003 -1.269989,-4.651001c0,-1.263 0.227997,-2.392002 0.707001,-3.360001c0.481995,-0.982998 1.148987,-1.737 2.018982,-2.265999c0.856018,-0.535002 1.856995,-0.801001 2.97998,-0.801001c0.707031,0 1.350006,0.046 1.950012,0.126999c0.588013,0.08 1.189026,0.214001 1.791016,0.387001z" fill="#231F20"/>
     <path id="svg_11" d="m483.453003,39.139999c-0.546997,0.580002 -1.041992,1.028 -1.509003,1.348c-0.45401,0.329002 -0.949005,0.583 -1.511993,0.77c-0.53302,0.18 -1.149017,0.272999 -1.803009,0.272999c-1.751007,0 -3.087982,-0.528 -3.980988,-1.588997c-0.896027,-1.057003 -1.351013,-2.613003 -1.351013,-4.671001c0,-1.275997 0.238983,-2.397999 0.682983,-3.374001c0.467041,-0.968998 1.120026,-1.723 1.965027,-2.251999c0.840973,-0.535 1.815979,-0.801001 2.924011,-0.801001c0.855988,0 1.590973,0.139999 2.204987,0.414c0.588989,0.274 1.084015,0.648001 1.444,1.123001c0.375,0.475002 0.653015,1.075001 0.853973,1.797001c0.200012,0.723 0.322021,1.663998 0.348999,2.825996h-8.086975v0.227005c0,1.016998 0.108002,1.857998 0.335999,2.545998c0.227997,0.695999 0.60199,1.23 1.121002,1.617001c0.509003,0.395 1.190002,0.580997 2.018982,0.580997c0.696014,0 1.322021,-0.125999 1.88501,-0.386997c0.562012,-0.261002 1.122986,-0.688 1.669983,-1.276001l0.788025,0.827999zm-2.164001,-5.198997c-0.040985,-0.923004 -0.160004,-1.684002 -0.333984,-2.264999c-0.174011,-0.588005 -0.439026,-1.036003 -0.802002,-1.350002c-0.360016,-0.313999 -0.841034,-0.468 -1.417023,-0.468c-0.881989,0 -1.576996,0.355001 -2.112,1.062998c-0.520996,0.702003 -0.840973,1.705002 -0.92099,3.021004h5.585999l0,-0.000999z" fill="#231F20"/>
     <path id="svg_12" d="m489.492981,40.936001v2.710999c0,0.555 0.014038,0.963001 0.054016,1.237c0.039001,0.275002 0.120026,0.495003 0.212982,0.656002c0.096039,0.153999 0.241028,0.286999 0.429016,0.387001c0.173004,0.099998 0.480988,0.200996 0.882019,0.280998v0.626999h-5.225006v-0.626999c0.307983,-0.080002 0.546997,-0.167999 0.747986,-0.262001c0.187988,-0.084999 0.335022,-0.219997 0.441986,-0.394001c0.105042,-0.172997 0.172028,-0.413998 0.212036,-0.713997c0.027985,-0.301003 0.040985,-0.696003 0.040985,-1.190002v-11.002998c0,-0.621998 -0.013,-1.057003 -0.027008,-1.315998c-0.013977,-0.262001 -0.053986,-0.475002 -0.106995,-0.650002c-0.039001,-0.173 -0.118011,-0.313 -0.21402,-0.420002c-0.10498,-0.113998 -0.238983,-0.205997 -0.398987,-0.287998c-0.174988,-0.074001 -0.440979,-0.153 -0.842987,-0.227001v-0.674l3.03299,-0.119999h0.775024l-0.174011,2.084l0.200012,0.053997c0.521973,-0.533997 0.948975,-0.928997 1.256958,-1.169998c0.307007,-0.247999 0.627014,-0.446999 0.962006,-0.606998c0.321014,-0.167002 0.641022,-0.280001 0.935028,-0.348001c0.30899,-0.066 0.643005,-0.099998 0.975983,-0.099998c1.417999,0 2.5,0.528999 3.261017,1.578001c0.748993,1.055 1.122009,2.605999 1.122009,4.635998c0,1.41 -0.213013,2.600002 -0.640015,3.562c-0.415009,0.962002 -1.042023,1.684002 -1.872986,2.165001c-0.802002,0.487999 -1.777039,0.728001 -2.912018,0.728001c-0.626984,0 -1.203003,-0.054001 -1.710999,-0.167c-0.519989,-0.108002 -0.988983,-0.241001 -1.417023,-0.429001zm0,-4.229c0,0.820999 0.054016,1.455997 0.148041,1.903999c0.105957,0.440998 0.292999,0.801998 0.546997,1.075001c0.267975,0.280998 0.573975,0.487999 0.921967,0.627998c0.361023,0.132999 0.827026,0.208 1.416992,0.208c1.029022,0 1.80304,-0.434998 2.338043,-1.295998c0.508972,-0.856003 0.774963,-2.125 0.774963,-3.796001c0,-3.354 -0.975983,-5.030998 -2.940979,-5.030998c-0.479004,0 -0.881012,0.073997 -1.240997,0.227997c-0.348022,0.146004 -0.695007,0.387001 -1.028015,0.722c-0.348999,0.333 -0.588989,0.654999 -0.722992,0.968002c-0.13501,0.308998 -0.21402,0.647999 -0.21402,1.008999v3.381001l0,0z" fill="#231F20"/>
     <path id="svg_13" d="m510.178986,29.357v2.685999h-1.630981c-0.146027,-0.555 -0.318024,-0.994999 -0.547028,-1.316002c-0.200989,-0.327995 -0.439972,-0.548996 -0.733978,-0.673996c-0.282013,-0.127001 -0.628998,-0.195002 -1.042999,-0.195002c-0.615021,0 -1.136017,0.195002 -1.604004,0.573999c-0.45401,0.395 -0.828003,0.977001 -1.095001,1.764999c-0.268005,0.781002 -0.399994,1.744003 -0.399994,2.879002c0,0.729 0.053009,1.396999 0.161011,1.998001c0.10498,0.601997 0.265991,1.115997 0.519958,1.542999c0.256012,0.427998 0.575012,0.762001 0.989014,1.002998c0.399994,0.239002 0.923004,0.353001 1.524017,0.353001c0.585999,0 1.135986,-0.113998 1.643982,-0.339001c0.520996,-0.235001 1.042023,-0.635998 1.58902,-1.223999l0.735992,0.849998c-0.442017,0.481003 -0.830017,0.848003 -1.149017,1.108002c-0.348999,0.262001 -0.694,0.480999 -1.082977,0.655998c-0.388,0.18 -0.749023,0.307003 -1.122009,0.379002c-0.375,0.087002 -0.776001,0.126999 -1.216003,0.126999c-1.617004,0 -2.847015,-0.535 -3.700989,-1.608997c-0.856995,-1.076 -1.296021,-2.620003 -1.296021,-4.651001c0,-1.263 0.238007,-2.392002 0.732025,-3.360001c0.468994,-0.982998 1.148987,-1.737 2.005981,-2.265999c0.854004,-0.535002 1.856995,-0.801001 2.993011,-0.801001c0.694,0 1.348999,0.046 1.936981,0.126999c0.600037,0.08 1.188019,0.214001 1.790009,0.387001z" fill="#231F20"/>
     <path id="svg_14" d="m520.789001,41.323002v-0.628002l-1.401978,-3.354c-0.335022,-0.807999 -0.695984,-1.315998 -1.098022,-1.535999c-0.387024,-0.207001 -0.867981,-0.313999 -1.442017,-0.313999h-0.921997v2.625c0,1.096001 0.095032,1.757 0.280029,1.990997c0.187988,0.228001 0.562988,0.429001 1.108948,0.588001v0.628002h-4.929932v-0.628002c0.573975,-0.16 0.94696,-0.394001 1.096008,-0.701c0.159973,-0.300999 0.238953,-0.929001 0.238953,-1.877998v-6.245998c0,-0.748001 -0.093994,-1.270004 -0.280029,-1.570004c-0.17395,-0.287998 -0.54895,-0.494999 -1.122925,-0.608v-0.622h4.997925v0.622c-0.519958,0.114 -0.882935,0.313002 -1.080933,0.587c-0.200073,0.289001 -0.309021,0.815002 -0.309021,1.591003v2.658997h0.921997c0.562988,0 1.002991,-0.167 1.349976,-0.501999c0.335999,-0.34 0.709045,-1.049 1.138062,-2.131001c0.425964,-1.069 0.894958,-1.856998 1.375916,-2.344999c0.480042,-0.481001 1.27002,-0.729 2.378052,-0.729c0.372986,0 0.787964,0.059999 1.255981,0.174v2.505999h-1.14801c-0.106995,-0.542 -0.401978,-0.808998 -0.856018,-0.808998c-0.359009,0 -0.652954,0.099998 -0.867981,0.294998c-0.240967,0.199001 -0.493958,0.647999 -0.814941,1.362003c-0.603088,1.349998 -1.189026,2.157997 -1.764038,2.432999v0.079998c1.217957,0.307003 2.138,1.028999 2.726013,2.177002l0.975952,1.897999c0.308044,0.602001 0.588013,1.022999 0.883057,1.262001c0.266968,0.248001 0.666992,0.409 1.188965,0.494999v0.628002h-3.877991l0,0z" fill="#231F20"/>
     <path id="svg_15" d="m534.394043,41.323002v-0.628002c0.49292,-0.139999 0.853943,-0.334 1.028931,-0.588001c0.213013,-0.259998 0.30603,-0.793999 0.30603,-1.628998v-5.411999l-5.665039,5.832996c0.013062,0.582001 0.105042,0.996002 0.280029,1.229c0.198975,0.234001 0.533997,0.422001 1.05603,0.568001v0.628002h-4.890991v-0.628002c0.546997,-0.153999 0.922974,-0.374001 1.094971,-0.647999c0.200989,-0.274002 0.281982,-0.802002 0.281982,-1.57v-6.588001c0,-0.780998 -0.095032,-1.310001 -0.296021,-1.604c-0.185974,-0.280998 -0.544983,-0.48 -1.080933,-0.594v-0.622h4.890991v0.622c-0.521057,0.114 -0.868042,0.313002 -1.069031,0.587c-0.187988,0.289001 -0.278992,0.823002 -0.278992,1.611v5.318001l5.610962,-5.846001c0,-0.975998 -0.439941,-1.528999 -1.32196,-1.67v-0.622h4.888977v0.622c-0.518982,0.114 -0.866943,0.307001 -1.067993,0.587c-0.197998,0.275002 -0.293945,0.810001 -0.293945,1.611v6.588001c0,0.781998 0.095947,1.309998 0.279968,1.583c0.187988,0.273998 0.548035,0.488998 1.08197,0.634998v0.628002h-4.835938l0,-0.000999z" fill="#231F20"/>
     <path id="svg_16" d="m549.880005,41.323002v-0.628002c0.509033,-0.139999 0.85498,-0.334 1.041992,-0.588001c0.200989,-0.259998 0.295044,-0.793999 0.295044,-1.628998v-5.411999l-5.653076,5.832996c0.013,0.582001 0.093994,0.996002 0.282043,1.229c0.186951,0.234001 0.519958,0.422001 1.040955,0.568001v0.628002h-4.891968v-0.628002c0.547974,-0.153999 0.924011,-0.374001 1.110962,-0.647999c0.187073,-0.274002 0.280029,-0.802002 0.280029,-1.57v-6.588001c0,-0.780998 -0.093994,-1.310001 -0.293945,-1.604c-0.188049,-0.280998 -0.562073,-0.48 -1.098022,-0.594v-0.622h4.891968v0.622c-0.520996,0.114 -0.867981,0.313002 -1.069031,0.587c-0.186951,0.289001 -0.280945,0.823002 -0.280945,1.611v5.318001l5.626953,-5.846001c-0.013977,-0.975998 -0.454956,-1.528999 -1.334961,-1.67v-0.622h4.902954v0.622c-0.533997,0.114 -0.882935,0.307001 -1.083923,0.587c-0.199036,0.275002 -0.29303,0.810001 -0.29303,1.611v6.588001c0,0.781998 0.093994,1.309998 0.281006,1.583c0.187988,0.273998 0.561951,0.488998 1.095947,0.634998v0.628002h-4.850952l0,-0.000999zm2.673035,-17.437002c0,0.941 -0.415039,1.677 -1.230042,2.225c-0.812988,0.541 -1.81604,0.813999 -3.031982,0.813999c-1.336975,0 -2.351013,-0.266998 -3.059998,-0.788c-0.709045,-0.528 -1.069031,-1.275999 -1.069031,-2.25v-0.528999h2.098022v0.528999c0,0.722 0.145996,1.248001 0.453003,1.583c0.322021,0.333 0.855957,0.495001 1.604004,0.495001c0.78894,0 1.349976,-0.167999 1.671021,-0.500999c0.307007,-0.334002 0.467957,-0.862001 0.467957,-1.576v-0.529001h2.097961v0.527l-0.000916,0z" fill="#231F20"/>
     <path id="svg_17" d="m574.774963,45.466c-0.281006,-1.657001 -0.533936,-2.693001 -0.748962,-3.100998c-0.213989,-0.415001 -0.438965,-0.688 -0.708984,-0.835003c-0.252014,-0.132999 -0.694031,-0.206997 -1.335022,-0.206997h-8.710999v-0.628002c0.585999,-0.16 0.960022,-0.387001 1.133972,-0.674c0.161011,-0.280998 0.254028,-0.794998 0.254028,-1.542999v-6.588001c0,-0.800999 -0.105957,-1.334999 -0.307983,-1.611c-0.213013,-0.279999 -0.575012,-0.473 -1.080017,-0.587v-0.622h4.957031v0.622c-0.522034,0.114 -0.882996,0.307001 -1.069031,0.587c-0.200989,0.275002 -0.307007,0.810001 -0.307007,1.611v8.332001h4.95697v-8.332001c0,-0.800999 -0.094971,-1.341999 -0.280945,-1.611c-0.188049,-0.266998 -0.549011,-0.466999 -1.083008,-0.587v-0.622h4.95697v0.622c-0.560974,0.120001 -0.921936,0.328001 -1.108948,0.614c-0.174011,0.293999 -0.267029,0.816002 -0.267029,1.583v8.332001h1.952026v5.245998h-1.203064l0,-0.000999z" fill="#231F20"/>
     <path id="svg_18" d="m588.36499,39.139999c-0.548035,0.580002 -1.054993,1.028 -1.51001,1.348c-0.454956,0.329002 -0.963013,0.583 -1.496948,0.77c-0.562073,0.18 -1.164063,0.272999 -1.817017,0.272999c-1.765015,0 -3.086975,-0.528 -3.994995,-1.588997c-0.895996,-1.057003 -1.337036,-2.613003 -1.337036,-4.671001c0,-1.275997 0.228027,-2.397999 0.682007,-3.374001c0.455994,-0.968998 1.109009,-1.723 1.95105,-2.251999c0.85498,-0.535 1.830994,-0.801001 2.927002,-0.801001c0.86792,0 1.602966,0.139999 2.203979,0.414c0.61499,0.274 1.096985,0.648001 1.470947,1.123001c0.348022,0.475002 0.642029,1.075001 0.843018,1.797001c0.197998,0.723 0.305054,1.663998 0.333008,2.825996h-8.085022v0.227005c0,1.016998 0.120056,1.857998 0.335022,2.545998c0.23999,0.695999 0.61499,1.23 1.13501,1.617001c0.508972,0.395 1.190002,0.580997 2.018005,0.580997c0.695984,0 1.322998,-0.125999 1.884949,-0.386997c0.562073,-0.261002 1.124023,-0.688 1.671021,-1.276001l0.786011,0.827999zm-2.150024,-5.198997c-0.055969,-0.923004 -0.17395,-1.684002 -0.348999,-2.264999c-0.187927,-0.588005 -0.454956,-1.036003 -0.813965,-1.350002c-0.348022,-0.313999 -0.828979,-0.468 -1.403992,-0.468c-0.882019,0 -1.576965,0.355001 -2.111023,1.062998c-0.534973,0.702003 -0.828003,1.705002 -0.934021,3.021004h5.612l0,-0.000999z" fill="#231F20"/>
     <path id="svg_19" d="m598.802002,41.323002v-0.628002c0.520996,-0.139999 0.882996,-0.334 1.069031,-0.588001c0.187012,-0.259998 0.291931,-0.793999 0.291931,-1.628998v-2.987h-5.531006v2.987c0,0.781998 0.093018,1.309998 0.280029,1.583c0.187988,0.273998 0.562012,0.488998 1.123047,0.634998v0.628002h-4.998047v-0.628002c0.563049,-0.153999 0.937012,-0.374001 1.122986,-0.647999c0.174072,-0.274002 0.267029,-0.802002 0.267029,-1.57v-6.588001c0,-0.780998 -0.092957,-1.310001 -0.280029,-1.604c-0.186951,-0.280998 -0.572998,-0.48 -1.109009,-0.594v-0.622h4.971069v0.622c-0.520996,0.114 -0.881042,0.307001 -1.082031,0.587c-0.200989,0.275002 -0.294006,0.810001 -0.294006,1.611v2.459h5.531006v-2.459c0,-0.855 -0.10498,-1.403 -0.319031,-1.656998c-0.200928,-0.261002 -0.546997,-0.435001 -1.041931,-0.541002v-0.622h4.942993v0.622c-0.548035,0.127001 -0.90802,0.339998 -1.095032,0.629c-0.174011,0.278999 -0.268005,0.801003 -0.268005,1.569v6.588001c0,0.781998 0.093994,1.309998 0.281006,1.583c0.187012,0.273998 0.545959,0.488998 1.080994,0.634998v0.628002h-4.942993l0,-0.000999z" fill="#231F20"/>
     <path id="svg_20" d="m616.588013,32.617001c-0.252991,-0.875 -0.549011,-1.508999 -0.868042,-1.91c-0.334961,-0.402 -0.843994,-0.609001 -1.536987,-0.609001h-1.27002v8.031002c0,1.009998 0.107056,1.656998 0.333008,1.951c0.21405,0.286999 0.653992,0.494999 1.338013,0.614998v0.628002h-5.506958v-0.628002c0.694946,-0.125999 1.148987,-0.354 1.349976,-0.674c0.200989,-0.320999 0.294006,-0.949001 0.294006,-1.890999v-8.030998h-1.240967c-0.723083,0 -1.243042,0.227997 -1.564026,0.681995c-0.335022,0.441002 -0.602051,1.055004 -0.815002,1.837002h-1.229004v-3.548h11.919983v3.547001h-1.203979l0,0z" fill="#231F20"/>
     <path id="svg_21" d="m623.296997,40.936001v2.710999c0,0.555 0.013,0.963001 0.052979,1.237c0.039063,0.275002 0.108032,0.495003 0.199036,0.656002c0.106995,0.153999 0.241943,0.286999 0.427002,0.387001c0.187988,0.099998 0.483032,0.200996 0.896973,0.280998v0.626999h-5.23999v-0.626999c0.32196,-0.080002 0.562988,-0.167999 0.763,-0.262001c0.187012,-0.084999 0.333984,-0.219997 0.440002,-0.394001c0.108032,-0.172997 0.161011,-0.413998 0.200012,-0.713997c0.041016,-0.301003 0.057007,-0.696003 0.057007,-1.190002v-11.002998c0,-0.621998 0,-1.057003 -0.028015,-1.315998c-0.015015,-0.262001 -0.055969,-0.475002 -0.106995,-0.650002c-0.040039,-0.173 -0.120972,-0.313 -0.213013,-0.420002c-0.106995,-0.113998 -0.241028,-0.205997 -0.401978,-0.287998c-0.174011,-0.074001 -0.453003,-0.153 -0.828003,-0.227001v-0.674l3.006958,-0.119999h0.789001l-0.174988,2.084l0.202026,0.053997c0.52002,-0.533997 0.947021,-0.928997 1.252991,-1.169998c0.310974,-0.247999 0.630005,-0.446999 0.949036,-0.606998c0.334961,-0.167002 0.641968,-0.280001 0.948975,-0.348001c0.307983,-0.066 0.630005,-0.099998 0.97699,-0.099998c1.416992,0 2.483032,0.528999 3.247009,1.578001c0.760986,1.055 1.135986,2.605999 1.135986,4.635998c0,1.41 -0.214966,2.600002 -0.640991,3.562c-0.42804,0.962002 -1.057007,1.684002 -1.872009,2.165001c-0.814026,0.487999 -1.790955,0.728001 -2.911011,0.728001c-0.630981,0 -1.203979,-0.054001 -1.710022,-0.167c-0.524963,-0.108002 -0.98999,-0.241001 -1.417969,-0.429001zm0,-4.229c0,0.820999 0.052979,1.455997 0.144958,1.903999c0.107056,0.440998 0.295044,0.801998 0.550049,1.075001c0.268005,0.280998 0.573975,0.487999 0.920959,0.627998c0.361023,0.132999 0.830078,0.208 1.404053,0.208c1.041016,0 1.813965,-0.434998 2.338013,-1.295998c0.520996,-0.856003 0.776001,-2.125 0.776001,-3.796001c0,-3.354 -0.97699,-5.030998 -2.92804,-5.030998c-0.47998,0 -0.895996,0.073997 -1.242004,0.227997c-0.348999,0.146004 -0.682983,0.387001 -1.028992,0.722c-0.335022,0.333 -0.574951,0.654999 -0.721985,0.968002c-0.14801,0.308998 -0.213013,0.647999 -0.213013,1.008999v3.381001l0,0z" fill="#231F20"/>
    </g>
    <g id="svg_22">
     <path id="svg_23" d="m392.466003,93.170998c-1.523987,0 -2.928009,-0.252998 -4.169006,-0.748001c-1.257019,-0.508995 -2.338989,-1.296997 -3.233002,-2.351997c-0.908997,-1.068001 -1.605011,-2.431999 -2.098999,-4.089996c-0.480988,-1.656006 -0.735992,-3.648003 -0.735992,-5.959999c0,-2.838005 0.442017,-5.283005 1.297974,-7.328003c0.881012,-2.039001 2.123016,-3.589005 3.728027,-4.657005c1.615997,-1.062996 3.487976,-1.589996 5.612,-1.589996c2.284973,0 4.18399,0.494003 5.747009,1.497002c1.536987,0.995003 2.712006,2.472 3.487976,4.416c0.787994,1.950996 1.189026,4.316002 1.189026,7.115997c0,2.980003 -0.455994,5.491005 -1.337006,7.550003c-0.909027,2.057999 -2.166016,3.594002 -3.781006,4.623001c-1.631989,1.014999 -3.528992,1.522995 -5.707001,1.522995zm-6.294006,-13.682999c0,3.915001 0.574982,6.895004 1.710999,8.939003c1.148987,2.044998 2.819,3.058998 5.009003,3.058998c1.390991,0 2.56601,-0.439003 3.542023,-1.334999c0.97699,-0.882004 1.697968,-2.178001 2.178986,-3.889c0.47998,-1.709999 0.733978,-3.702003 0.733978,-5.986c0,-2.787003 -0.293976,-5.084999 -0.855988,-6.922005c-0.561005,-1.829994 -1.348999,-3.160995 -2.324005,-3.987999c-0.988983,-0.830002 -2.124969,-1.243996 -3.42099,-1.243996c-1.148987,0 -2.138,0.267998 -2.96701,0.801994c-0.815002,0.542007 -1.497009,1.296005 -2.042999,2.293007c-0.548981,0.988998 -0.937012,2.183998 -1.189972,3.586998c-0.241028,1.404999 -0.374023,2.961998 -0.374023,4.683998z" fill="#231F20"/>
     <path id="svg_24" d="m418.083008,93.170998c-1.537018,0 -2.926025,-0.252998 -4.195038,-0.748001c-1.255981,-0.508995 -2.327972,-1.296997 -3.220001,-2.351997c-0.909973,-1.068001 -1.590973,-2.431999 -2.085999,-4.089996c-0.493958,-1.656006 -0.732971,-3.648003 -0.732971,-5.959999c0,-2.838005 0.425995,-5.283005 1.29599,-7.328003c0.852997,-2.039001 2.110016,-3.589005 3.72699,-4.657005c1.605011,-1.062996 3.47403,-1.589996 5.61203,-1.589996c2.271973,0 4.18396,0.494003 5.733978,1.497002c1.536987,0.995003 2.712006,2.472 3.488007,4.416c0.789001,1.950996 1.175995,4.316002 1.175995,7.115997c0,2.980003 -0.44101,5.491005 -1.335999,7.550003c-0.894989,2.057999 -2.152008,3.594002 -3.77002,4.623001c-1.643982,1.014999 -3.529968,1.522995 -5.692963,1.522995zm-6.309021,-13.682999c0,3.915001 0.575012,6.895004 1.725006,8.939003c1.135986,2.044998 2.807007,3.058998 4.997009,3.058998c1.389984,0 2.57901,-0.439003 3.540985,-1.334999c0.97702,-0.882004 1.699005,-2.178001 2.192993,-3.889c0.468018,-1.709999 0.708038,-3.702003 0.708038,-5.986c0,-2.787003 -0.266998,-5.084999 -0.841034,-6.922005c-0.561981,-1.829994 -1.350006,-3.160995 -2.325989,-3.987999c-0.976013,-0.830002 -2.123993,-1.243996 -3.43399,-1.243996c-1.13501,0 -2.123993,0.267998 -2.95401,0.801994c-0.813995,0.542007 -1.496002,1.296005 -2.044983,2.293007c-0.53302,0.988998 -0.934021,2.183998 -1.188019,3.586998c-0.240997,1.404999 -0.376007,2.961998 -0.376007,4.683998z" fill="#231F20"/>
     <path id="svg_25" d="m443.687012,93.170998c-1.538025,0 -2.926025,-0.252998 -4.183014,-0.748001c-1.255981,-0.508995 -2.338013,-1.296997 -3.233978,-2.351997c-0.89502,-1.068001 -1.591003,-2.431999 -2.097015,-4.089996c-0.483002,-1.656006 -0.723022,-3.648003 -0.723022,-5.959999c0,-2.838005 0.426025,-5.283005 1.295013,-7.328003c0.871002,-2.039001 2.098999,-3.589005 3.714996,-4.657005c1.630005,-1.062996 3.489014,-1.589996 5.627014,-1.589996c2.270996,0 4.170013,0.494003 5.733002,1.497002c1.547974,0.995003 2.711975,2.472 3.5,4.416c0.787994,1.950996 1.177002,4.316002 1.177002,7.115997c0,2.980003 -0.454987,5.491005 -1.35202,7.550003c-0.879974,2.057999 -2.149994,3.594002 -3.767975,4.623001c-1.630035,1.014999 -3.525024,1.522995 -5.690002,1.522995zm-6.295013,-13.682999c0,3.915001 0.576019,6.895004 1.697021,8.939003c1.14798,2.044998 2.819977,3.058998 5.01297,3.058998c1.389008,0 2.577026,-0.439003 3.540009,-1.334999c0.960999,-0.882004 1.696991,-2.178001 2.192017,-3.889c0.478973,-1.709999 0.720001,-3.702003 0.720001,-5.986c0,-2.787003 -0.280029,-5.084999 -0.854004,-6.922005c-0.561005,-1.829994 -1.336029,-3.160995 -2.325012,-3.987999c-0.988983,-0.830002 -2.123993,-1.243996 -3.42099,-1.243996c-1.149017,0 -2.139008,0.267998 -2.964996,0.801994c-0.81601,0.542007 -1.498016,1.296005 -2.03302,2.293007c-0.548004,0.988998 -0.947998,2.183998 -1.188995,3.586998c-0.255005,1.404999 -0.375,2.961998 -0.375,4.683998z" fill="#231F20"/>
     <path id="svg_26" d="m475.223022,90.710999l-1.230011,0.950005l-6.681,-7.496002v-1.417l6.681,-7.528l1.230011,0.959999l-4.610016,7.264999l4.610016,7.265999zm7.375,0l-1.21701,0.950005l-6.719025,-7.496002v-1.417l6.719025,-7.528l1.21701,0.959999l-4.662994,7.264999l4.662994,7.265999z" fill="#231F20"/>
     <path id="svg_27" d="m506.717987,99.747002c-0.093994,-1.339005 -0.347992,-2.620003 -0.733978,-3.849998c-0.388,-1.243004 -0.82901,-2.060005 -1.335999,-2.460007c-0.494019,-0.372993 -1.162018,-0.573997 -2.006012,-0.573997h-11.436981c-1.311035,0 -2.246002,0.573997 -2.834015,1.750999c-0.58902,1.176003 -0.975983,2.888 -1.162994,5.133003h-1.949005v-8.635002h1.882996c2.058014,-2.538002 3.727997,-5.852997 5.011017,-9.953003c1.28299,-4.095993 1.937988,-7.744995 1.937988,-10.938995c0,-0.861 -0.13501,-1.475006 -0.389008,-1.843002c-0.252991,-0.375 -0.761993,-0.601997 -1.537018,-0.695999v-0.933998h15.689026v0.933998c-0.882019,0.212997 -1.484009,0.494995 -1.804993,0.849998c-0.308014,0.339996 -0.468018,1.348999 -0.468018,3.019005v19.561996h3.087006v8.635002h-1.950012l0,0zm-4.701996,-31.317001h-5.385986c-0.775024,9.794998 -2.993011,17.349998 -6.643005,22.681999h12.028015v-22.681999l0.000977,0z" fill="#231F20"/>
     <path id="svg_28" d="m527.362,89.616997c-0.812988,0.855003 -1.562988,1.522003 -2.243958,2.004005c-0.682007,0.479996 -1.42804,0.853996 -2.243042,1.147995c-0.815979,0.267006 -1.724976,0.401001 -2.700012,0.401001c-2.632019,0 -4.622986,-0.787994 -5.945984,-2.364998c-1.350037,-1.563004 -2.018005,-3.889 -2.018005,-6.974998c0,-1.897003 0.33197,-3.567001 1.015015,-5.029999c0.692993,-1.450005 1.655945,-2.581001 2.927979,-3.363007c1.256042,-0.793999 2.724976,-1.195 4.369019,-1.195c1.280945,0 2.377991,0.208 3.272949,0.614006c0.924011,0.406998 1.644043,0.968994 2.190063,1.677994c0.534973,0.701004 0.961975,1.604004 1.257996,2.685005c0.293945,1.07 0.46698,2.473999 0.506958,4.209999h-12.053955v0.348c0,1.509003 0.174011,2.764999 0.507996,3.809998c0.335022,1.014 0.895996,1.817001 1.65802,2.403999c0.773926,0.588005 1.776978,0.868004 3.020996,0.868004c1.041931,0 1.990967,-0.201004 2.81897,-0.587997c0.841003,-0.388 1.669983,-1.028008 2.497009,-1.911003l1.161987,1.256996zm-3.205994,-7.777c-0.078979,-1.375999 -0.252991,-2.5 -0.520996,-3.375c-0.269043,-0.875 -0.666992,-1.542999 -1.202026,-2.003998c-0.546997,-0.473999 -1.242981,-0.701996 -2.109985,-0.701996c-1.312012,0 -2.367004,0.521996 -3.155029,1.577995c-0.774963,1.055 -1.228943,2.553001 -1.375977,4.502998h8.364014l0,0z" fill="#231F20"/>
     <path id="svg_29" d="m541.755005,92.862999v-0.934998c0.815002,-0.215004 1.36499,-0.548004 1.617981,-0.974998c0.267029,-0.429001 0.400024,-1.204002 0.400024,-2.325005v-12.507996h-4.073975c-0.429077,4.329994 -1.045044,7.857994 -1.847046,10.622993c-0.800964,2.753006 -1.616028,4.504005 -2.442993,5.279007c-0.829041,0.774994 -1.790955,1.147995 -2.889038,1.147995c-1.002991,0 -1.815002,-0.105995 -2.469971,-0.307999v-4.086998h1.682007c0.067993,1.055 0.468994,1.588997 1.189026,1.588997c1.138,0 2.138,-1.603996 2.980957,-4.783997c0.842041,-3.194 1.27002,-5.718002 1.27002,-7.542c0,-1.524002 -0.60199,-2.360001 -1.776978,-2.528v-0.940002h13.710022v0.941002c-0.802063,0.167999 -1.335999,0.469002 -1.616028,0.909996c-0.268005,0.435005 -0.414978,1.223 -0.414978,2.358002v9.849998c0,1.121002 0.134949,1.896004 0.388977,2.325005c0.251953,0.426994 0.802002,0.745995 1.642944,0.974998v0.934998h-7.350952l0,-0.000999z" fill="#231F20"/>
     <path id="svg_30" d="m561.424988,93.170998c-2.64502,0 -4.677002,-0.773994 -6.065002,-2.351997c-1.403992,-1.550003 -2.098999,-3.875999 -2.098999,-6.920998c0,-2.112 0.360962,-3.890999 1.097046,-5.347c0.732971,-1.456001 1.735962,-2.531006 3.019958,-3.246002c1.27002,-0.709 2.726013,-1.063004 4.355957,-1.063004c2.726074,0 4.796997,0.802002 6.200073,2.392006c1.415955,1.583 2.110962,3.867996 2.110962,6.835999c0,2.110001 -0.348999,3.901001 -1.055969,5.345001c-0.709045,1.470001 -1.697021,2.564995 -2.994995,3.272995c-1.281006,0.723 -2.80603,1.083 -4.569031,1.083zm-4.555969,-9.675995c0,2.620995 0.427002,4.639 1.257935,6.042c0.841064,1.417 2.028076,2.124001 3.593018,2.124001c0.85498,0 1.577026,-0.199005 2.177979,-0.628006c0.602051,-0.400993 1.082031,-0.961998 1.471008,-1.670998c0.373047,-0.707001 0.640076,-1.509003 0.802063,-2.445c0.174011,-0.920998 0.253967,-1.895996 0.253967,-2.886002c0,-1.872002 -0.200989,-3.435997 -0.630005,-4.677002c-0.413025,-1.236 -0.960999,-2.145996 -1.682007,-2.719994c-0.710022,-0.588005 -1.536987,-0.875 -2.460022,-0.875c-1.53595,0 -2.724976,0.667 -3.53894,2.005997c-0.832031,1.342003 -1.244995,3.246002 -1.244995,5.730003z" fill="#231F20"/>
     <path id="svg_31" d="m574.079041,92.862999v-0.934998c0.828918,-0.229004 1.376953,-0.548004 1.658997,-0.974998c0.279968,-0.401001 0.41394,-1.189003 0.41394,-2.325005v-9.827995c0,-1.236 -0.159973,-2.060005 -0.468994,-2.460007c-0.307983,-0.400993 -0.84198,-0.681 -1.603943,-0.829994v-0.940002h8.364929c2.593994,0 4.463989,0.341003 5.641052,1.022003c1.161987,0.681999 1.75,1.804001 1.75,3.360001c0,1.843994 -1.161987,3.233994 -3.475037,4.155998v0.200996c2.687012,0.692001 4.02301,2.190002 4.02301,4.487999c0,1.632004 -0.588989,2.887001 -1.764954,3.757004c-1.163086,0.866997 -3.208008,1.307999 -6.146057,1.307999h-8.392944l0,0.000999zm5.358948,-16.816002v6.541h2.338989c1.712036,0 2.901978,-0.293999 3.568054,-0.853996c0.654968,-0.573997 0.97699,-1.417 0.97699,-2.514c0,-1.135002 -0.348999,-1.956001 -1.04303,-2.479004c-0.695984,-0.520996 -1.897949,-0.774994 -3.621033,-0.774994l-2.219971,0.080994zm0,7.984001v7.296005c0.657043,0.053993 1.498047,0.079994 2.487,0.079994c1.882996,0 3.166016,-0.32 3.874023,-0.962997c0.710022,-0.639999 1.056946,-1.563004 1.056946,-2.764999c0,-1.189003 -0.346924,-2.098999 -1.027954,-2.726997c-0.709961,-0.614006 -1.924011,-0.922005 -3.674988,-0.922005h-2.715027l0,0.000999z" fill="#231F20"/>
     <path id="svg_32" d="m602.729004,93.170998c-2.658997,0 -4.690002,-0.773994 -6.078979,-2.351997c-1.390991,-1.550003 -2.098022,-3.875999 -2.098022,-6.920998c0,-2.112 0.372986,-3.890999 1.096008,-5.347c0.747986,-1.456001 1.736023,-2.531006 3.019958,-3.246002c1.28302,-0.709 2.726074,-1.063004 4.355042,-1.063004c2.738953,0 4.798035,0.802002 6.215027,2.392006c1.401978,1.583 2.097961,3.867996 2.097961,6.835999c0,2.110001 -0.347961,3.901001 -1.054993,5.345001c-0.695007,1.470001 -1.697998,2.564995 -2.981018,3.272995c-1.296997,0.723 -2.80603,1.083 -4.570984,1.083zm-4.554993,-9.675995c0,2.620995 0.414001,4.639 1.256042,6.042c0.828979,1.417 2.029968,2.124001 3.579956,2.124001c0.856995,0 1.592041,-0.199005 2.179016,-0.628006c0.612976,-0.400993 1.096985,-0.961998 1.471985,-1.670998c0.372986,-0.707001 0.640015,-1.509003 0.812988,-2.445c0.176025,-0.920998 0.240967,-1.895996 0.240967,-2.886002c0,-1.872002 -0.200989,-3.435997 -0.61499,-4.677002c-0.412964,-1.236 -0.974976,-2.145996 -1.695923,-2.719994c-0.709045,-0.588005 -1.522034,-0.875 -2.433044,-0.875c-1.552002,0 -2.738953,0.667 -3.569031,2.005997c-0.813965,1.342003 -1.227966,3.246002 -1.227966,5.730003z" fill="#231F20"/>
     <path id="svg_33" d="m630.498962,89.616997c-0.816956,0.855003 -1.577942,1.522003 -2.259949,2.004005c-0.682983,0.479996 -1.415039,0.853996 -2.244995,1.147995c-0.814026,0.267006 -1.710022,0.401001 -2.697021,0.401001c-2.618958,0 -4.610962,-0.787994 -5.947021,-2.364998c-1.336975,-1.563004 -2.003967,-3.889 -2.003967,-6.974998c0,-1.897003 0.332031,-3.567001 1.014954,-5.029999c0.68103,-1.450005 1.656006,-2.581001 2.912048,-3.363007c1.269958,-0.793999 2.726013,-1.195 4.369995,-1.195c1.281982,0 2.393005,0.208 3.288025,0.614006c0.908997,0.406998 1.642944,0.968994 2.177002,1.677994c0.534973,0.701004 0.961975,1.604004 1.255981,2.685005c0.307983,1.07 0.468018,2.473999 0.507996,4.209999h-12.052002v0.348c0,1.509003 0.171997,2.764999 0.507996,3.809998c0.346985,1.014 0.895996,1.817001 1.669983,2.403999c0.776001,0.588005 1.765991,0.868004 3.007019,0.868004c1.041992,0 1.98999,-0.201004 2.830994,-0.587997c0.830017,-0.388 1.658997,-1.028008 2.487,-1.911003l1.175964,1.256996zm-3.221985,-7.777c-0.065979,-1.375999 -0.237976,-2.5 -0.521973,-3.375c-0.266968,-0.875 -0.666016,-1.542999 -1.188049,-2.003998c-0.547913,-0.473999 -1.240967,-0.701996 -2.125916,-0.701996c-1.309082,0 -2.348999,0.521996 -3.139038,1.577995c-0.789001,1.055 -1.244995,2.553001 -1.390991,4.502998h8.365967l0,0z" fill="#231F20"/>
     <path id="svg_34" d="m396.075012,113.523003v3.994995h-2.432007c-0.215027,-0.827995 -0.496002,-1.472 -0.802002,-1.950996c-0.322021,-0.481003 -0.696014,-0.827003 -1.109009,-1.014999c-0.427979,-0.188004 -0.948975,-0.282005 -1.576996,-0.282005c-0.881989,0 -1.68399,0.282005 -2.367004,0.870003c-0.692993,0.560997 -1.241974,1.443001 -1.643005,2.618004c-0.399994,1.176994 -0.60199,2.604996 -0.60199,4.302994c0,1.082001 0.066986,2.071007 0.240997,2.967003c0.134003,0.908997 0.400024,1.671005 0.775024,2.310989c0.360962,0.644012 0.868958,1.138016 1.468994,1.498001c0.615997,0.361008 1.375977,0.521011 2.272003,0.521011s1.710999,-0.160004 2.458984,-0.507996c0.761993,-0.348999 1.550018,-0.938004 2.36499,-1.818008l1.095001,1.255997c-0.654999,0.723007 -1.228973,1.283005 -1.722992,1.658997c-0.494019,0.399017 -1.028992,0.720001 -1.605011,0.987015c-0.560974,0.268005 -1.121002,0.455002 -1.667969,0.559998c-0.563019,0.135986 -1.163025,0.187988 -1.819031,0.187988c-2.403992,0 -4.248993,-0.802002 -5.532013,-2.404984c-1.269989,-1.602997 -1.91098,-3.902008 -1.91098,-6.922005c0,-1.896004 0.363007,-3.581001 1.083008,-5.023003c0.707001,-1.471001 1.709991,-2.592003 2.991974,-3.393997c1.284027,-0.775002 2.779022,-1.177002 4.465027,-1.177002c1.041992,0 2.016998,0.054001 2.898987,0.187996c0.884003,0.106003 1.779022,0.306999 2.675018,0.574005z" fill="#231F20"/>
     <path id="svg_35" d="m407.417999,131.682999c-2.657013,0 -4.675018,-0.774002 -6.065979,-2.35199c-1.416016,-1.550018 -2.098022,-3.875008 -2.098022,-6.923012c0,-2.108994 0.361023,-3.888 1.097015,-5.343994c0.720001,-1.457001 1.735992,-2.538002 3.005981,-3.234001c1.282013,-0.723 2.73999,-1.068001 4.368988,-1.068001c2.726013,0 4.796997,0.788002 6.200012,2.378998c1.402985,1.589005 2.098999,3.874001 2.098999,6.840004c0,2.112999 -0.347992,3.903 -1.041992,5.357986c-0.709015,1.458008 -1.712006,2.553009 -2.994995,3.263c-1.282013,0.720001 -2.805023,1.081009 -4.570007,1.081009zm-4.556,-9.674995c0,2.619995 0.414978,4.637993 1.257019,6.053993c0.828979,1.401993 2.029968,2.111008 3.593964,2.111008c0.843018,0 1.577026,-0.201004 2.179016,-0.628006c0.600983,-0.401001 1.082001,-0.960999 1.456024,-1.671005c0.374969,-0.707001 0.655975,-1.510986 0.813965,-2.443993c0.161011,-0.922997 0.256012,-1.885002 0.256012,-2.888c0,-1.881996 -0.214996,-3.432999 -0.630005,-4.678001c-0.412994,-1.228996 -0.975006,-2.135002 -1.695007,-2.723999c-0.709991,-0.587997 -1.523987,-0.870003 -2.445984,-0.870003c-1.550018,0 -2.725983,0.669006 -3.556,2.020004c-0.814026,1.334999 -1.229004,3.233002 -1.229004,5.718002z" fill="#231F20"/>
     <path id="svg_36" d="m434.544006,118.387001c-0.371002,-1.294998 -0.814026,-2.257004 -1.294006,-2.845001c-0.481018,-0.614998 -1.242004,-0.909996 -2.272003,-0.909996h-1.897003v11.975006c0,1.50798 0.161011,2.482986 0.481018,2.911987c0.332977,0.440002 0.988983,0.748001 1.98999,0.921005v0.949997h-8.216003v-0.949997c1.054993,-0.197998 1.721985,-0.520996 2.016022,-1.001999c0.307983,-0.479004 0.453979,-1.416 0.453979,-2.830994v-11.975006h-1.868988c-1.083008,0 -1.858002,0.334 -2.338013,1.002998c-0.494995,0.682999 -0.882019,1.588997 -1.203979,2.751999h-1.81604v-5.305h17.786011v5.305h-1.820984l0,0z" fill="#231F20"/>
     <path id="svg_37" d="m444.567993,130.802002v4.033997c0,0.830002 0.025024,1.443008 0.080017,1.871994c0.052979,0.401001 0.158997,0.721008 0.307983,0.961014c0.145996,0.241989 0.359985,0.429993 0.626984,0.588989c0.281036,0.133011 0.723022,0.292999 1.336029,0.400009v0.947998h-7.817017v-0.947998c0.468994,-0.10701 0.843018,-0.240997 1.123016,-0.387009c0.279999,-0.121002 0.507996,-0.320999 0.653992,-0.58699c0.160004,-0.256012 0.268982,-0.616013 0.308014,-1.057999c0.066986,-0.453003 0.092987,-1.041 0.092987,-1.791v-16.409004c0,-0.922005 -0.024994,-1.576004 -0.053009,-1.979004c-0.013977,-0.373001 -0.07901,-0.694 -0.14798,-0.961998c-0.07901,-0.240997 -0.186005,-0.453003 -0.332031,-0.613998c-0.146973,-0.174004 -0.348969,-0.319 -0.587982,-0.428001c-0.253998,-0.105003 -0.667999,-0.228004 -1.242981,-0.348v-1.014999l4.502991,-0.161003h1.161987l-0.252991,3.099998l0.292999,0.082001c0.789001,-0.801994 1.417999,-1.390999 1.871979,-1.750999c0.467041,-0.361 0.934998,-0.655998 1.430023,-0.895996c0.493988,-0.239006 0.961975,-0.427002 1.416992,-0.520004c0.453003,-0.108002 0.934998,-0.146996 1.441986,-0.146996c2.098022,0 3.716003,0.774994 4.851013,2.352997c1.122986,1.577003 1.684998,3.874001 1.684998,6.920998c0,2.111 -0.30899,3.875999 -0.947998,5.305c-0.644012,1.431 -1.562988,2.524994 -2.779999,3.235001c-1.218018,0.720993 -2.672974,1.080994 -4.355988,1.080994c-0.936005,0 -1.791016,-0.080002 -2.565002,-0.23999c-0.764984,-0.160004 -1.475006,-0.374008 -2.101013,-0.639999zm0,-6.307999c0,1.215996 0.065002,2.164001 0.226013,2.831985c0.14801,0.656006 0.429016,1.203003 0.803009,1.604019c0.399963,0.429001 0.853973,0.722992 1.388977,0.935989c0.522003,0.199997 1.229004,0.308014 2.09903,0.308014c1.536957,0 2.697998,-0.628021 3.486969,-1.924011c0.763,-1.269989 1.162994,-3.166 1.162994,-5.68c0,-4.997002 -1.468994,-7.497002 -4.384979,-7.497002c-0.719025,0 -1.334991,0.121002 -1.854004,0.334999c-0.51001,0.228004 -1.028992,0.588005 -1.539001,1.084c-0.506012,0.493004 -0.867004,0.974007 -1.07901,1.455002c-0.200989,0.454002 -0.30899,0.963005 -0.30899,1.496002v5.051003l-0.001007,0z" fill="#231F20"/>
     <path id="svg_38" d="m468.674011,132.939011c-0.695007,1.590988 -1.390015,2.872986 -2.05899,3.847992c-0.653015,0.988998 -1.390015,1.738998 -2.177032,2.216995c-0.803009,0.511002 -1.748993,0.75 -2.846985,0.75c-0.692993,0 -1.497009,-0.078995 -2.378998,-0.238998v-3.796005h1.712006c0.158997,0.534012 0.346008,0.881012 0.573975,1.096008c0.226013,0.199997 0.561035,0.307999 0.989014,0.307999c0.386993,0 0.720001,-0.080002 1.027008,-0.227997c0.307983,-0.146011 0.61499,-0.401001 0.935974,-0.749008c0.320007,-0.358994 0.708038,-0.908997 1.150024,-1.655991c0.438995,-0.722 0.934998,-1.669998 1.484009,-2.807007l-5.361023,-14.403c-0.332977,-0.936996 -0.613007,-1.577995 -0.825989,-1.950996c-0.214996,-0.375 -0.441986,-0.657005 -0.683014,-0.845001c-0.240967,-0.198997 -0.61499,-0.359001 -1.109985,-0.466003v-0.935997h7.791992v0.935997c-0.602997,0.148003 -1.028015,0.293999 -1.270996,0.427002c-0.23999,0.122002 -0.414978,0.295998 -0.53299,0.509003c-0.107025,0.198997 -0.174011,0.478996 -0.174011,0.800995c0,0.348999 0.039001,0.708 0.132996,1.083c0.079987,0.360001 0.200012,0.788002 0.386993,1.297005l3.40802,9.593987l3.835999,-9.192986c0.213989,-0.509003 0.372986,-0.975006 0.507996,-1.403c0.106018,-0.427002 0.173981,-0.813004 0.173981,-1.189003c0,-0.561996 -0.146973,-0.962997 -0.441986,-1.257004c-0.306,-0.266998 -0.826996,-0.507996 -1.575012,-0.667v-0.935997h7.162018v0.935997c-0.493988,0.106003 -0.869019,0.267006 -1.149017,0.481003c-0.268982,0.198997 -0.534973,0.534004 -0.802002,0.987c-0.267975,0.455002 -0.587982,1.098 -0.948975,1.899002l-6.934998,15.55201z" fill="#231F20"/>
     <path id="svg_39" d="m495.06601,137.561996c-0.280029,-1.787994 -0.576019,-3.099991 -0.855011,-3.940002c-0.294983,-0.843002 -0.641998,-1.430984 -1.083008,-1.750992c-0.428986,-0.320007 -1.177002,-0.480011 -2.22998,-0.480011h-8.165009c-1.096008,0 -1.937012,0.373016 -2.527008,1.177017c-0.585999,0.774994 -1.054993,2.456985 -1.388,5.036987h-1.764984v-7.870987h2.244995c1.350006,-1.89801 2.404999,-4.075012 3.165985,-6.535011c0.775024,-2.458 1.150024,-4.716995 1.150024,-6.762001c0,-1.442993 -0.576019,-2.258995 -1.709991,-2.417999v-0.935997h14.177979v0.935997c-0.842987,0.159004 -1.417023,0.481003 -1.710999,0.909004c-0.279999,0.452995 -0.428986,1.228996 -0.428986,2.365997v12.439003h2.914978v7.828995h-1.790985l0,0zm-4.396027,-22.929993h-4.597961c-0.547028,6.520996 -1.990021,11.546005 -4.329041,15.100998h8.927002v-15.100998l0,0z" fill="#231F20"/>
     <path id="svg_40" d="m511.837006,131.389999v-0.949997c0.774994,-0.197998 1.293976,-0.492004 1.589996,-0.880005c0.278992,-0.389999 0.427002,-1.190002 0.427002,-2.42099v-4.463005h-8.244995v4.463005c0,1.148987 0.134003,1.938004 0.414001,2.352982c0.281982,0.428009 0.842987,0.736008 1.671997,0.948013v0.949997h-7.443024v-0.949997c0.827026,-0.227005 1.376007,-0.548004 1.657013,-0.960999c0.279022,-0.414001 0.415009,-1.203003 0.415009,-2.339996v-9.846008c0,-1.163002 -0.14801,-1.951996 -0.442017,-2.379997c-0.279999,-0.43 -0.815002,-0.736 -1.630005,-0.896004v-0.935997h7.404022v0.935997c-0.790009,0.159004 -1.312012,0.453003 -1.605011,0.882004c-0.294006,0.401001 -0.44101,1.202995 -0.44101,2.393997v3.674004h8.244995v-3.674004c0,-1.271996 -0.146973,-2.086998 -0.46698,-2.473999c-0.30896,-0.375 -0.843994,-0.642998 -1.549988,-0.802002v-0.935997h7.375v0.935997c-0.814026,0.199005 -1.362,0.509003 -1.629028,0.936005c-0.282959,0.426994 -0.414978,1.201996 -0.414978,2.339996v9.846008c0,1.148987 0.132019,1.938004 0.414978,2.352982c0.280029,0.428009 0.827026,0.736008 1.629028,0.948013v0.949997h-7.376007l0,0z" fill="#231F20"/>
     <path id="svg_41" d="m535.099976,131.389999v-0.949997c0.749023,-0.197998 1.270996,-0.492004 1.565063,-0.880005c0.281006,-0.389999 0.425964,-1.190002 0.425964,-2.42099v-8.084007l-8.442993,8.698997c0.013,0.882004 0.145996,1.484009 0.414001,1.830994c0.278992,0.362 0.802002,0.643005 1.575989,0.854004v0.950012h-7.309998v-0.950012c0.828003,-0.22699 1.391968,-0.548004 1.65802,-0.960999c0.279968,-0.414001 0.411987,-1.202988 0.411987,-2.339996v-9.846001c0,-1.163002 -0.14502,-1.952003 -0.440002,-2.379997c-0.279968,-0.43 -0.815002,-0.736 -1.630005,-0.896004v-0.935997h7.309998v0.935997c-0.773987,0.159004 -1.309998,0.466003 -1.604004,0.882004c-0.281006,0.429001 -0.414978,1.229996 -0.414978,2.393997v7.948997l8.393005,-8.738998c-0.014038,-1.443001 -0.66803,-2.270996 -1.991028,-2.485001v-0.935997h7.311035v0.935997c-0.774048,0.159004 -1.309998,0.453003 -1.604065,0.882004c-0.294983,0.401001 -0.438965,1.202995 -0.438965,2.393997v9.846008c0,1.148987 0.132019,1.938004 0.411987,2.352982c0.294006,0.428009 0.830017,0.736008 1.632019,0.948013v0.949997h-7.233032l0,0z" fill="#231F20"/>
     <path id="svg_42" d="m555.666016,131.389999v-0.949997c0.827942,-0.197998 1.388977,-0.492004 1.684998,-0.921005c0.279968,-0.414993 0.427002,-1.216995 0.427002,-2.37999v-3.914009c-1.723022,0.347 -3.367981,0.521004 -4.95697,0.521004c-1.95105,0 -3.381042,-0.427002 -4.289063,-1.283005c-0.922974,-0.854996 -1.376953,-2.203995 -1.376953,-4.034996v-1.134003c0,-1.163002 -0.134033,-1.938995 -0.401062,-2.353996c-0.266968,-0.413002 -0.787964,-0.708 -1.549988,-0.922005v-0.935997h7.187988v0.935997c-0.772949,0.159004 -1.307983,0.453003 -1.602966,0.854004c-0.294006,0.387001 -0.442017,1.174995 -0.442017,2.351997v1.349998c0,1.230003 0.281982,2.126999 0.844055,2.688004c0.546997,0.560997 1.53595,0.827995 2.937988,0.827995c1.109985,0 2.325012,-0.160995 3.647949,-0.481995v-4.383003c0,-1.281998 -0.158936,-2.097 -0.480957,-2.458c-0.320007,-0.348 -0.84198,-0.599998 -1.549988,-0.748001v-0.935997h7.376953v0.935997c-0.78894,0.159004 -1.323975,0.466003 -1.629944,0.909004c-0.294067,0.427002 -0.442017,1.228996 -0.442017,2.365997v9.846001c0,1.189011 0.147949,1.979004 0.442017,2.37999c0.305969,0.400009 0.841003,0.709015 1.629944,0.921021v0.949982h-7.45697l0,-0.000992z" fill="#231F20"/>
     <path id="svg_43" d="m582.364014,128.127991c-0.814026,0.85701 -1.563049,1.524017 -2.244019,2.005005c-0.682983,0.481003 -1.444031,0.868011 -2.257996,1.149002c-0.815002,0.268005 -1.710022,0.399994 -2.699036,0.399994c-2.620972,0 -4.609924,-0.773987 -5.944946,-2.36499c-1.337036,-1.577011 -2.005981,-3.901001 -2.005981,-6.961998c0,-1.910004 0.333984,-3.581001 1.016968,-5.052002c0.682007,-1.442001 1.669006,-2.563004 2.926025,-3.364998c1.255981,-0.775002 2.713013,-1.177002 4.35498,-1.177002c1.296021,0 2.393005,0.213997 3.302002,0.613998c0.89502,0.401001 1.61499,0.962997 2.164001,1.670998c0.547974,0.707001 0.963013,1.589005 1.269958,2.672005c0.294067,1.082001 0.468018,2.498001 0.507019,4.223h-12.065979v0.348c0,1.511002 0.174988,2.765999 0.508972,3.794006c0.346985,1.027985 0.89502,1.830002 1.669983,2.418991c0.775024,0.575012 1.777039,0.856003 3.02002,0.856003c1.042053,0 1.979004,-0.188004 2.820007,-0.575012c0.826965,-0.385986 1.671021,-1.028992 2.497986,-1.89798l1.160034,1.242981zm-3.205994,-7.776993c-0.080017,-1.375999 -0.254028,-2.498001 -0.521057,-3.365997c-0.268005,-0.882004 -0.666992,-1.552002 -1.216919,-2.018997c-0.521057,-0.467003 -1.228027,-0.695 -2.097046,-0.695c-1.309998,0 -2.36499,0.521996 -3.140015,1.576996c-0.78894,1.056 -1.257019,2.553001 -1.390991,4.502998h8.366028l0,0z" fill="#231F20"/>
     <path id="svg_44" d="m600.44397,113.523003v3.994995h-2.430969c-0.215027,-0.827995 -0.481018,-1.472 -0.789001,-1.950996c-0.333984,-0.481003 -0.694031,-0.827003 -1.122986,-1.014999c-0.427002,-0.188004 -0.934998,-0.282005 -1.563049,-0.282005c-0.895996,0 -1.68396,0.282005 -2.378967,0.870003c-0.682007,0.560997 -1.229004,1.443001 -1.630005,2.618004c-0.399963,1.176994 -0.60199,2.604996 -0.60199,4.302994c0,1.082001 0.080017,2.071007 0.226013,2.967003c0.14801,0.908997 0.414978,1.671005 0.77594,2.310989c0.375,0.644012 0.868042,1.138016 1.483032,1.498001c0.615051,0.361008 1.377014,0.521011 2.270996,0.521011c0.882996,0 1.71106,-0.160004 2.460022,-0.507996c0.762024,-0.348999 1.549988,-0.938004 2.363953,-1.818008l1.096008,1.255997c-0.653931,0.723007 -1.229004,1.283005 -1.724976,1.658997c-0.507996,0.399017 -1.028992,0.720001 -1.590027,0.987015c-0.573975,0.268005 -1.134949,0.455002 -1.69696,0.559998c-0.546997,0.135986 -1.149048,0.187988 -1.80304,0.187988c-2.417969,0 -4.25,-0.802002 -5.531921,-2.404984c-1.271057,-1.602997 -1.912048,-3.902008 -1.912048,-6.922005c0,-1.896004 0.360962,-3.581001 1.070007,-5.023003c0.721008,-1.471001 1.710022,-2.592003 3.007019,-3.393997c1.294983,-0.775002 2.765015,-1.177002 4.463013,-1.177002c1.041931,0 2.003967,0.054001 2.898926,0.187996c0.88501,0.106003 1.767029,0.306999 2.661011,0.574005z" fill="#231F20"/>
     <path id="svg_45" d="m618.686035,118.387001c-0.373047,-1.294998 -0.815002,-2.257004 -1.296021,-2.845001c-0.47998,-0.614998 -1.241028,-0.909996 -2.286011,-0.909996h-1.884033v11.975006c0,1.50798 0.161072,2.482986 0.480042,2.911987c0.320984,0.440002 0.988953,0.748001 1.991028,0.921005v0.949997h-8.218018v-0.949997c1.042969,-0.197998 1.710999,-0.520996 2.018982,-1.001999c0.307983,-0.479004 0.453003,-1.416 0.453003,-2.830994v-11.975006h-1.883972c-1.05603,0 -1.843994,0.334 -2.325012,1.002998c-0.47998,0.682999 -0.893982,1.588997 -1.216064,2.751999h-1.815979v-5.305h17.786011v5.305h-1.803955l0,0z" fill="#231F20"/>
     <path id="svg_46" d="m623.684998,131.389999v-0.949997c0.825012,-0.227005 1.376038,-0.548004 1.643005,-0.960999c0.278992,-0.414001 0.415039,-1.203003 0.415039,-2.339996v-9.835007c0,-1.229004 -0.148071,-2.044998 -0.454041,-2.445c-0.295959,-0.414001 -0.84198,-0.681999 -1.604004,-0.841003v-0.935997h8.363037c2.579956,0 4.462952,0.347 5.625977,1.028999c1.176025,0.681999 1.75,1.804001 1.75,3.353996c0,1.845001 -1.14801,3.235001 -3.460022,4.155006v0.187996c2.686035,0.709 4.02301,2.207001 4.02301,4.503006c0,1.630997 -0.591003,2.888 -1.765991,3.75499c-1.161987,0.869003 -3.219971,1.324005 -6.133972,1.324005h-8.402039l0,0zm5.356018,-16.836998v6.546997h2.340027c1.710999,0 2.91095,-0.294998 3.565979,-0.853996c0.656982,-0.574005 0.97699,-1.417999 0.97699,-2.513c0,-1.123001 -0.334045,-1.951004 -1.029053,-2.473999c-0.708923,-0.519005 -1.908936,-0.775002 -3.636963,-0.775002l-2.21698,0.069zm0,7.988998v7.297997c0.653015,0.052002 1.482971,0.07901 2.487,0.07901c1.869995,0 3.166016,-0.320007 3.873962,-0.960999c0.708984,-0.643005 1.067017,-1.563019 1.067017,-2.766998c0,-1.189011 -0.346985,-2.111008 -1.05304,-2.727013c-0.681946,-0.626999 -1.91095,-0.922997 -3.662964,-0.922997h-2.711975l0,0.000999z" fill="#231F20"/>
     <path id="svg_47" d="m652.333008,131.682999c-2.658997,0 -4.677002,-0.774002 -6.079956,-2.35199c-1.403015,-1.550018 -2.098022,-3.875008 -2.098022,-6.923012c0,-2.108994 0.374023,-3.888 1.107971,-5.343994c0.721985,-1.457001 1.739014,-2.538002 3.006042,-3.234001c1.268982,-0.723 2.73999,-1.068001 4.372009,-1.068001c2.723938,0 4.795959,0.788002 6.19696,2.378998c1.403992,1.589005 2.101013,3.874001 2.101013,6.840004c0,2.112999 -0.348022,3.903 -1.04303,5.357986c-0.707947,1.458008 -1.711975,2.553009 -2.992981,3.263c-1.28302,0.720001 -2.819031,1.081009 -4.570007,1.081009zm-4.559021,-9.674995c0,2.619995 0.429016,4.637993 1.246033,6.053993c0.841003,1.401993 2.041992,2.111008 3.592957,2.111008c0.856018,0 1.592041,-0.201004 2.193054,-0.628006c0.585938,-0.401001 1.079956,-0.960999 1.453979,-1.671005c0.375977,-0.707001 0.656006,-1.510986 0.815002,-2.443993c0.158997,-0.922997 0.255981,-1.885002 0.255981,-2.888c0,-1.881996 -0.214966,-3.432999 -0.630005,-4.678001c-0.414978,-1.228996 -0.973999,-2.135002 -1.695984,-2.723999c-0.722046,-0.587997 -1.52301,-0.870003 -2.443054,-0.870003c-1.552917,0 -2.729004,0.669006 -3.541931,2.020004c-0.830017,1.334999 -1.246033,3.233002 -1.246033,5.718002z" fill="#231F20"/>
     <path id="svg_48" d="m664.854004,114.711998l1.242004,-0.960999l6.707947,7.510002v1.415001l-6.707947,7.510994l-1.242004,-0.947998l4.688965,-7.281998l-4.688965,-7.245003zm7.388,0l1.231018,-0.960999l6.680969,7.510002v1.415001l-6.680969,7.510994l-1.231018,-0.947998l4.625,-7.281998l-4.625,-7.245003z" fill="#231F20"/>
    </g>
    <g id="svg_49">
     <path id="svg_50" d="m253.720001,144.964996c0,0.028 0,0.042007 -0.026993,0.055008c0,0.014999 -0.012009,0.026001 -0.041,0.026001c-0.040009,0.013 -0.067017,0.026993 -0.10701,0.026993c-0.039993,0 -0.091995,0.013 -0.171997,0.013c-0.054001,0 -0.095001,-0.013 -0.147003,-0.013c-0.039993,0 -0.080002,-0.014999 -0.093002,-0.026993c-0.028,0 -0.054001,-0.012009 -0.054001,-0.026001c-0.013992,-0.013 -0.013992,-0.026001 -0.013992,-0.055008v-1.414993h-4.369995v1.414993c0,0.028 -0.014008,0.042007 -0.027008,0.055008c-0.011993,0.014999 -0.026001,0.026001 -0.052994,0.026001c-0.027008,0.013 -0.053009,0.026993 -0.10701,0.026993c-0.039993,0 -0.078995,0.013 -0.158997,0.013c-0.067993,0 -0.106995,-0.013 -0.162003,-0.013c-0.039993,0 -0.080002,-0.014999 -0.093994,-0.026993c-0.026001,0 -0.052002,-0.012009 -0.052002,-0.026001c-0.013,-0.013 -0.026993,-0.026001 -0.026993,-0.055008v-1.856995c0,-0.065994 0.013992,-0.119003 0.039993,-0.171997c0.026993,-0.027008 0.080002,-0.054001 0.147003,-0.054001h0.320999c0.093002,-0.108002 0.173004,-0.214996 0.238998,-0.320999c0.067993,-0.106003 0.132996,-0.242004 0.201004,-0.401001c0.080994,-0.145996 0.146988,-0.335007 0.199997,-0.563004c0.067993,-0.212006 0.134995,-0.479004 0.188004,-0.802002c0.067993,-0.319 0.132996,-0.705994 0.187988,-1.147003c0.067001,-0.455994 0.12001,-0.988998 0.200012,-1.590988c0.013992,-0.106003 0.052994,-0.200012 0.082001,-0.253006c0.052994,-0.039993 0.104996,-0.068008 0.19899,-0.068008h2.674011c0.079987,0 0.145996,0.028015 0.199997,0.068008c0.039993,0.052994 0.065994,0.145996 0.065994,0.238998v4.839005h0.587006c0.054001,0 0.106995,0.026001 0.135986,0.054001c0.012009,0.052994 0.040009,0.104996 0.040009,0.184998v1.843994l-0.001999,0zm-1.537003,-6.57399h-1.710999c-0.065002,0.561996 -0.132996,1.042999 -0.188004,1.457001c-0.065002,0.412994 -0.119995,0.759995 -0.186005,1.082993c-0.052994,0.294006 -0.106995,0.561996 -0.174988,0.774002c-0.06601,0.214996 -0.119003,0.373993 -0.187012,0.533997c-0.052994,0.145996 -0.119995,0.266998 -0.185989,0.374008c-0.068008,0.106995 -0.133011,0.186996 -0.201004,0.268997h2.833008v-4.490997l0.000992,0z" fill="#A31E22"/>
     <path id="svg_51" d="m257.928009,143.229004c0,0.054993 -0.013,0.106003 -0.013,0.134003c-0.014008,0.038986 -0.027008,0.080994 -0.040009,0.107986c-0.014008,0.024002 -0.027008,0.052002 -0.053009,0.052002c-0.014984,0.013 -0.026001,0.027008 -0.06601,0.027008h-2.778976c-0.068008,0 -0.13501,-0.027008 -0.188004,-0.07901c-0.067001,-0.039993 -0.10701,-0.122986 -0.10701,-0.241989v-5.186005c0,-0.106995 0.040009,-0.186996 0.10701,-0.238998c0.052002,-0.056 0.119995,-0.068008 0.188004,-0.068008h2.751999c0.026978,0 0.052979,0.013 0.066986,0.013c0.026001,0.016006 0.040009,0.028 0.053009,0.056c0.013,0.039001 0.013,0.080002 0.027008,0.10701c0,0.039001 0.013,0.093002 0.013,0.160004c0,0.051987 -0.013,0.105988 -0.013,0.130997c-0.014008,0.041 -0.014008,0.082001 -0.027008,0.108994c-0.013,0.026001 -0.026001,0.039001 -0.053009,0.054001c-0.014008,0.013 -0.040009,0.013 -0.066986,0.013h-2.257996v1.830002h1.936005c0.027985,0 0.040985,0 0.066986,0.013c0.014008,0.014999 0.040009,0.039993 0.040009,0.057007c0.02597,0.022995 0.040985,0.063995 0.040985,0.090988c0,0.055008 0,0.10701 0,0.160004c0,0.055008 0,0.095001 0,0.136002c0,0.039001 -0.013977,0.078995 -0.040985,0.091003c0,0.026993 -0.026001,0.039993 -0.040009,0.054993c-0.027008,0.013 -0.039978,0.013 -0.066986,0.013h-1.936005v2.085999h2.284973c0.040009,0 0.052002,0 0.06601,0.013c0.026001,0.014999 0.040009,0.027008 0.053009,0.055008c0.013,0.024994 0.026001,0.065002 0.040009,0.093002c0,0.047989 0.013,0.103989 0.013,0.156998z" fill="#A31E22"/>
     <path id="svg_52" d="m263.140015,143.442993c0,0.013 -0.013,0.027008 -0.013,0.052002c-0.013,0.014999 -0.040009,0.027008 -0.067017,0.040009c-0.039978,0.014999 -0.067017,0.014999 -0.119995,0.014999c-0.052979,0.024002 -0.106995,0.024002 -0.187012,0.024002c-0.079987,0 -0.132996,0 -0.187012,-0.024002c-0.053986,0 -0.093964,0 -0.120972,-0.014999c-0.027008,-0.013 -0.040009,-0.025009 -0.06601,-0.040009c0,-0.024002 0,-0.039001 0,-0.052002v-5.052994h-1.644012c-0.079987,0.694 -0.159973,1.311005 -0.240967,1.830002c-0.080017,0.522003 -0.173035,0.988998 -0.253021,1.375992c-0.093994,0.375 -0.187988,0.710007 -0.294983,0.964005c-0.106018,0.268005 -0.239014,0.468002 -0.374023,0.626007c-0.132996,0.160995 -0.292999,0.269989 -0.46698,0.335999c-0.188019,0.052002 -0.386993,0.093002 -0.60202,0.093002c-0.02597,0 -0.066986,-0.013 -0.080994,-0.013c-0.026978,-0.014008 -0.052979,-0.028 -0.065979,-0.067001c-0.014038,-0.025009 -0.026001,-0.064011 -0.026001,-0.09201c-0.015015,-0.056 -0.028015,-0.095993 -0.028015,-0.159988c0,-0.081009 0.013977,-0.136002 0.028015,-0.188004c0,-0.040009 0.011963,-0.080994 0.026001,-0.106995c0.013977,-0.027008 0.026001,-0.053009 0.052979,-0.067001c0.013,-0.013 0.027008,-0.013 0.054016,-0.013c0.119995,0 0.212982,-0.026001 0.320984,-0.080002c0.09201,-0.040009 0.186005,-0.134003 0.266998,-0.242996c0.093018,-0.131012 0.174011,-0.291 0.268005,-0.533005c0.07901,-0.210999 0.144989,-0.507996 0.238983,-0.854004c0.081024,-0.360001 0.14801,-0.802002 0.227997,-1.307999c0.068024,-0.511002 0.147003,-1.097 0.213013,-1.806c0.014008,-0.121002 0.054016,-0.227997 0.093994,-0.279999c0.040009,-0.039993 0.107025,-0.068008 0.200012,-0.068008h2.578979c0.080017,0 0.147003,0.028015 0.187042,0.068008c0.053986,0.052994 0.079987,0.145996 0.079987,0.238998v5.399994l0.001007,0z" fill="#A31E22"/>
     <path id="svg_53" d="m269.554993,140.582993c0,0.453995 -0.06601,0.882004 -0.174011,1.257996c-0.106995,0.373001 -0.266968,0.692001 -0.494995,0.959c-0.22699,0.268997 -0.494995,0.483002 -0.828979,0.615997c-0.333008,0.134003 -0.722015,0.215012 -1.162018,0.215012c-0.440979,0 -0.816986,-0.068008 -1.135986,-0.188004c-0.307007,-0.136002 -0.574005,-0.322998 -0.789001,-0.574005c-0.199005,-0.255997 -0.359009,-0.563004 -0.46701,-0.923004c-0.093994,-0.375 -0.146973,-0.804993 -0.146973,-1.281998c0,-0.455994 0.053986,-0.871002 0.172974,-1.229996c0.094025,-0.373001 0.268005,-0.695999 0.495026,-0.962997c0.213989,-0.268997 0.494965,-0.456009 0.829987,-0.613998c0.333008,-0.132004 0.720001,-0.212997 1.161987,-0.212997c0.428009,0 0.788025,0.080994 1.110016,0.19899c0.319977,0.12001 0.587982,0.307999 0.800995,0.574005c0.213013,0.240997 0.359985,0.535004 0.46698,0.910004c0.107025,0.360001 0.161011,0.775009 0.161011,1.255997zm-0.815979,0.054001c0,-0.348999 -0.040009,-0.643997 -0.093994,-0.936005c-0.054016,-0.268005 -0.146027,-0.520996 -0.292999,-0.720993c-0.132996,-0.215012 -0.307037,-0.375 -0.548004,-0.481003c-0.22702,-0.134003 -0.507996,-0.188004 -0.841003,-0.188004c-0.335022,0 -0.616028,0.065994 -0.82901,0.188004c-0.241028,0.132996 -0.415009,0.293991 -0.562012,0.50499c-0.14798,0.215012 -0.254974,0.456009 -0.306976,0.723007c-0.055023,0.294006 -0.093994,0.589996 -0.093994,0.880997c0,0.350998 0.02597,0.669998 0.079987,0.949005c0.065002,0.283997 0.16098,0.550995 0.292999,0.75c0.13501,0.199005 0.30899,0.360001 0.548004,0.481003c0.212982,0.119995 0.493988,0.172989 0.842987,0.172989c0.332977,0 0.614014,-0.067993 0.841003,-0.187988c0.23999,-0.132004 0.427002,-0.292007 0.561005,-0.507004c0.147003,-0.214996 0.252991,-0.455002 0.307007,-0.749008c0.054993,-0.278976 0.095001,-0.585983 0.095001,-0.87999z" fill="#A31E22"/>
     <path id="svg_54" d="m274.593018,141.880005c0,0.171997 -0.014008,0.358994 -0.068024,0.505997c-0.040009,0.147003 -0.119995,0.296005 -0.187988,0.414001c-0.093018,0.121002 -0.187012,0.229004 -0.307007,0.319992c-0.119995,0.096008 -0.252991,0.175003 -0.400024,0.242004c-0.146973,0.054001 -0.306976,0.108002 -0.480988,0.132996c-0.159973,0.027008 -0.345978,0.055008 -0.573975,0.055008h-1.511017c-0.079987,0 -0.147003,-0.027008 -0.213013,-0.07901c-0.053986,-0.039993 -0.080994,-0.122986 -0.080994,-0.241989v-5.185989c0,-0.10701 0.027008,-0.187012 0.080994,-0.238998c0.06601,-0.056 0.133026,-0.068008 0.213013,-0.068008h1.309998c0.346985,0 0.641998,0.041 0.855011,0.096008c0.22699,0.079987 0.40097,0.159988 0.561981,0.291992c0.132019,0.134995 0.253021,0.281998 0.320007,0.455002c0.079987,0.188004 0.118988,0.401993 0.118988,0.628006c0,0.147995 -0.024963,0.269989 -0.051971,0.388c-0.040009,0.132996 -0.080017,0.253998 -0.147003,0.347992c-0.06601,0.108002 -0.132996,0.214996 -0.239014,0.294006c-0.106995,0.080994 -0.200989,0.159988 -0.334991,0.213989c0.160004,0.026001 0.307983,0.07901 0.44101,0.158005c0.132996,0.083008 0.267975,0.175003 0.360992,0.296005c0.106995,0.119995 0.186981,0.266998 0.252991,0.425995c0.053009,0.173996 0.081024,0.348984 0.081024,0.548996zm-1.164001,-2.608002c0,-0.132996 -0.012024,-0.268997 -0.052002,-0.372009c-0.028015,-0.106995 -0.093018,-0.214996 -0.187012,-0.294998c-0.080994,-0.078995 -0.188019,-0.134995 -0.320984,-0.187988c-0.134033,-0.026001 -0.308014,-0.052002 -0.535034,-0.052002h-0.800964v1.869995h0.880981c0.200989,0 0.360992,-0.014999 0.480988,-0.065994c0.121002,-0.040009 0.22702,-0.119003 0.307007,-0.215012c0.082001,-0.091995 0.147003,-0.199997 0.187012,-0.306992c0.027985,-0.121002 0.040009,-0.240997 0.040009,-0.375zm0.362976,2.647995c0,-0.160995 -0.027008,-0.322998 -0.094971,-0.455002c-0.040039,-0.136002 -0.132019,-0.23999 -0.240021,-0.334s-0.240997,-0.147995 -0.386993,-0.199997c-0.161987,-0.039993 -0.375,-0.078995 -0.615997,-0.078995h-0.92099v2.056992h1.122986c0.187012,0 0.333008,-0.026001 0.453979,-0.054993c0.132019,-0.054001 0.253021,-0.105011 0.347015,-0.199005c0.106995,-0.080994 0.187012,-0.173004 0.240021,-0.309006c0.066986,-0.118988 0.094971,-0.266998 0.094971,-0.425995z" fill="#A31E22"/>
     <path id="svg_55" d="m280.630981,140.582993c0,0.453995 -0.052002,0.882004 -0.171997,1.257996c-0.095001,0.373001 -0.266968,0.692001 -0.481995,0.959c-0.22699,0.268997 -0.506989,0.483002 -0.828003,0.615997c-0.333984,0.134003 -0.721985,0.215012 -1.162994,0.215012c-0.441986,0 -0.814972,-0.068008 -1.135986,-0.188004c-0.320007,-0.136002 -0.588013,-0.322998 -0.800995,-0.574005c-0.200012,-0.255997 -0.348022,-0.563004 -0.454987,-0.923004c-0.107025,-0.375 -0.160034,-0.804993 -0.160034,-1.281998c0,-0.455994 0.06601,-0.871002 0.174011,-1.229996c0.105988,-0.373001 0.266998,-0.695999 0.494995,-0.962997c0.22702,-0.268997 0.494995,-0.456009 0.84201,-0.613998c0.320007,-0.132004 0.721008,-0.212997 1.161987,-0.212997c0.415009,0 0.790009,0.080994 1.109009,0.19899c0.320984,0.12001 0.588013,0.307999 0.800995,0.574005c0.201019,0.240997 0.360992,0.535004 0.455017,0.910004c0.106964,0.360001 0.158966,0.775009 0.158966,1.255997zm-0.812988,0.054001c0,-0.348999 -0.027008,-0.643997 -0.093994,-0.936005c-0.054016,-0.268005 -0.147003,-0.520996 -0.292999,-0.720993c-0.134979,-0.215012 -0.308014,-0.375 -0.535004,-0.481003c-0.227997,-0.134003 -0.507996,-0.188004 -0.842987,-0.188004c-0.333008,0 -0.614014,0.065994 -0.84201,0.188004c-0.22699,0.132996 -0.415009,0.293991 -0.559998,0.50499c-0.136017,0.215012 -0.242004,0.456009 -0.294983,0.723007c-0.068024,0.294006 -0.106995,0.589996 -0.106995,0.880997c0,0.350998 0.039978,0.669998 0.093964,0.949005c0.053009,0.283997 0.145996,0.550995 0.294037,0.75c0.132965,0.199005 0.306976,0.360001 0.533997,0.481003c0.22699,0.119995 0.507996,0.172989 0.85498,0.172989c0.333008,0 0.615021,-0.067993 0.84198,-0.187988c0.22702,-0.132004 0.414001,-0.292007 0.562012,-0.507004c0.132019,-0.214996 0.239014,-0.455002 0.292999,-0.749008c0.054016,-0.278976 0.095001,-0.585983 0.095001,-0.87999z" fill="#A31E22"/>
     <path id="svg_56" d="m285.082001,143.229004c0,0.054993 0,0.106003 0,0.134003c-0.011993,0.038986 -0.026001,0.080994 -0.039978,0.107986c-0.012024,0.024002 -0.026031,0.052002 -0.054016,0.052002c-0.014008,0.013 -0.040009,0.027008 -0.053986,0.027008h-2.792023c-0.066986,0 -0.147003,-0.027008 -0.200989,-0.07901c-0.053009,-0.039993 -0.080017,-0.122986 -0.080017,-0.241989v-5.186005c0,-0.106995 0.027008,-0.186996 0.080017,-0.238998c0.053986,-0.056 0.134003,-0.068008 0.200989,-0.068008h2.751984c0.028015,0 0.040039,0.013 0.068024,0.013c0.011993,0.016006 0.039978,0.028 0.053009,0.056c0,0.039001 0.013977,0.080002 0.026001,0.10701c0,0.039001 0,0.093002 0,0.160004c0,0.051987 0,0.105988 0,0.130997c-0.012024,0.041 -0.026001,0.082001 -0.026001,0.108994c-0.014008,0.026001 -0.041016,0.039001 -0.053009,0.054001c-0.027985,0.013 -0.040009,0.013 -0.068024,0.013h-2.270966v1.830002h1.951996c0.02597,0 0.040009,0 0.064972,0.013c0.015015,0.014999 0.027008,0.039993 0.040009,0.057007c0.014008,0.022995 0.027008,0.063995 0.027008,0.090988c0.013977,0.055008 0.027008,0.10701 0.027008,0.160004c0,0.055008 -0.013031,0.095001 -0.027008,0.136002c0,0.039001 -0.013,0.078995 -0.027008,0.091003c-0.013,0.026993 -0.024994,0.039993 -0.040009,0.054993c-0.02597,0.013 -0.039978,0.013 -0.064972,0.013h-1.951996v2.085999h2.311005c0.013977,0 0.039978,0 0.053986,0.013c0.027008,0.014999 0.041992,0.027008 0.054016,0.055008c0.013977,0.024994 0.027985,0.065002 0.039978,0.093002c0,0.047989 0,0.103989 0,0.156998z" fill="#A31E22"/>
     <path id="svg_57" d="m292.298004,142.720993c0,0.052994 0,0.093002 0,0.132996c0,0.028 -0.014008,0.055008 -0.026001,0.082001c0,0.024994 -0.014984,0.052994 -0.028015,0.078995c-0.011993,0.026001 -0.02597,0.054001 -0.051971,0.081009c-0.042023,0.024002 -0.106995,0.080002 -0.201019,0.132996c-0.093994,0.055008 -0.213013,0.119003 -0.346985,0.173004c-0.147003,0.069 -0.309021,0.121002 -0.495026,0.147995c-0.187988,0.053009 -0.389008,0.065002 -0.60199,0.065002c-0.373993,0 -0.721985,-0.065002 -1.015015,-0.184998c-0.319977,-0.123001 -0.561981,-0.311005 -0.789001,-0.548996c-0.213989,-0.256012 -0.373962,-0.563004 -0.480988,-0.910004c-0.118988,-0.375 -0.173981,-0.787003 -0.173981,-1.255997c0,-0.480011 0.067993,-0.910004 0.173981,-1.282013c0.133026,-0.372986 0.308014,-0.695999 0.533997,-0.962997c0.21402,-0.268997 0.495026,-0.455994 0.790009,-0.58699c0.320984,-0.14801 0.667999,-0.215012 1.054993,-0.215012c0.160004,0 0.320007,0.016006 0.494995,0.040009c0.147003,0.039001 0.294006,0.067001 0.427002,0.121994c0.13501,0.053009 0.255005,0.104004 0.362,0.160004c0.106018,0.065002 0.171997,0.119995 0.213013,0.158997c0.054016,0.040009 0.067017,0.07901 0.093994,0.093002c0,0.014999 0.011993,0.041 0.026001,0.083008c0,0.011993 0,0.051987 0,0.090988c0.015015,0.041 0.015015,0.093002 0.015015,0.134003c0,0.06601 0,0.106995 -0.015015,0.16301c0,0.038986 0,0.078995 -0.026001,0.102997c0,0.028992 -0.026978,0.056992 -0.039978,0.056992c-0.013,0.027008 -0.042023,0.027008 -0.054016,0.027008c-0.052979,0 -0.106018,-0.027008 -0.187012,-0.084c-0.066986,-0.063004 -0.173004,-0.130997 -0.279968,-0.199005c-0.121033,-0.065994 -0.268005,-0.130997 -0.44104,-0.199997c-0.172974,-0.052002 -0.375,-0.078995 -0.60199,-0.078995c-0.266998,0 -0.493011,0.052994 -0.708008,0.160995c-0.212982,0.106003 -0.386963,0.253998 -0.546997,0.453003c-0.159973,0.199997 -0.266998,0.442001 -0.347961,0.722992c-0.080017,0.294006 -0.120026,0.626007 -0.120026,0.988998c0,0.373001 0.040009,0.692001 0.106018,0.988007c0.093994,0.278992 0.200989,0.507004 0.347992,0.705994c0.159973,0.188004 0.333008,0.335999 0.547974,0.430008c0.227997,0.093994 0.466003,0.147003 0.748016,0.147003c0.22699,0 0.427002,-0.027008 0.600006,-0.082001c0.174988,-0.065002 0.321991,-0.12001 0.442993,-0.199005c0.119995,-0.069 0.213013,-0.121002 0.292999,-0.188004c0.081024,-0.065994 0.147003,-0.093002 0.188019,-0.093002c0.026001,0 0.040009,0.012009 0.052979,0.026001c0.011993,0 0.026001,0.026001 0.041016,0.054001c0.011993,0.027008 0.011993,0.052002 0.026001,0.106003c-0.001007,0.026016 -0.001007,0.095016 -0.001007,0.162003z" fill="#A31E22"/>
     <path id="svg_58" d="m298.178009,140.582993c0,0.453995 -0.053009,0.882004 -0.160004,1.257996c-0.106995,0.373001 -0.268005,0.692001 -0.495026,0.959c-0.225983,0.268997 -0.493988,0.483002 -0.827972,0.615997c-0.335022,0.134003 -0.722015,0.215012 -1.163025,0.215012s-0.815979,-0.068008 -1.135986,-0.188004c-0.320984,-0.136002 -0.575012,-0.322998 -0.787994,-0.574005c-0.214996,-0.255997 -0.360992,-0.563004 -0.454987,-0.923004c-0.106995,-0.375 -0.158997,-0.804993 -0.158997,-1.281998c0,-0.455994 0.052002,-0.871002 0.158997,-1.229996c0.120972,-0.373001 0.281982,-0.695999 0.507996,-0.962997c0.214996,-0.268997 0.494995,-0.456009 0.828979,-0.613998c0.334015,-0.132004 0.722015,-0.212997 1.162994,-0.212997c0.42804,0 0.802032,0.080994 1.122009,0.19899c0.308014,0.12001 0.574982,0.307999 0.789978,0.574005c0.200012,0.240997 0.359039,0.535004 0.46701,0.910004c0.106018,0.360001 0.146027,0.775009 0.146027,1.255997zm-0.815002,0.054001c0,-0.348999 -0.026001,-0.643997 -0.080017,-0.936005c-0.066986,-0.268005 -0.16098,-0.520996 -0.293976,-0.720993c-0.146027,-0.215012 -0.321014,-0.375 -0.548004,-0.481003c-0.227997,-0.134003 -0.508026,-0.188004 -0.84201,-0.188004c-0.333008,0 -0.614014,0.065994 -0.841003,0.188004c-0.227997,0.132996 -0.415009,0.293991 -0.546997,0.50499c-0.147003,0.215012 -0.240997,0.456009 -0.30899,0.723007c-0.06601,0.294006 -0.094025,0.589996 -0.094025,0.880997c0,0.350998 0.028015,0.669998 0.094025,0.949005c0.053986,0.283997 0.147003,0.550995 0.280975,0.75c0.134033,0.199005 0.307007,0.360001 0.533997,0.481003c0.228027,0.119995 0.522034,0.172989 0.856018,0.172989c0.346985,0 0.614014,-0.067993 0.855011,-0.187988c0.227997,-0.132004 0.414978,-0.292007 0.546997,-0.507004c0.147003,-0.214996 0.240997,-0.455002 0.307983,-0.749008c0.054016,-0.278976 0.080017,-0.585983 0.080017,-0.87999z" fill="#A31E22"/>
     <path id="svg_59" d="m302.828003,138.070999c0,0.052002 0,0.106003 0,0.147003c-0.014008,0.039001 -0.027008,0.065002 -0.040009,0.106995c-0.014008,0.012009 -0.028015,0.039001 -0.053986,0.052002c-0.014008,0.013 -0.040009,0.013 -0.053009,0.013h-1.631012v5.039993c0,0.025009 -0.011993,0.040009 -0.02597,0.064011c-0.014008,0.014999 -0.026001,0.026993 -0.053009,0.026993c-0.040985,0.027008 -0.080017,0.027008 -0.134003,0.027008c-0.041016,0.024002 -0.105988,0.024002 -0.187012,0.024002c-0.066986,0 -0.121002,0 -0.174988,-0.024002c-0.052002,0 -0.092987,0 -0.119995,-0.027008c-0.026031,0 -0.053009,-0.013 -0.067017,-0.026993c-0.01297,-0.024002 -0.01297,-0.039001 -0.01297,-0.064011v-5.039993h-1.630005c-0.026001,0 -0.05304,0 -0.067017,-0.013c-0.026001,-0.013 -0.040009,-0.039993 -0.053009,-0.052002c-0.014008,-0.041992 -0.014008,-0.067993 -0.027008,-0.106995c-0.013977,-0.041 -0.013977,-0.096008 -0.013977,-0.147003c0,-0.056992 0,-0.108002 0.013977,-0.160004c0.013,-0.026993 0.013,-0.067993 0.027008,-0.106995c0.014008,-0.027008 0.027008,-0.039993 0.053009,-0.056c0.013977,0 0.041016,-0.013 0.067017,-0.013h4.03598c0.014008,0 0.039978,0.013 0.053009,0.013c0.02597,0.016006 0.040985,0.028 0.053986,0.056c0.011993,0.039001 0.026001,0.080002 0.040009,0.106995c0,0.052002 0,0.104004 0,0.160004z" fill="#A31E22"/>
     <path id="svg_60" d="m307.238007,139.434006c0,0.292999 -0.055023,0.559998 -0.147003,0.787003c-0.093994,0.242996 -0.22699,0.443008 -0.414001,0.602005c-0.174011,0.160004 -0.386993,0.29599 -0.641998,0.375c-0.268005,0.093002 -0.574005,0.132004 -0.936005,0.132004h-0.667999v2.10199c0,0.025009 0,0.040009 -0.011993,0.064011c-0.014008,0.014999 -0.027008,0.026993 -0.055023,0.026993c-0.02597,0.026993 -0.065979,0.026993 -0.119995,0.026993c-0.052979,0.024002 -0.121002,0.024002 -0.187988,0.024002c-0.079987,0 -0.131989,0 -0.186981,-0.024002c-0.053009,0 -0.09201,0 -0.120026,-0.026993c-0.027008,0 -0.052979,-0.013 -0.06601,-0.026993c0,-0.024002 -0.013977,-0.039001 -0.013977,-0.064011v-5.358994c0,-0.121002 0.027008,-0.214996 0.093994,-0.268005c0.053009,-0.039993 0.132996,-0.067993 0.213013,-0.067993h1.243988c0.119995,0 0.23999,0.013 0.358978,0.013c0.121033,0.015991 0.254028,0.028 0.402039,0.067993c0.160004,0.040009 0.319,0.095001 0.47998,0.197998c0.161011,0.084 0.307983,0.214996 0.427002,0.350998c0.106995,0.134003 0.188019,0.292999 0.253998,0.480011c0.054993,0.18399 0.096008,0.371979 0.096008,0.58699zm-0.81601,0.064987c0,-0.227005 -0.041016,-0.438004 -0.132996,-0.598999c-0.080017,-0.147003 -0.187012,-0.268997 -0.320984,-0.350006c-0.134003,-0.080002 -0.267029,-0.134003 -0.400024,-0.134003c-0.14801,-0.026001 -0.281982,-0.039001 -0.414978,-0.039001h-0.722015v2.325012h0.708008c0.227997,0 0.428986,-0.039001 0.575989,-0.096008c0.160004,-0.052994 0.292999,-0.132004 0.386993,-0.238998c0.106995,-0.106995 0.187012,-0.238998 0.239014,-0.388c0.054993,-0.144989 0.080994,-0.303986 0.080994,-0.479996z" fill="#A31E22"/>
     <path id="svg_61" d="m310.724976,141.932007c-0.130951,0.335007 -0.266968,0.628998 -0.386963,0.84201c-0.119995,0.227997 -0.239014,0.401993 -0.360992,0.520996c-0.132996,0.121002 -0.280029,0.199997 -0.413025,0.25499c-0.147003,0.039001 -0.320984,0.053009 -0.507996,0.053009c-0.066986,0 -0.132996,0 -0.201019,0c-0.066986,-0.014008 -0.132996,-0.028 -0.187988,-0.053009c-0.065979,0 -0.119995,-0.026993 -0.160004,-0.054993c-0.053986,-0.011993 -0.079987,-0.024002 -0.106964,-0.052002c-0.026031,0 -0.026031,-0.026993 -0.040039,-0.056c-0.011993,-0.013992 -0.026001,-0.039993 -0.026001,-0.065002c-0.013977,-0.039001 -0.013977,-0.065994 -0.013977,-0.119995c-0.013,-0.042007 -0.013,-0.095001 -0.013,-0.160995c0,-0.105011 0.013,-0.188004 0.026978,-0.241013c0.040009,-0.051987 0.06604,-0.078995 0.105011,-0.078995c0.028015,0 0.053986,0.013 0.096008,0.027008c0.024994,0.024994 0.065002,0.039993 0.10498,0.064987c0.040009,0.014999 0.107025,0.040009 0.174011,0.068008c0.054016,0.011002 0.132996,0.026001 0.214996,0.026001c0.080017,0 0.145996,-0.016006 0.213013,-0.026001c0.065979,-0.028 0.119995,-0.054001 0.186005,-0.108002c0.053009,-0.052994 0.106995,-0.132004 0.175018,-0.227997c0.064972,-0.09201 0.131958,-0.227997 0.198975,-0.387009l-2.057983,-4.167999c-0.026031,-0.056 -0.054047,-0.095001 -0.054047,-0.134995c0,-0.052994 0.014008,-0.080002 0.027008,-0.093002c0.026031,-0.015991 0.06604,-0.039001 0.134033,-0.039001c0.051971,0 0.132996,-0.015991 0.22699,-0.015991c0.080017,0 0.145996,0 0.200012,0.015991c0.053986,0 0.093994,0.011002 0.133972,0.02301c0.026001,0.015991 0.054016,0.028 0.080017,0.056c0.013977,0.026993 0.026978,0.052994 0.041992,0.079987l1.041016,2.124008c0.121002,0.227997 0.227997,0.468002 0.32196,0.682999c0.107025,0.212997 0.213013,0.440002 0.320038,0.666l0,0c0.093994,-0.238007 0.160004,-0.453003 0.252991,-0.692001c0.080994,-0.214996 0.188019,-0.468994 0.281006,-0.735001l0.82901,-2.072006c0,-0.024994 0.01297,-0.052994 0.026978,-0.079987c0.026001,0 0.040009,-0.028 0.080017,-0.028c0.02597,-0.02301 0.064972,-0.02301 0.132996,-0.02301c0.039978,-0.015991 0.119019,-0.015991 0.199982,-0.015991c0.095001,0 0.174988,0.015991 0.214996,0.015991c0.06601,0 0.094025,0.02301 0.120026,0.039001c0.028015,0.013 0.039978,0.040009 0.039978,0.067001c0,0.024994 -0.011963,0.080002 -0.02597,0.104004l-1.644043,3.996994z" fill="#A31E22"/>
     <path id="svg_62" d="m317.541016,144.964996c0,0.028 0,0.042007 -0.013031,0.055008c0,0.014999 -0.027985,0.026001 -0.039978,0.026001c-0.028015,0.013 -0.067017,0.026993 -0.107025,0.026993c-0.053986,0 -0.093994,0.013 -0.173981,0.013c-0.053009,0 -0.121002,-0.013 -0.147003,-0.013c-0.040009,0 -0.079987,-0.014999 -0.10498,-0.026993c-0.028015,0 -0.041992,-0.012009 -0.054016,-0.026001c-0.013977,-0.013 -0.013977,-0.026001 -0.013977,-0.055008v-1.414993h-4.370026v1.414993c0,0.028 -0.013,0.042007 -0.013,0.055008c-0.014008,0.014999 -0.040009,0.026001 -0.067993,0.026001c-0.026001,0.013 -0.052002,0.026993 -0.09201,0.026993c-0.041992,0 -0.094971,0.013 -0.161011,0.013c-0.053986,0 -0.121002,-0.013 -0.161957,-0.013c-0.040009,0 -0.06601,-0.014999 -0.09201,-0.026993c-0.040009,0 -0.054016,-0.012009 -0.067017,-0.026001c-0.013,-0.013 -0.013,-0.026001 -0.013,-0.055008v-1.856995c0,-0.065994 0,-0.119003 0.040009,-0.171997c0.026001,-0.027008 0.06601,-0.054001 0.132019,-0.054001h0.348969c0.078979,-0.108002 0.145996,-0.214996 0.22702,-0.320999c0.079987,-0.106003 0.145966,-0.242004 0.212982,-0.401001c0.054016,-0.145996 0.120026,-0.335007 0.188019,-0.563004c0.053009,-0.212006 0.119965,-0.479004 0.186981,-0.802002c0.066986,-0.319 0.119995,-0.705994 0.187988,-1.147003c0.052032,-0.455994 0.119995,-0.988998 0.186005,-1.590988c0.027985,-0.106003 0.053009,-0.200012 0.107025,-0.253006c0.039978,-0.039993 0.093994,-0.068008 0.172974,-0.068008h2.686005c0.080017,0 0.147003,0.028015 0.187988,0.068008c0.054016,0.052994 0.080017,0.145996 0.080017,0.238998v4.839005h0.574982c0.067017,0 0.107025,0.026001 0.133026,0.054001c0.027985,0.052994 0.040985,0.104996 0.040985,0.184998v1.843994l-0.000977,0zm-1.524017,-6.57399h-1.723999c-0.067993,0.561996 -0.119995,1.042999 -0.187988,1.457001c-0.053009,0.412994 -0.119019,0.759995 -0.173004,1.082993c-0.053009,0.294006 -0.121033,0.561996 -0.173004,0.774002c-0.066986,0.214996 -0.119995,0.373993 -0.188019,0.533997c-0.067993,0.145996 -0.119995,0.266998 -0.186981,0.374008s-0.132996,0.186996 -0.199982,0.268997h2.832977v-4.490997l0,0z" fill="#A31E22"/>
     <path id="svg_63" d="m322.699005,143.431c0,0.024994 0,0.039993 -0.014008,0.063995c-0.013,0.014999 -0.026978,0.027008 -0.067017,0.027008c-0.02597,0.026993 -0.065979,0.026993 -0.120972,0.026993c-0.040009,0.024002 -0.106018,0.024002 -0.173004,0.024002c-0.080994,0 -0.147003,0 -0.201019,-0.024002c-0.039978,0 -0.079987,0 -0.118988,-0.026993c-0.028015,0 -0.040985,-0.013 -0.053986,-0.027008c-0.014008,-0.024002 -0.014008,-0.039001 -0.014008,-0.063995v-2.578995h-2.644989v2.578995c0,0.024994 -0.013,0.039993 -0.013,0.063995c-0.014038,0.014999 -0.040009,0.027008 -0.067017,0.027008c-0.026978,0.026993 -0.067993,0.026993 -0.119995,0.026993c-0.052979,0.024002 -0.106995,0.024002 -0.187012,0.024002c-0.080994,0 -0.13501,0 -0.173981,-0.024002c-0.068024,0 -0.106995,0 -0.134003,-0.026993c-0.027008,0 -0.040009,-0.013 -0.053009,-0.027008c-0.014008,-0.024002 -0.014008,-0.039001 -0.014008,-0.063995v-5.574005c0,-0.024994 0,-0.052994 0.014008,-0.052994c0.013977,-0.027008 0.026001,-0.056 0.053009,-0.056c0.026001,-0.013 0.065979,-0.022995 0.134003,-0.022995c0.039978,0 0.093994,-0.016006 0.173981,-0.016006c0.07901,0 0.132996,0.016006 0.187012,0.016006c0.052002,0 0.093018,0.010986 0.119995,0.022995c0.027008,0 0.052979,0.028 0.067017,0.056c0,0 0.013,0.026993 0.013,0.052994v2.324005h2.644989v-2.324005c0,-0.024994 0,-0.052994 0.014008,-0.052994c0.013,-0.027008 0.02597,-0.056 0.053986,-0.056c0.040009,-0.013 0.080017,-0.022995 0.118988,-0.022995c0.054016,0 0.120026,-0.016006 0.201019,-0.016006c0.066986,0 0.132996,0.016006 0.173004,0.016006c0.054993,0 0.095001,0.010986 0.120972,0.022995c0.040039,0 0.054016,0.028 0.067017,0.056c0.014008,0 0.014008,0.026993 0.014008,0.052994v5.574005l0,0z" fill="#A31E22"/>
     <path id="svg_64" d="m328.605011,143.442993c0,0.013 -0.014008,0.027008 -0.027008,0.052002c-0.013977,0.014999 -0.040009,0.027008 -0.067017,0.040009c-0.026001,0.014999 -0.065979,0.014999 -0.106995,0.014999c-0.052979,0.024002 -0.121002,0.024002 -0.186981,0.024002c-0.080017,0 -0.134003,0 -0.188019,-0.024002c-0.053986,0 -0.093994,0 -0.118988,-0.014999c-0.028015,-0.013 -0.053986,-0.025009 -0.067993,-0.040009c-0.014008,-0.024002 -0.014008,-0.039001 -0.014008,-0.052002v-3.821991c0,-0.095001 0,-0.188004 0,-0.294006c0.014008,-0.095993 0.014008,-0.187988 0.014008,-0.266998l0,0c-0.026001,0.040009 -0.054016,0.07901 -0.080017,0.130997c-0.040009,0.055008 -0.065979,0.108002 -0.093994,0.16301c-0.026001,0.052002 -0.06601,0.104996 -0.093994,0.144989c-0.040009,0.056 -0.065002,0.10701 -0.092987,0.14801l-2.524017,3.79599c-0.013977,0.027008 -0.040985,0.040009 -0.054016,0.052002c-0.013977,0.027008 -0.040009,0.027008 -0.06601,0.040009c-0.027985,0.014999 -0.066986,0.014999 -0.106964,0.026993c-0.040009,0.012009 -0.080017,0.012009 -0.147003,0.012009c-0.068024,0 -0.119995,0 -0.174011,-0.024002c-0.039978,0 -0.079987,0 -0.093994,-0.027008c-0.027008,0 -0.053009,-0.026993 -0.053009,-0.026993c-0.01297,-0.024002 -0.01297,-0.052002 -0.01297,-0.078995v-5.560013c0,-0.024994 0,-0.052994 0.01297,-0.052994c0.014008,-0.027008 0.040009,-0.056 0.067017,-0.056c0.040009,-0.013 0.079987,-0.022995 0.120972,-0.022995c0.053009,-0.016006 0.119019,-0.016006 0.187042,-0.016006c0.065979,0 0.133972,0 0.172974,0.016006c0.054016,0 0.093994,0.010986 0.134003,0.022995c0.026001,0 0.040009,0.028 0.053009,0.056c0.026001,0 0.026001,0.026993 0.026001,0.052994v3.822998c0,0.07901 0,0.161011 0,0.267014c0,0.078995 -0.014008,0.184998 -0.026001,0.26799h0.013c0.039978,-0.082993 0.106995,-0.162003 0.161011,-0.26799c0.065979,-0.105011 0.132996,-0.215012 0.212982,-0.320007l2.511993,-3.783005c0,-0.026001 0.028015,-0.039001 0.040009,-0.065994c0.027985,-0.013 0.039978,-0.028 0.066986,-0.028c0.026001,-0.013 0.06601,-0.022995 0.106018,-0.022995c0.039978,-0.016006 0.093994,-0.016006 0.146973,-0.016006c0.06601,0 0.120026,0 0.174011,0.016006c0.040009,0 0.080017,0.011002 0.093994,0.022995c0.026001,0.016006 0.053009,0.028 0.053009,0.056c0.013,0 0.027008,0.026993 0.027008,0.052994v5.584l0.001007,0z" fill="#A31E22"/>
     <path id="svg_65" d="m333.708984,143.442993c0,0.013 -0.013977,0.027008 -0.026001,0.052002c-0.013977,0.014999 -0.026978,0.027008 -0.067993,0.027008c-0.011993,0.026993 -0.052002,0.026993 -0.10498,0.026993c-0.042023,0.024002 -0.106995,0.024002 -0.174011,0.024002c-0.080017,0 -0.147003,0 -0.187012,-0.024002c-0.053986,0 -0.092987,0 -0.132996,-0.026993c-0.027985,0 -0.052979,-0.013 -0.067993,-0.027008c-0.013977,-0.024002 -0.013977,-0.039001 -0.013977,-0.052002v-2.232986c-0.172028,0.014999 -0.347046,0.028 -0.507019,0.039993c-0.160004,0.014999 -0.321014,0.026993 -0.507996,0.026993c-0.281006,0 -0.548004,-0.026993 -0.801025,-0.079987c-0.253967,-0.027008 -0.454956,-0.13501 -0.640961,-0.267014c-0.187012,-0.120987 -0.322021,-0.293991 -0.428009,-0.534988c-0.105988,-0.227005 -0.161011,-0.533005 -0.161011,-0.896011v-1.64299c0,-0.025009 0.014008,-0.053009 0.027008,-0.053009c0,-0.026993 0.027008,-0.056 0.053009,-0.056c0.026978,-0.013 0.066986,-0.022995 0.121002,-0.022995s0.106964,-0.016006 0.172974,-0.016006c0.080017,0 0.13501,0.016006 0.187988,0.016006c0.041016,0 0.080994,0.011002 0.120026,0.022995c0.039978,0 0.053986,0.028 0.067017,0.056c0.026001,0 0.026001,0.027008 0.026001,0.053009v1.591003c0,0.173996 0.014984,0.334991 0.053986,0.480988c0.040009,0.145004 0.106995,0.267014 0.213013,0.372009c0.093994,0.095001 0.227997,0.175003 0.40097,0.227997c0.16098,0.054993 0.388,0.078995 0.656006,0.078995c0.158997,0 0.320007,0 0.480988,-0.011993c0.147003,-0.013 0.307007,-0.028 0.466034,-0.041v-2.697998c0,-0.025009 0,-0.053009 0.013977,-0.053009c0.015015,-0.026993 0.040009,-0.056 0.067993,-0.056c0.040009,-0.013 0.080017,-0.022995 0.132996,-0.022995c0.040009,0 0.106995,-0.016006 0.187012,-0.016006c0.067017,0 0.132996,0.016006 0.174011,0.016006c0.054016,0 0.093994,0.011002 0.10498,0.022995c0.041016,0 0.054016,0.028 0.067993,0.056c0.012024,0 0.026001,0.027008 0.026001,0.053009v5.58699l0,0z" fill="#A31E22"/>
     <path id="svg_66" d="m338.480011,143.229004c0,0.054993 0,0.106003 -0.013,0.134003c0,0.038986 -0.014008,0.080994 -0.026001,0.107986c-0.013,0.024002 -0.027008,0.052002 -0.053986,0.052002c-0.013031,0.013 -0.040039,0.027008 -0.06604,0.027008h-2.779968c-0.06601,0 -0.134003,-0.027008 -0.200012,-0.07901c-0.054016,-0.039993 -0.093994,-0.122986 -0.093994,-0.241989v-5.186005c0,-0.106995 0.039978,-0.186996 0.093994,-0.238998c0.065002,-0.056 0.132996,-0.068008 0.200012,-0.068008h2.752991c0.026978,0 0.039978,0.013 0.065979,0.013c0.027039,0.016006 0.027039,0.028 0.041016,0.056c0.027008,0.039001 0.027008,0.080002 0.027008,0.10701c0.013,0.039001 0.026001,0.093002 0.026001,0.160004c0,0.051987 -0.013,0.105988 -0.026001,0.130997c0,0.041 0,0.082001 -0.027008,0.108994c-0.013977,0.026001 -0.013977,0.039001 -0.041016,0.054001c-0.026001,0.013 -0.039978,0.013 -0.065979,0.013h-2.272003v1.830002h1.950989c0.014008,0 0.040009,0 0.06601,0.013c0.014008,0.014999 0.027985,0.039993 0.042023,0.057007c0.011963,0.022995 0.02597,0.063995 0.039978,0.090988c0,0.055008 0,0.10701 0,0.160004c0,0.055008 0,0.095001 0,0.136002c-0.014008,0.039001 -0.028015,0.078995 -0.039978,0.091003c-0.014038,0.026993 -0.027008,0.039993 -0.042023,0.054993c-0.026001,0.013 -0.052002,0.013 -0.06601,0.013h-1.950989v2.085999h2.298981c0.027008,0 0.053009,0 0.06604,0.013c0.026978,0.014999 0.040985,0.027008 0.053986,0.055008c0.013,0.024994 0.026001,0.065002 0.026001,0.093002c0.013,0.047989 0.013,0.103989 0.013,0.156998z" fill="#A31E22"/>
     <path id="svg_67" d="m343.397003,142.720993c0,0.052994 0,0.093002 0,0.132996c0,0.028 -0.013,0.055008 -0.013,0.082001c0,0.024994 -0.014008,0.052994 -0.040009,0.078995c0,0.026001 -0.026001,0.054001 -0.053986,0.081009c-0.027008,0.024002 -0.095032,0.080002 -0.187012,0.132996c-0.092987,0.055008 -0.214996,0.119003 -0.360016,0.173004c-0.146973,0.069 -0.30899,0.121002 -0.481995,0.147995c-0.187988,0.053009 -0.386993,0.065002 -0.61499,0.065002c-0.373993,0 -0.721008,-0.065002 -1.015015,-0.184998c-0.30899,-0.123001 -0.561981,-0.311005 -0.774963,-0.548996c-0.213013,-0.256012 -0.373993,-0.563004 -0.495026,-0.910004c-0.119995,-0.375 -0.172974,-0.787003 -0.172974,-1.255997c0,-0.480011 0.064972,-0.910004 0.186981,-1.282013c0.121002,-0.372986 0.292999,-0.695999 0.520996,-0.962997c0.227997,-0.268997 0.494995,-0.455994 0.815002,-0.58699c0.307007,-0.14801 0.653992,-0.215012 1.029999,-0.215012c0.173004,0 0.332001,0.016006 0.493011,0.040009c0.159973,0.039001 0.293976,0.067001 0.427002,0.121994c0.133972,0.053009 0.269012,0.104004 0.375,0.160004c0.106995,0.065002 0.173981,0.119995 0.213013,0.158997c0.040985,0.040009 0.067993,0.07901 0.080994,0.093002c0.013977,0.014999 0.013977,0.041 0.013977,0.083008c0.013031,0.011993 0.026001,0.051987 0.026001,0.090988c0.014008,0.041 0.014008,0.093002 0.014008,0.134003c0,0.06601 0,0.106995 -0.014008,0.16301c-0.01297,0.038986 -0.026001,0.078995 -0.026001,0.102997c-0.013977,0.028992 -0.026001,0.056992 -0.039978,0.056992c-0.028015,0.027008 -0.042023,0.027008 -0.054993,0.027008c-0.054047,0 -0.106018,-0.027008 -0.188019,-0.084c-0.065002,-0.063004 -0.173004,-0.130997 -0.292999,-0.199005c-0.108002,-0.065994 -0.252014,-0.130997 -0.428009,-0.199997c-0.173004,-0.052002 -0.373993,-0.078995 -0.614014,-0.078995c-0.267975,0 -0.494965,0.052994 -0.707977,0.160995c-0.200989,0.106003 -0.387024,0.253998 -0.549011,0.453003c-0.147003,0.199997 -0.266968,0.442001 -0.333008,0.722992c-0.093964,0.294006 -0.134003,0.626007 -0.134003,0.988998c0,0.373001 0.040039,0.692001 0.120026,0.988007c0.080017,0.278992 0.198975,0.507004 0.345978,0.705994c0.14801,0.188004 0.321991,0.335999 0.549011,0.430008c0.212982,0.093994 0.45401,0.147003 0.735992,0.147003c0.228027,0 0.427002,-0.027008 0.601013,-0.082001c0.173004,-0.065002 0.320007,-0.12001 0.439972,-0.199005c0.120026,-0.069 0.227051,-0.121002 0.308014,-0.188004c0.06601,-0.065994 0.146027,-0.093002 0.173035,-0.093002c0.040985,0 0.040985,0.012009 0.066986,0.026001c0,0 0.02597,0.026001 0.040009,0.054001c0,0.027008 0,0.052002 0.01297,0.106003c0.002014,0.026016 0.002014,0.095016 0.002014,0.162003z" fill="#A31E22"/>
     <path id="svg_68" d="m348.062988,138.070999c0,0.052002 0,0.106003 0,0.147003c-0.013977,0.039001 -0.028992,0.065002 -0.028992,0.106995c-0.026001,0.012009 -0.039978,0.039001 -0.053986,0.052002c-0.026001,0.013 -0.052002,0.013 -0.065002,0.013h-1.628998v5.039993c0,0.025009 -0.015015,0.040009 -0.028992,0.064011c0,0.014999 -0.027008,0.026993 -0.053009,0.026993c-0.040009,0.027008 -0.080017,0.027008 -0.119995,0.027008c-0.055023,0.024002 -0.122009,0.024002 -0.187012,0.024002c-0.080994,0 -0.134003,0 -0.188019,-0.024002c-0.054993,0 -0.093994,0 -0.120972,-0.027008c-0.026001,0 -0.053009,-0.013 -0.065002,-0.026993c-0.014008,-0.024002 -0.014008,-0.039001 -0.014008,-0.064011v-5.039993h-1.632019c-0.026001,0 -0.053986,0 -0.06601,-0.013c-0.026978,-0.013 -0.039978,-0.039993 -0.052979,-0.052002c0,-0.041992 -0.013977,-0.067993 -0.026001,-0.106995c0,-0.041 0,-0.096008 0,-0.147003c0,-0.056992 0,-0.108002 0,-0.160004c0.012024,-0.026993 0.026001,-0.067993 0.026001,-0.106995c0.014008,-0.027008 0.026001,-0.039993 0.052979,-0.056c0.012024,0 0.040009,-0.013 0.06601,-0.013h4.037018c0.013,0 0.040009,0.013 0.065002,0.013c0.013977,0.016006 0.028015,0.028 0.053986,0.056c0,0.039001 0.015015,0.080002 0.028992,0.106995c0.001007,0.052002 0.001007,0.104004 0.001007,0.160004z" fill="#A31E22"/>
     <path id="svg_69" d="m352.737,141.880005c0,0.171997 -0.026001,0.358994 -0.07901,0.505997c-0.040009,0.147003 -0.108002,0.296005 -0.187988,0.414001c-0.093994,0.121002 -0.187012,0.229004 -0.294006,0.319992c-0.132996,0.096008 -0.266998,0.175003 -0.414001,0.242004c-0.145996,0.054001 -0.306976,0.108002 -0.480011,0.132996c-0.16098,0.027008 -0.346985,0.055008 -0.574982,0.055008h-1.511017c-0.065002,0 -0.132996,-0.027008 -0.199982,-0.07901c-0.06601,-0.039993 -0.093018,-0.122986 -0.093018,-0.241989v-5.185989c0,-0.10701 0.026031,-0.187012 0.093018,-0.238998c0.066986,-0.056 0.134979,-0.068008 0.199982,-0.068008h1.309998c0.361023,0 0.642029,0.041 0.855011,0.096008c0.22702,0.079987 0.401001,0.159988 0.562012,0.291992c0.145996,0.134995 0.252991,0.281998 0.320984,0.455002c0.07901,0.188004 0.119019,0.401993 0.119019,0.628006c0,0.147995 -0.026001,0.269989 -0.052002,0.388c-0.027008,0.132996 -0.07901,0.253998 -0.134003,0.347992c-0.080994,0.108002 -0.145996,0.214996 -0.240997,0.294006c-0.106995,0.080994 -0.213013,0.159988 -0.347992,0.213989c0.16098,0.026001 0.307983,0.07901 0.441986,0.158005c0.145996,0.083008 0.266998,0.175003 0.373993,0.296005c0.095001,0.119995 0.174011,0.266998 0.240997,0.425995c0.053009,0.173996 0.09201,0.348984 0.09201,0.548996zm-1.161987,-2.608002c0,-0.132996 -0.026001,-0.268997 -0.065002,-0.372009c-0.027008,-0.106995 -0.093018,-0.214996 -0.175018,-0.294998c-0.091003,-0.078995 -0.199982,-0.134995 -0.333008,-0.187988c-0.132965,-0.026001 -0.305969,-0.052002 -0.533997,-0.052002h-0.787994v1.869995h0.867004c0.201019,0 0.360992,-0.014999 0.494995,-0.065994c0.106995,-0.040009 0.213989,-0.119003 0.292999,-0.215012c0.082001,-0.091995 0.14801,-0.199997 0.188019,-0.306992c0.037994,-0.121002 0.052002,-0.240997 0.052002,-0.375zm0.347992,2.647995c0,-0.160995 -0.027008,-0.322998 -0.093994,-0.455002c-0.053009,-0.136002 -0.132019,-0.23999 -0.240997,-0.334c-0.106018,-0.093994 -0.240021,-0.147995 -0.387024,-0.199997c-0.16098,-0.039993 -0.359985,-0.078995 -0.60199,-0.078995h-0.919983v2.056992h1.119995c0.174988,0 0.321991,-0.026001 0.442993,-0.054993c0.145996,-0.054001 0.266998,-0.105011 0.359985,-0.199005c0.094025,-0.080994 0.173004,-0.173004 0.22702,-0.309006c0.066986,-0.118988 0.093994,-0.266998 0.093994,-0.425995z" fill="#A31E22"/>
     <path id="svg_70" d="m358.777985,140.582993c0,0.453995 -0.065979,0.882004 -0.172974,1.257996c-0.107025,0.373001 -0.279999,0.692001 -0.495026,0.959c-0.22699,0.268997 -0.505981,0.483002 -0.828003,0.615997c-0.333984,0.134003 -0.721985,0.215012 -1.162964,0.215012c-0.442017,0 -0.815002,-0.068008 -1.13501,-0.188004c-0.322021,-0.136002 -0.588013,-0.322998 -0.788025,-0.574005c-0.214966,-0.255997 -0.360992,-0.563004 -0.468994,-0.923004c-0.092987,-0.375 -0.159973,-0.804993 -0.159973,-1.281998c0,-0.455994 0.066986,-0.871002 0.173981,-1.229996c0.106995,-0.373001 0.282013,-0.695999 0.494995,-0.962997c0.22702,-0.268997 0.506989,-0.456009 0.84201,-0.613998c0.333008,-0.132004 0.721985,-0.212997 1.162994,-0.212997c0.414001,0 0.789001,0.080994 1.108002,0.19899c0.320984,0.12001 0.588013,0.307999 0.789001,0.574005c0.213989,0.240997 0.373993,0.535004 0.481018,0.910004c0.103973,0.360001 0.158966,0.775009 0.158966,1.255997zm-0.828979,0.054001c0,-0.348999 -0.027008,-0.643997 -0.079987,-0.936005c-0.053009,-0.268005 -0.161011,-0.520996 -0.294006,-0.720993c-0.134003,-0.215012 -0.320007,-0.375 -0.546997,-0.481003c-0.228027,-0.134003 -0.509033,-0.188004 -0.843018,-0.188004c-0.333008,0 -0.614014,0.065994 -0.842987,0.188004c-0.22702,0.132996 -0.415009,0.293991 -0.547028,0.50499c-0.146973,0.215012 -0.253967,0.456009 -0.306976,0.723007c-0.06601,0.294006 -0.093018,0.589996 -0.093018,0.880997c0,0.350998 0.027008,0.669998 0.081024,0.949005c0.051971,0.283997 0.159973,0.550995 0.292969,0.75c0.134003,0.199005 0.308014,0.360001 0.549011,0.481003c0.213013,0.119995 0.494995,0.172989 0.841003,0.172989c0.335022,0 0.615997,-0.067993 0.842987,-0.187988c0.22702,-0.132004 0.415009,-0.292007 0.562012,-0.507004c0.144989,-0.214996 0.240021,-0.455002 0.306,-0.749008c0.052002,-0.278976 0.07901,-0.585983 0.07901,-0.87999z" fill="#A31E22"/>
    </g>
   </g>
  </g>
  <text xml:space="preserve" text-anchor="middle" font-family="Sans-serif" font-size="24" id="svg_71" y="39" x="132" stroke-linecap="null" stroke-linejoin="null" stroke-width="0" stroke="#000000" fill="#333333"></text>
  <text xml:space="preserve" text-anchor="middle" font-family="Sans-serif" font-size="24" id="svg_72" y="64" x="125" stroke-linecap="null" stroke-linejoin="null" stroke-width="0" stroke="#000000" fill="#333333"> </text>
 </g>
</svg>
