<?xml version="1.0" encoding="utf-8"?>
<!DOCTYPE svg PUBLIC "-//W3C//DTD SVG 1.1//EN" "http://www.w3.org/Graphics/SVG/1.1/DTD/svg11.dtd">
<svg version="1.1" id="Layer_1" xmlns="http://www.w3.org/2000/svg" xmlns:xlink="http://www.w3.org/1999/xlink" x="0px" y="0px"
	 width="300px" height="300px" viewBox="0 0 300 300" enable-background="new 0 0 300 300" xml:space="preserve">
<path fill-rule="evenodd" clip-rule="evenodd" fill="#006838" d="M224.794,26.223c0.139-1.28,0.088-2.072,0.313-2.801
	c0.345-1.138,0.88-2.227,1.332-3.333c0.673,0.813,1.327,1.631,2.01,2.453c2.602,3.12,6.333,3.578,9.962,3.835
	c4.322,0.322,8.676,0.087,13.41,0.087c-0.715-4.103,2.576-3.368,4.374-4.458c1.589-1.557,3.12-4.27,4.771-4.338
	c1.521-0.061,3.161,2.704,4.301,4.734c4.441-0.5,5.393,3.059,6.688,6.275c1.557,3.825-0.05,6.375-2.385,9.536
	c-1.71,2.318-1.054,6.378-1.546,10.419c4.156,0,7.544-0.051,10.911,0.02c7.094,0.139,10.111,3.094,10.317,10.029
	c0.148,4.745,0.276,9.488,0.442,14.232c0.009,0.381,0.225,0.745,0.431,1.409c2.36,0.128,4.796,0.267,7.664,0.421
	c-0.639,2.627-1.07,4.928-1.754,7.155c-1.859,6.014-3.914,7.458-10.29,7.448c-15.431-0.007-30.864-0.181-46.286,0.052
	c-4.416,0.061-7.043-1.631-8.511-5.476c-1.142-2.923-2.041-5.91-3.233-9.472c3.274-0.242,5.946-0.432,9.21-0.673
	c0-4.925,0.053-9.73-0.015-14.542c-0.103-8.244,2.523-10.955,10.732-10.98c2.33,0,4.673,0,7.283,0c0-2.473,0-4.521,0-6.395
	c-7.469,0-14.905-0.209-22.318,0.181c-1.46,0.078-2.785,2.514-4.2,3.829c-0.605,0.551-1.314,1.019-1.968,1.518
	c-0.427-0.706-1.265-1.466-1.192-2.134c0.293-3.135-1.316-3.844-4.029-3.722c-3.353,0.155-2.365,2.617-2.298,4.354
	c0.071,1.641,0.828,3.233,1.054,4.874c0.216,1.608,0.587,3.422,0.098,4.856c-1.383,4.025-1.947,7.593,0.94,11.406
	c1.069,1.399,0.796,4.18,0.467,6.23c-0.39,2.324-1.876,4.467-2.23,6.8c-1.459,9.614-8.727,16.085-18.888,16.224
	c-9.505,0.123-18.989,0.071-28.487-0.042c-2.479-0.025-4.354,0.354-5.157,3.074c-0.276,0.951-1.104,1.789-1.833,2.55
	c-3.403,3.639-3.281,5.92,0.831,8.866c-2.707,2.004,3.723,6.887-3.699,7.812c3.958,1.805,6.671,1.225,9.092-1.022
	c1.64-1.521,3.032-3.309,4.698-4.802c4.164-3.7,8.943-5.704,14.645-6.014c8.908-0.483,17.98-0.209,26.379-4.173
	c0.451-0.216,1.003-0.319,1.521-0.338c0.364,0,0.725,0.242,1.531,0.528c-1.366,4.103-4.58,5.649-8.279,6.143
	c-5.625,0.761-11.258,1.332-16.927,1.66c-6.159,0.361-11.268,2.541-16.054,6.617c-3.818,3.274-8.641,5.366-12.978,8.054
	c-1.038,0.638-1.893,1.572-2.817,2.385c1.105,0.689,2.144,1.701,3.346,2.014c16.356,4.231,28.667,13.107,34.033,29.792
	c1.054,3.358,1.728,6.936,1.892,10.462c0.165,3.059,1.357,3.706,4.112,3.681c11.209-0.104,22.421,0,33.631-0.017
	c11.967-0.016,19.62,7.284,19.811,19.321c0.226,15.421,0.226,30.852,0.313,46.275c0.025,1.039,0.119,2.073,0.189,3.353
	c0.983,0.139,1.848,0.294,2.71,0.364c5.1,0.458,8.229,3.585,8.47,8.691c0.139,3.024,0.027,6.065,0.069,9.09
	c0.054,3.083-0.326,6.135,2.81,8.434c0.993,0.726,1.382,3.783,0.68,4.898c-0.948,1.512-3.161,2.879-4.966,3.068
	c-4.703,0.483-9.462,0.294-14.213,0.381c-1.295,0.025-2.595,0.108-4.061,0.181c-0.242,1.743-0.451,3.264-0.726,5.314
	c-5.668,0-11.313,0.051-16.937-0.098c-0.76-0.016-2.074-1.131-2.091-1.789c-0.164-3.428-2.421-3.603-4.935-3.608
	c-44.04-0.158-88.086-0.287-132.12-0.487c-2.359-0.016-3.722,0.381-3.8,3.145c-0.019,0.798-1.495,2.189-2.349,2.215
	c-4.738,0.206-9.507,0.19-14.232-0.035c-0.951-0.051-2.565-1.306-2.627-2.091c-0.215-2.946-2.014-3.395-4.312-3.438
	c-5.659-0.13-11.334-0.242-16.994-0.372c-2.759-0.062-5.417-0.528-6.413-3.551c-0.967-2.94,0.58-4.786,2.765-6.739
	c1.193-1.048,1.1-3.542,1.634-5.547c-5.84,0.829-10.852,1.588-15.862,2.228c-1.295,0.158-2.646,0.009-3.948-0.12
	c-14.216-1.504-20.452-11.25-15.364-24.573c1.867-4.883,4.828-9.331,7.249-13.997c4.097-7.951,8.734-15.673,12.13-23.907
	c4.909-11.985,4.4-24.316-0.741-36.212c-4.873-11.234-10.126-22.311-15.234-33.44C9.96,115.685,3.853,100.66,2.428,84.253
	C1.355,71.877,0.975,59.489,5.235,47.487c2.93-8.234,7.761-14.29,17.117-15.527c0.96-0.139,2.021-1.573,2.53-2.653
	c1.166-2.437,2.903-2.972,4.934-1.198c4.441,3.834,10.767,2.365,12.808-2.956c0.207-0.554,0.725-1.428,1.105-1.434
	c3.151,0,4.698-1.228,5.511-4.563c0.622-2.575,4.734-2.262,5.926,0.293c0.487,1.021,0.564,2.229,0.812,3.3
	c2.015,0.97,5.309-0.638,5.583,3.181c0.019,0.293,1.589,0.699,2.437,0.664c5.462-0.249,11.009-0.146,16.33-1.167
	c2.163-0.413,3.854-3.368,6.481-5.865c0.571,2.014,1.106,3.916,1.815,6.404c6.117,0,12.634,0.032,19.13-0.071
	c0.551-0.006,1.244-0.905,1.589-1.538c2.004-3.732,5.166-4.769,9.227-4.753c25.577,0.158,51.169,0.21,76.727,0.19
	c4.044,0,7.129,1.263,9.343,4.753c0.509,0.822,1.811,1.573,2.762,1.599C213.06,26.293,218.729,26.223,224.794,26.223z
	 M62.444,110.155c-0.432,0.068-0.883,0.148-1.305,0.226c1.044,4.405,4.009,6.738,8.45,6.826c3.397,0.051,6.801-0.391,10.188-0.812
	c2.929-0.364,5.469-1.131,6.462-4.693c0.451-1.582,2.8-3.906,3.871-3.706c1.643,0.309,3.648,2.281,4.199,3.974
	c1.583,4.847,3.032,9.849,3.594,14.896c1.212,10.681,0.97,21.377-3.404,31.477c-0.689,1.615-2.523,3.671-3.938,3.759
	c-1.35,0.077-2.816-2.179-4.302-3.316c-1.547-1.228-3.026-2.662-4.796-3.438c-1.772-0.78-3.864-0.729-5.772-1.238
	c-16.581-4.415-29.298-15.975-30.578-33.998c-0.19-2.765-0.57-5.514-0.97-8.253c-0.103-0.864-0.464-2.401-0.792-2.428
	c-5.427-0.38-2.698-4.354-3.622-7.432c3.932,0.941,3.571-1.415,3.673-3.661c0.139-2.888-1.885-2.549-3.664-2.923
	c-6.946-1.434-13.894-2.904-20.807-4.554c-1.019-0.232-2.443-1.459-2.54-2.349c-0.319-3.033-0.12-6.126-0.12-9.262
	c1.882,0.267,3.146,0.458,4.602,0.667c0.478-2.108,0.806-4.054,1.36-5.911c2.988-9.936,9.881-15.847,19.472-19.131
	c1.351-0.458,3.216-1.85,3.326-2.971c0.425-3.751,0.168-7.586,0.168-11.776c-2.559-0.128-4.79-0.431-6.965-0.293
	c-3.223,0.207-6.877-1.253-9.452,2.279c-0.278,0.374-2.405-0.587-3.665-0.993c-1.331-0.416-2.971-1.641-3.871-1.228
	c-2.404,1.125-5.324,2.462-6.523,4.573c-2.239,3.928-4.138,8.354-4.841,12.779c-3.177,20.2,0.046,39.728,8.064,58.371
	c6.333,14.777,13.478,29.189,20.046,43.86c5.875,13.117,6.91,26.621,2.817,40.523c-3.406,11.545-9.808,21.513-15.908,31.694
	c-2.153,3.577-4.086,7.428-5.237,11.422c-1.934,6.738,0.909,10.66,7.776,11.817c6.601,1.108,12.891,0.02,18.757-3.11
	c1.073-0.57,1.669-2.056,2.507-3.1c1.667-2.076,2.981-4.971,5.156-5.988c2.672-1.244,2.93-2.729,2.914-5.098
	c-0.077-15.561-0.277-31.123-0.077-46.684c0.128-10.826,7.689-17.922,18.447-17.938c11.458-0.016,22.941-0.061,34.404,0.077
	c2.739,0.036,3.684-0.873,3.854-3.558c0.209-3.268,0.615-6.584,1.47-9.739c4.718-17.262,17.123-26.179,33.611-30.568
	c1.183-0.319,2.34-0.674,4.622-1.341c-2.011-1.434-3.068-2.262-4.209-2.987c-5.156-3.336-10.235-6.817-15.585-9.853
	c-3.239-1.857-6.775-3.681-10.385-4.318c-6.732-1.193-13.619-1.399-20.419-2.221c-3.635-0.442-6.574-2.099-8.147-6.281
	c1.192,0,1.918-0.207,2.437,0.035c9.134,4.267,19.053,3.516,28.687,4.683c3.645,0.448,7.345,2.03,10.558,3.887
	c2.781,1.608,4.969,4.27,7.283,6.593c2.524,2.514,5.263,2.417,8.583,1.718c-1.521-1.728-2.574-2.93-3.629-4.128
	c2.298-1.486-0.899-5.762,3.229-6.43c0.242-0.036,0.345-1.177,0.451-1.824c0.89-5.501-3.552-10.99-9.179-11.032
	c-10.159-0.087-20.313,0.139-30.456,0c-9.765-0.139-16.581-6.6-17.783-16.243c-0.223-1.833-1.044-3.7-1.995-5.324
	c-1.66-2.816-1.935-5.65,0.157-8.086c2.65-3.11,2.401-6.378,0.829-9.498c-1.296-2.556-1.418-4.605,0.129-6.991
	c0.581-0.915,0.674-2.22,0.77-3.377c0.216-2.272-0.045-4.173-3.077-4.364c-2.653-0.164-3.584,0.909-3.49,3.433
	c0.019,0.654-0.623,1.892-0.96,1.892c-0.751,0.017-1.805-0.399-2.218-0.995c-2.568-3.681-6.31-4.38-10.377-4.371
	c-2.507,0.01-5.021-0.061-7.526-0.061c-8.641,0-8.47,0-8.805,8.795c-0.113,3.042,0.992,3.926,3.655,4.806
	c9.607,3.161,16.33,9.401,19.018,19.431c0.432,1.582,0.619,3.223,0.941,4.953c2.004-0.432,3.594-0.77,5.588-1.192
	c0,2.71-0.232,4.96,0.045,7.155c0.407,3.213-0.847,4.976-3.941,5.666c-6.298,1.383-12.547,2.991-18.896,4.148
	c-4.812,0.863-5.021,0.863-4.328,5.704c1.521,0.983,3.906,1.786,3.938,2.678C64.104,105.956,63.03,108.063,62.444,110.155z
	 M183.571,89.539c0-0.017,0-0.032,0-0.052c5.278,0,10.567,0.313,15.82-0.078c6.327-0.457,10.8-4.061,13.072-9.945
	c0.528-1.373,0.199-3.578-0.587-4.88c-1.979-3.268-2.211-6.126,0.605-8.927c2.582-2.559,2.272-5.649,0.768-8.312
	c-1.625-2.878-1.589-5.011-0.077-8.018c0.977-1.962,0-4.899-0.104-7.396c-2.756,0.206-6.816-0.632-7.993,0.838
	c-3.341,4.209-7.412,5.176-12.165,5.176c-24.659,0.078-49.319,0.097-73.978,0.226c-3.696,0.016-6.671-0.941-8.933-4.028
	c-1.547-2.124-8.409-3.506-9.16-1.744c-0.934,2.201-0.225,5.104-0.216,7.706c0,1.972,0.361,4.028-0.078,5.895
	c-0.847,3.645-1.727,7.032,1.193,10.296c2.143,2.385,1.553,4.928,0.026,7.639c-0.831,1.444-1.263,3.819-0.647,5.247
	c2.955,6.852,8.485,10.229,15.904,10.307c9.498,0.103,18.992,0.155,28.48-0.087c1.989-0.042,4.206-1.028,5.833-2.253
	c3.852-2.894,8.898-3.9,11.921-0.702c3.172,3.355,6.656,3.119,10.43,3.094C176.98,89.522,180.28,89.539,183.571,89.539z
	 M123.652,189.784c5.908,2.859,7.999,6.134,6.324,9.868c-0.655,1.451-2.047,3.388-3.301,3.559c-2.884,0.396-5.901-0.154-9.375-0.354
	c-0.387,1.737-0.951,4.193-1.527,6.784c7.197-0.035,10.296,1.952,10.558,6.368c0.293,4.725-2.385,6.729-10.342,7.335
	c0.992,3.403,1.943,6.703,2.955,10.127c5.511-2.827,9.166-2.411,11.463,0.914c2.375,3.439,1.589,6.118-3.49,11.252
	c1.676,1.588,3.319,3.178,5.021,4.785c4.035-5.279,7.032-6.636,10.619-4.579c1.399,0.796,3.075,2.297,3.265,3.664
	c0.345,2.54-0.328,5.218-0.605,8.261c1.763,0.379,3.977,0.848,6.224,1.33c0.89-6.116,2.884-8.435,6.964-8.526
	c4.268-0.098,6.514,2.288,7.932,9.371c6.101-2.652,11.976-5.201,18.603-8.076c-3.423-4.399-6.266-7.648-8.624-11.226
	c-1.718-2.61-2.962-3.109-5.918-1.469c-12.505,6.947-28.531,1.737-35.203-11.13c-6.529-12.598-1.138-28.312,11.84-34.561
	c9.907-4.76,22.289-2.03,30.282,6.687c7.251,7.9,8.338,20.4,2.784,29.812c-0.883,1.495-1.885,3.989-1.228,5.131
	c2.633,4.631,6.616,8.012,11.534,10.049c12.389-12.742,13.652-34.552,7.274-45.793c-6.549,2.894-10.056,2.703-12.079-1.028
	c-0.761-1.398-1.435-3.629-0.828-4.821c1.254-2.498,3.387-4.554,5.459-7.19c-1.856-1.676-4.139-3.696-6.497-5.804
	c-3.584,6.101-6.981,7.982-10.8,5.937c-1.383-0.745-3.155-2.308-3.265-3.639c-0.261-2.781,0.464-5.65,0.87-9.073
	c-2.165-0.415-4.89-0.914-7.87-1.485c-0.016,4.802-0.951,8.625-5.694,9.314c-4.719,0.673-7.387-1.83-8.241-6.497
	c-0.087-0.484-1.463-1.192-2.082-1.073c-2.214,0.477-4.357,1.263-6.656,1.972c3.265,5.907,3.372,8.95,0.364,11.283
	c-1.176,0.916-3.058,1.918-4.25,1.583c-2.74-0.755-5.237-2.324-8.383-3.829C126.743,186.165,125.328,187.815,123.652,189.784z
	 M105.349,217.623c-1.069,27.217,24.532,53.586,50.686,52.429c1.08-3.283,0.345-4.831-3.526-5.407
	c-14.551-2.17-26.04-9.417-34.243-21.731c-5.062-7.613-7.644-16.063-8.179-25.29C108.324,217.623,106.838,217.623,105.349,217.623z
	 M109.481,213.44c1.347-5.477,2.005-10.8,3.958-15.596c7.344-17.894,20.597-28.451,39.995-31.077
	c1.045-0.14,1.893-1.747,2.844-2.679c-1.038-0.831-1.996-1.824-3.152-2.437c-0.6-0.296-1.547,0.068-2.327,0.171
	c-15.812,2.239-28.046,10.232-36.927,23.295c-5.737,8.425-8.745,17.815-8.796,28.322C106.751,213.44,108.166,213.44,109.481,213.44z
	 M211.842,213.701c-0.49-31.52-29.367-53.399-52.059-51.791c-0.603,2.507-0.88,4.493,2.826,4.848
	c16.546,1.614,29.128,9.961,37.198,24.203c3.86,6.816,5.721,14.773,8.656,22.74C208.776,213.701,210.176,213.701,211.842,213.701z
	 M50.4,88.588c7.258-1.035,14.029-1.934,20.736-3.007c2.479-0.396,6.246-0.396,5.563-3.974c-0.638-3.3-4.128-1.969-6.41-1.554
	c-12.907,2.382-25.767,3.403-38.684-0.081c-1.27-0.345-3.013,1.057-4.535,1.65c1.044,1.254,1.902,3.355,3.146,3.603
	C37.006,86.619,43.884,87.553,50.4,88.588z M263.92,77.597c0,0.052,0,0.104,0,0.155c5.665,0,11.318-0.007,16.968,0
	c2.057,0,4.528-0.084,4.216-2.704c-0.139-1.183-2.582-2.945-4.026-2.972c-11.439-0.242-22.878-0.216-34.336-0.016
	c-1.348,0.025-3.732,1.527-3.86,2.581c-0.304,2.488,1.856,2.991,4.066,2.965C252.601,77.556,258.267,77.597,263.92,77.597z
	 M84.64,246.933c0,0.051,0,0.092,0,0.145c5.125,0,10.274,0.173,15.379-0.11c1.444-0.087,3.778-1.366,4.003-2.436
	c0.5-2.518-1.676-3.155-3.854-3.166c-10.265-0.051-20.514-0.195-30.759-0.015c-1.351,0.034-3.551,1.588-3.787,2.764
	c-0.483,2.308,1.573,2.853,3.648,2.833C74.401,246.905,79.515,246.933,84.64,246.933z M232.078,247.569c0,0,0-0.017,0-0.035
	c5.246,0,10.516,0.01,15.77,0c2.124,0,3.973-0.813,3.475-3.09c-0.236-1.09-2.248-2.498-3.491-2.523
	c-10.388-0.2-20.771-0.226-31.159,0c-1.311,0.035-2.601,1.814-3.912,2.78c1.312,0.95,2.582,2.646,3.948,2.729
	C221.822,247.761,226.953,247.569,232.078,247.569z M160.44,270.227c8.579,0.982,24.297-4.147,29.785-9.852
	c0.562-0.568,0.571-2.351,0.094-3.127c-1.208-2.021-2.868-1.659-4.666-0.396c-6.453,4.597-13.711,7.341-21.574,7.938
	C160.147,265.093,159.283,266.597,160.44,270.227z M195.808,247.673c3.065,0.693,5.028,2.698,7.074-0.379
	c5.186-7.742,8.279-16.158,8.934-25.437c0.304-4.439-0.119-4.708-4.838-3.716C206.288,228.787,202.83,238.585,195.808,247.673z
	 M94.205,135.454c-0.406-3.29-0.623-6.852-1.393-10.3c-0.37-1.667-1.511-3.368-2.791-4.528c-0.654-0.603-2.437-0.222-3.568,0.132
	c-0.283,0.093-0.406,1.892-0.061,2.685c3.51,8.228,3.793,16.4,0.02,24.651c-0.381,0.805-0.129,2.513,0.483,3
	c0.674,0.552,2.61,0.639,3.094,0.12c1.251-1.399,2.495-3.146,2.884-4.925C93.618,142.851,93.783,139.273,94.205,135.454z"/>
</svg>
