<?xml version="1.0" encoding="utf-8"?>
<!DOCTYPE svg PUBLIC "-//W3C//DTD SVG 1.1//EN" "http://www.w3.org/Graphics/SVG/1.1/DTD/svg11.dtd">
<svg version="1.1" id="Layer_1" xmlns="http://www.w3.org/2000/svg" xmlns:xlink="http://www.w3.org/1999/xlink" x="0px" y="0px"
	 width="300px" height="300px" viewBox="0 0 300 300" enable-background="new 0 0 300 300" xml:space="preserve">
<g>
	<path id="icon_bgrnd" fill="#216E86" d="M299.333,150.538
		c0,82.393-66.791,149.189-149.184,149.189c-82.397,0-149.193-66.796-149.193-149.189C0.956,68.143,67.751,1.35,150.149,1.35
		C232.542,1.35,299.333,68.143,299.333,150.538z"/>
	<path id="shade" fill="#0B6577" d="M0.956,150.538c0,25.14,6.228,48.823,17.211,69.604c20.782,10.982,44.464,17.21,69.605,17.21
		c82.393,0,149.186-66.793,149.186-149.189c0-25.141-6.228-48.823-17.21-69.604C198.968,7.577,175.287,1.35,150.149,1.35
		C67.751,1.35,0.956,68.143,0.956,150.538z"/>
	<path id="q_mark" fill="#FFFFFF" d="M233.292,127.972c0,25.701-7.633,45.67-22.892,59.906
		c-11.494,10.808-23.145,16.212-34.964,16.212v12.99h-49.521v-60.063c8.864,3.762,15.758,5.637,20.684,5.637
		c9.688,0,17.813-3.336,24.377-10.008c6.568-6.682,9.853-14.743,9.853-24.193c0-9.444-3.421-17.544-10.262-24.303
		c-6.837-6.756-14.734-10.139-23.691-10.139c-7.986,0-15.473,3.107-22.474,9.316c-7.002,6.213-10.996,13.323-11.972,21.329
		l-50.99-6.639c4.251-20.817,13.582-37.87,27.986-51.148c15.709-14.594,34.859-21.888,57.45-21.888
		c25.533,0,46.317,7.817,62.36,23.45C225.275,84.063,233.292,103.91,233.292,127.972z M179.853,257.412
		c0,8.041-2.834,14.813-8.495,20.313c-5.664,5.493-12.518,8.246-20.559,8.246c-8.207,0-15.144-2.753-20.808-8.246
		c-5.662-5.5-8.487-12.272-8.487-20.313c0-8.046,2.825-14.935,8.487-20.68c5.664-5.744,12.601-8.619,20.808-8.619
		c8.041,0,14.895,2.875,20.559,8.619C177.019,242.478,179.853,249.366,179.853,257.412z"/>
</g>
</svg>
